G04 Layer_Physical_Order=1*
G04 Layer_Color=255*
%FSLAX44Y44*%
%MOMM*%
G71*
G01*
G75*
%ADD10R,1.0000X2.0000*%
%ADD11R,0.7500X2.0000*%
%ADD12C,0.2540*%
%ADD13C,0.7500*%
%ADD14C,1.5000*%
%ADD15R,1.5000X1.5000*%
%ADD16C,1.6500*%
%ADD17R,1.5000X1.5000*%
%ADD18C,1.2500*%
%ADD19R,1.2500X1.2500*%
%ADD20C,1.5000*%
%ADD21R,1.5000X1.5000*%
%ADD22C,4.0000*%
%ADD23R,2.0000X2.0000*%
%ADD24R,4.0000X4.0000*%
%ADD25R,1.5000X1.5000*%
%ADD26C,1.4000*%
%ADD27R,1.6500X1.6500*%
%ADD28O,1.0000X2.0000*%
%ADD29O,1.0000X2.0000*%
%ADD30C,1.2700*%
D10*
X1849280Y1344930D02*
D03*
X2118520D02*
D03*
Y1200150D02*
D03*
X1869600D02*
D03*
D11*
X1938020Y1181100D02*
D03*
X1887126D02*
D03*
X1912780D02*
D03*
X1963420D02*
D03*
X1988820D02*
D03*
X2014220D02*
D03*
X2039620D02*
D03*
X2065020D02*
D03*
X2085180D02*
D03*
X2095500D02*
D03*
X2105660D02*
D03*
D12*
X406654Y990600D02*
Y1041400D01*
Y965200D02*
Y990600D01*
Y863600D02*
Y965200D01*
X1104900Y1018700D02*
X1117600Y1031400D01*
X533400Y1143254D02*
Y1155700D01*
Y1143254D02*
X571500Y1105154D01*
X713740Y1348740D02*
X835660D01*
X698500Y1333500D02*
X713740Y1348740D01*
X698500Y1117600D02*
Y1333500D01*
X731520Y1341120D02*
X817880D01*
X711200Y1320800D02*
X731520Y1341120D01*
X711200Y1244600D02*
Y1320800D01*
X635000D02*
X647700D01*
X685800Y1282700D01*
Y1193800D02*
Y1282700D01*
X2019300Y1054100D02*
Y1143000D01*
X2001520Y1160780D02*
X2019300Y1143000D01*
X2001520Y1160780D02*
Y1193800D01*
X1899920Y1071880D02*
X1930400Y1041400D01*
X1993900Y1287780D02*
Y1308100D01*
X1899920Y1193800D02*
X1993900Y1287780D01*
X1899920Y1071880D02*
Y1193800D01*
X1925320D02*
X2019300Y1287780D01*
Y1308100D01*
X2001520Y1193800D02*
X2044700Y1236980D01*
Y1308100D01*
X1993900Y1117600D02*
Y1130300D01*
X1968500Y1155700D02*
X1993900Y1130300D01*
X1955800Y1155700D02*
X1968500D01*
X1955800Y1130300D02*
Y1143000D01*
Y1130300D02*
X1993900Y1092200D01*
X1925320Y1160780D02*
X1943100Y1143000D01*
X1981200Y1054100D02*
Y1092200D01*
X1943100Y1130300D02*
Y1143000D01*
Y1130300D02*
X1981200Y1092200D01*
X1925320Y1160780D02*
Y1193800D01*
X1993900Y952500D02*
Y1092200D01*
X1651000Y584200D02*
Y787400D01*
Y533400D02*
Y584200D01*
X2006600Y1041400D02*
X2019300Y1054100D01*
X1938020Y1173480D02*
X1955800Y1155700D01*
X1993900Y1117600D02*
X2006600Y1104900D01*
Y1041400D02*
X2032000D01*
X2095500Y977900D01*
X2014220Y1173480D02*
Y1181100D01*
Y1173480D02*
X2082800Y1104900D01*
X330200Y990600D02*
X381000Y1041400D01*
X317500Y952500D02*
X330200Y965200D01*
X317500Y906780D02*
Y952500D01*
Y906780D02*
X322580Y901700D01*
X342900D01*
X381000Y863600D01*
X1524000Y673100D02*
Y812800D01*
X1498600Y647700D02*
X1524000Y673100D01*
X1498600Y330200D02*
Y647700D01*
X1536700Y660400D02*
Y711200D01*
X1511300Y635000D02*
X1536700Y660400D01*
X1714500Y787400D02*
Y850900D01*
X1689100Y876300D02*
Y977900D01*
Y876300D02*
X1714500Y850900D01*
X1701800Y787400D02*
Y838200D01*
X1676400Y863600D02*
X1701800Y838200D01*
X1689100Y800100D02*
Y825500D01*
X1651000Y863600D02*
X1689100Y825500D01*
X1651000Y863600D02*
Y876300D01*
X1689100Y762000D02*
X1714500Y787400D01*
X1701800Y876300D02*
X1739900Y838200D01*
Y774700D02*
Y838200D01*
X1879600Y825500D02*
Y889000D01*
X1866900Y812800D02*
X1879600Y825500D01*
X1866900Y558800D02*
Y812800D01*
Y558800D02*
X1892300Y533400D01*
Y469900D02*
Y533400D01*
X1866900Y838200D02*
Y952500D01*
X1854200Y546100D02*
Y825500D01*
X1866900Y838200D01*
X1854200Y381000D02*
Y520700D01*
X1841500Y838200D02*
X1854200Y850900D01*
X1841500Y533400D02*
Y838200D01*
Y533400D02*
X1854200Y520700D01*
X1841500Y469900D02*
Y508000D01*
X1854200Y939800D02*
Y965200D01*
X1790700Y558800D02*
X1841500Y508000D01*
X1790700Y558800D02*
Y774700D01*
X1816100Y393700D02*
Y469900D01*
X1790700Y774700D02*
X1816100Y800100D01*
Y901700D01*
X1854200Y939800D01*
X1803400Y762000D02*
X1828800Y787400D01*
X1803400Y609600D02*
Y762000D01*
Y609600D02*
X1828800Y584200D01*
X1803400Y901700D02*
X1841500Y939800D01*
Y977900D01*
X1854200Y990600D01*
Y1041400D01*
X1841500Y1003300D02*
Y1104900D01*
X1816100Y977900D02*
X1841500Y1003300D01*
X1816100Y939800D02*
Y977900D01*
X1790700Y914400D02*
X1816100Y939800D01*
X1790700Y876300D02*
Y914400D01*
X1778000Y863600D02*
X1790700Y876300D01*
X2095500Y889000D02*
X2120900Y863600D01*
X2108200Y901700D02*
X2133600Y876300D01*
Y635000D02*
Y876300D01*
X2146300Y622300D02*
Y863600D01*
X2159000Y609600D02*
Y850900D01*
X2171700Y685800D02*
Y876300D01*
X2019300Y736600D02*
Y774700D01*
X2032000Y711200D02*
Y723900D01*
X2019300Y736600D02*
X2032000Y723900D01*
X1968500Y406400D02*
Y850900D01*
X2006600Y787400D02*
X2019300Y774700D01*
X2070100Y825500D02*
Y850900D01*
X2057400Y812800D02*
X2070100Y825500D01*
X2057400Y762000D02*
Y812800D01*
X2044700Y723900D02*
Y850900D01*
X2019300Y876300D02*
X2044700Y850900D01*
Y660400D02*
Y723900D01*
X2032000Y647700D02*
X2044700Y660400D01*
X2006600Y787400D02*
Y838200D01*
X1993900Y609600D02*
Y850900D01*
X1765300Y533400D02*
Y596900D01*
X1752600Y609600D02*
X1765300Y596900D01*
X1803400Y381000D02*
X1816100Y368300D01*
X1841500D01*
X1854200Y381000D01*
X2120900Y622300D02*
X2133600Y635000D01*
X2120900Y571500D02*
Y622300D01*
X2133600Y609600D02*
X2146300Y622300D01*
Y596900D02*
X2159000Y609600D01*
X2108200Y596900D02*
Y749300D01*
X2057400Y393700D02*
X2095500Y431800D01*
Y584200D02*
X2108200Y596900D01*
X2095500Y431800D02*
Y584200D01*
X1943100Y787400D02*
Y845820D01*
X1930400Y762000D02*
Y774700D01*
X1943100Y787400D01*
X2044700Y495300D02*
Y609600D01*
X2006600Y457200D02*
X2044700Y495300D01*
X2082800Y787400D02*
Y812800D01*
X2070100Y774700D02*
X2082800Y787400D01*
X2019300Y825500D02*
Y850900D01*
X2095500Y609600D02*
Y863600D01*
X2070100Y533400D02*
Y774700D01*
X2057400Y520700D02*
X2070100Y533400D01*
X2057400Y508000D02*
Y520700D01*
X1943100Y701040D02*
Y723900D01*
X1917700Y675640D02*
X1943100Y701040D01*
X1917700Y622300D02*
Y675640D01*
X1930400Y673100D02*
X1943100Y685800D01*
X2032000Y635000D02*
Y647700D01*
X1930400Y736600D02*
X1943100Y723900D01*
X1917700Y622300D02*
X1943100Y596900D01*
Y533400D02*
Y596900D01*
Y622300D02*
X1955800Y609600D01*
X1943100Y622300D02*
Y647700D01*
Y533400D02*
X1955800Y520700D01*
Y508000D02*
Y520700D01*
X1816100Y647700D02*
Y698500D01*
X2120900Y673100D02*
Y863600D01*
X1244600Y584200D02*
Y1079500D01*
X1231900Y914400D02*
Y1054100D01*
X990600Y1003300D02*
X1003300Y990600D01*
X800100Y825500D02*
Y1016000D01*
Y1104900D01*
X787400Y1117600D02*
X800100Y1104900D01*
X1143000Y1066800D02*
X1155700Y1079500D01*
X1143000Y774700D02*
Y1066800D01*
X800100Y825500D02*
X825500Y800100D01*
X774700Y850900D02*
Y952500D01*
X787400Y965200D01*
Y812800D02*
Y939800D01*
X774700Y800100D02*
X787400Y812800D01*
X774700Y749300D02*
Y800100D01*
X762000Y736600D02*
Y812800D01*
X736600Y711200D02*
X762000Y736600D01*
X533400Y1003300D02*
X571500Y1041400D01*
X533400Y635000D02*
Y1003300D01*
X495300Y596900D02*
X508000D01*
X487680D02*
X495300D01*
Y622300D01*
X508000Y596900D02*
X520700Y584200D01*
X817880Y1341120D02*
X838200Y1320800D01*
X990600Y1092200D02*
Y1104900D01*
X965200Y1130300D02*
X990600Y1104900D01*
X965200Y1130300D02*
Y1163320D01*
X977900Y1188720D02*
X990600Y1176020D01*
X977900Y1143000D02*
Y1173480D01*
X952500Y1176020D02*
X965200Y1163320D01*
X952500Y1176020D02*
Y1257300D01*
X965200Y1186180D02*
X977900Y1173480D01*
X965200Y1092200D02*
Y1104900D01*
X952500Y1117600D02*
X965200Y1104900D01*
X952500Y1117600D02*
Y1155700D01*
X939800Y1117600D02*
X952500Y1104900D01*
X939800Y1117600D02*
Y1130300D01*
Y1244600D01*
X1320800Y1257554D02*
X1346200Y1282954D01*
X1320800Y1244600D02*
Y1257554D01*
X1206500Y723900D02*
Y1282700D01*
X1168400Y850900D02*
Y889000D01*
X1155700Y901700D02*
X1168400Y889000D01*
X1155700Y711200D02*
Y876300D01*
X1663700Y1003300D02*
X1689100Y977900D01*
X431800Y1028700D02*
Y1066800D01*
X495300Y939800D02*
Y1028700D01*
Y939800D02*
X520700Y914400D01*
X558800Y850900D02*
X609600Y800100D01*
Y673100D02*
Y800100D01*
X558800Y622300D02*
X609600Y673100D01*
X558800Y495300D02*
Y622300D01*
X571500Y609600D02*
X622300Y660400D01*
X571500Y482600D02*
Y609600D01*
X584200Y596900D02*
X635000Y647700D01*
X584200Y495300D02*
Y596900D01*
X596900Y482600D02*
Y584200D01*
X609600Y469900D02*
Y571500D01*
X596900Y685800D02*
Y787400D01*
X571500Y812800D02*
X596900Y787400D01*
X952500Y317500D02*
X1079500D01*
X939800Y330200D02*
X952500Y317500D01*
X939800Y330200D02*
Y381000D01*
X965200Y330200D02*
X1066800D01*
X952500Y342900D02*
X965200Y330200D01*
X952500Y342900D02*
Y388620D01*
X977900Y342900D02*
X1054100D01*
X965200Y355600D02*
X977900Y342900D01*
X965200Y355600D02*
Y381000D01*
X1054100Y342900D02*
X1079500Y368300D01*
X1066800Y330200D02*
X1104900Y368300D01*
X1079500Y317500D02*
X1130300Y368300D01*
X1041400Y355600D02*
X1054100Y368300D01*
X990600Y355600D02*
X1041400D01*
X977900Y368300D02*
X990600Y355600D01*
X1397000Y520700D02*
X1447800Y571500D01*
X1397000Y368300D02*
Y520700D01*
X965200Y1186180D02*
Y1244600D01*
X977900Y1188720D02*
Y1257300D01*
X1143000Y419100D02*
Y698500D01*
X1282700Y889000D02*
Y916940D01*
X1320800Y955040D02*
Y977900D01*
X1282700Y916940D02*
X1320800Y955040D01*
Y876300D02*
Y927100D01*
X1498600Y774700D02*
Y901700D01*
X1701800Y889000D02*
Y927100D01*
X1663700Y1003300D02*
Y1130300D01*
X1816100Y647700D02*
X1828800Y635000D01*
X1803400Y939800D02*
Y965200D01*
X1765300Y901700D02*
X1803400Y939800D01*
X1765300Y838200D02*
Y901700D01*
X1752600Y825500D02*
X1765300Y838200D01*
X1752600Y812800D02*
Y825500D01*
Y939800D02*
X1778000Y965200D01*
X1752600Y889000D02*
Y939800D01*
X1384300Y635000D02*
X1422400Y673100D01*
Y723900D01*
X1447800Y571500D02*
Y812800D01*
X1346200Y495300D02*
Y520700D01*
X1435100Y889000D02*
Y914400D01*
X1397000Y952500D02*
X1435100Y914400D01*
X1397000Y952500D02*
Y977900D01*
X1460500Y825500D02*
Y838200D01*
X1447800Y812800D02*
X1460500Y825500D01*
X1447800D02*
Y850900D01*
X1409700Y787400D02*
X1447800Y825500D01*
X1409700Y762000D02*
Y787400D01*
X1346200Y749300D02*
Y800100D01*
X1320800Y825500D02*
X1346200Y800100D01*
X1320800Y825500D02*
Y863600D01*
X1346200Y749300D02*
X1384300Y711200D01*
X1358900Y762000D02*
Y812800D01*
X1346200Y825500D02*
X1358900Y812800D01*
X1346200Y825500D02*
Y850900D01*
X1384300Y762000D02*
Y812800D01*
X1371600Y825500D02*
X1384300Y812800D01*
X1371600Y825500D02*
Y850900D01*
X1422400Y825500D02*
Y850900D01*
X1397000Y800100D02*
X1422400Y825500D01*
X1397000Y749300D02*
Y800100D01*
X1612900Y622300D02*
Y952500D01*
X1384300Y990600D02*
Y1016000D01*
Y990600D02*
X1397000Y977900D01*
X1422400Y876300D02*
Y901700D01*
X1371600Y952500D02*
X1422400Y901700D01*
X1371600Y952500D02*
Y977900D01*
X1358900Y939800D02*
X1371600Y927100D01*
X1346200Y1003300D02*
X1371600Y977900D01*
X1308100Y1016000D02*
X1346200Y977900D01*
Y914400D02*
Y977900D01*
Y914400D02*
X1358900Y901700D01*
X1371600Y876300D02*
X1409700Y838200D01*
X1371600Y876300D02*
Y927100D01*
X1333500Y889000D02*
X1371600Y850900D01*
X1320800Y876300D02*
X1346200Y850900D01*
X1308100Y876300D02*
X1320800Y863600D01*
X1701800Y876300D02*
Y889000D01*
X1638300Y381000D02*
Y825500D01*
X1155700Y901700D02*
Y1066800D01*
X1219200Y1104900D02*
Y1231900D01*
X1206500Y1282700D02*
X1231900Y1308100D01*
X1130300Y368300D02*
Y711200D01*
X1155700Y1066800D02*
X1168400Y1079500D01*
X1092200Y1270000D02*
X1104900Y1257300D01*
X1092200Y1270000D02*
Y1295400D01*
X1054100Y1282700D02*
X1079500Y1257300D01*
X1054100Y1282700D02*
Y1308100D01*
X1003300Y1282700D02*
X1028700Y1257300D01*
X990600Y1270000D02*
X1003300Y1257300D01*
X990600Y1270000D02*
Y1295400D01*
X1041400Y1270000D02*
X1054100Y1257300D01*
X1041400Y1270000D02*
Y1295400D01*
X876300Y1117600D02*
Y1333500D01*
X1117600Y584200D02*
Y647700D01*
X774700Y1282700D02*
Y1308100D01*
X762000Y1270000D02*
X774700Y1282700D01*
X762000Y1244600D02*
Y1270000D01*
X1701800Y1016000D02*
Y1028700D01*
X1752600Y1079500D01*
X1866900Y977900D02*
Y1130300D01*
X1587500D02*
Y1231900D01*
X1117600Y723900D02*
X1130300Y711200D01*
X1028700Y812800D02*
Y901700D01*
X1193800Y927100D02*
Y1092200D01*
X965200Y1066800D02*
X990600Y1092200D01*
X1282700Y762000D02*
X1308100D01*
X1384300Y749300D02*
Y762000D01*
X1498600Y1244600D02*
Y1307592D01*
X1473200Y1219200D02*
X1498600Y1244600D01*
X1473200Y1168654D02*
Y1219200D01*
X1320800Y444500D02*
Y596900D01*
X1308100Y609600D02*
Y635000D01*
Y609600D02*
X1320800Y596900D01*
X1422400Y609600D02*
Y647700D01*
X1409700Y584200D02*
Y596900D01*
X1422400Y609600D01*
X977900Y508000D02*
Y546100D01*
X863600Y393700D02*
X977900Y508000D01*
X863600Y381000D02*
Y393700D01*
X914400Y533400D02*
Y546100D01*
X927100Y558800D01*
X901700D02*
Y596900D01*
X889000Y533400D02*
Y546100D01*
X901700Y558800D01*
X876300D02*
Y596900D01*
X863600Y533400D02*
Y546100D01*
X876300Y558800D01*
X825500Y520700D02*
Y596900D01*
X812800Y508000D02*
X825500Y520700D01*
X812800Y381000D02*
Y508000D01*
X850900Y520700D02*
Y596900D01*
X838200Y508000D02*
X850900Y520700D01*
X838200Y381000D02*
Y508000D01*
X1346200Y622300D02*
Y673100D01*
X1333500Y685800D02*
X1346200Y673100D01*
X1333500Y685800D02*
Y711200D01*
X1282700Y622300D02*
Y635000D01*
Y622300D02*
X1308100Y596900D01*
Y584200D02*
Y596900D01*
X1397000Y698500D02*
Y736600D01*
X1358900Y660400D02*
X1397000Y698500D01*
X1358900Y635000D02*
Y660400D01*
X1333500Y533400D02*
X1346200Y520700D01*
X1333500Y533400D02*
Y584200D01*
Y482600D02*
X1346200Y495300D01*
X1333500Y457200D02*
Y482600D01*
X1320800Y444500D02*
X1333500Y431800D01*
Y381000D02*
Y431800D01*
X1714500Y373380D02*
Y419100D01*
X1689100Y444500D02*
X1714500Y419100D01*
X1828800Y1079500D02*
Y1092200D01*
X1816100Y1066800D02*
X1828800Y1079500D01*
X1816100Y1028700D02*
Y1066800D01*
X2082800Y596900D02*
X2095500Y609600D01*
X2082800Y584200D02*
Y596900D01*
X1955800Y584200D02*
Y609600D01*
X1981200Y495300D02*
X1993900Y482600D01*
X1981200Y495300D02*
Y508000D01*
X774700Y749300D02*
X787400Y736600D01*
X838200Y609600D02*
Y693420D01*
X1930400Y635000D02*
Y673100D01*
X1550400Y381000D02*
Y419100D01*
X546100Y723900D02*
X571500Y698500D01*
X546100Y723900D02*
Y736600D01*
X1104900Y812800D02*
Y1018700D01*
X1092200Y1066800D02*
X1104900Y1079500D01*
X1092200Y990600D02*
Y1066800D01*
X749300Y977900D02*
Y1104900D01*
X736600Y1117600D02*
X749300Y1104900D01*
X723900Y1003300D02*
Y1104900D01*
X711200Y1117600D02*
X723900Y1104900D01*
X1282700Y711200D02*
X1333500Y660400D01*
Y635000D02*
Y660400D01*
X1041400Y939800D02*
Y990600D01*
X1536700Y1054100D02*
Y1130300D01*
X1422400Y1028700D02*
Y1142746D01*
Y1028700D02*
X1435100Y1016000D01*
X1371600Y1028700D02*
X1422400D01*
X1358900Y1016000D02*
X1371600Y1028700D01*
X558800Y952500D02*
X571500Y965200D01*
X558800Y850900D02*
Y952500D01*
X990600Y1193800D02*
Y1244600D01*
X1498600Y1307592D02*
X1524254Y1333246D01*
X431800Y1140300D02*
X431960Y1140460D01*
X419100Y1133000D02*
X431800Y1120300D01*
X419100Y1133000D02*
Y1168146D01*
X431800Y1180846D01*
X330200Y1117600D02*
X381000Y1066800D01*
X1435100Y1143000D02*
Y1308100D01*
X1092200Y1155700D02*
Y1244600D01*
X381000Y1143000D02*
Y1181100D01*
X850900Y1117600D02*
Y1206500D01*
X800100Y1117600D02*
Y1257300D01*
X774700Y1117600D02*
Y1257300D01*
X927100Y876300D02*
Y990600D01*
Y812800D02*
Y876300D01*
X901700Y901700D02*
Y990600D01*
Y812800D02*
Y901700D01*
X762000Y939800D02*
Y952500D01*
X571500Y1105154D02*
X596900Y1079754D01*
Y889000D02*
Y1079754D01*
X571500Y863600D02*
X596900Y889000D01*
X571500Y1041400D02*
Y1079500D01*
X330200Y939546D02*
Y939800D01*
Y939546D02*
X380746Y889000D01*
X482600Y927100D02*
Y1054100D01*
Y927100D02*
X520700Y889000D01*
X495300Y1066800D02*
X520700Y1041400D01*
X495300Y1066800D02*
Y1092200D01*
X381254Y1066800D02*
X406654Y1041400D01*
X1587500Y622300D02*
X1600200Y635000D01*
X1587500Y546100D02*
Y622300D01*
X863600Y609600D02*
Y711200D01*
X1092200Y812800D02*
Y825500D01*
X1016000Y584200D02*
Y596900D01*
X1003300Y609600D02*
X1016000Y596900D01*
X1003300Y609600D02*
Y749300D01*
X1028700Y619760D02*
X1041400Y607060D01*
X1028700Y619760D02*
Y749300D01*
X914400Y609600D02*
Y622300D01*
X1016000Y609600D02*
X1028700Y596900D01*
Y576580D02*
Y596900D01*
X1023620Y571500D02*
X1028700Y576580D01*
Y558800D02*
X1041400Y571500D01*
X1828800Y609600D02*
Y635000D01*
X1651000Y584200D02*
X1676400D01*
X1651000Y787400D02*
X1676400Y812800D01*
X1638300Y381000D02*
X1663700Y355600D01*
X1714500D01*
X1727200Y368300D01*
Y381000D01*
X1625600Y533400D02*
Y558800D01*
X1600200Y584200D02*
X1625600Y558800D01*
X1709420Y368300D02*
X1714500Y373380D01*
X1689100Y368300D02*
X1709420D01*
X1676400Y381000D02*
X1689100Y368300D01*
X660400Y1130300D02*
Y1155700D01*
X1752600Y419100D02*
Y457200D01*
X1727200Y482600D02*
Y495300D01*
X1701800Y457200D02*
X1727200Y482600D01*
X1574800Y1168400D02*
Y1181100D01*
X825500Y825500D02*
Y952500D01*
X800100Y609600D02*
Y749300D01*
X1028700Y546100D02*
X1066800Y584200D01*
X1028700Y373380D02*
Y546100D01*
X914400Y609600D02*
X927100Y596900D01*
Y558800D02*
Y596900D01*
X469900Y787400D02*
Y812800D01*
X812800Y609600D02*
Y660400D01*
X889000Y609600D02*
Y698500D01*
X1054100Y635000D02*
Y749300D01*
Y609600D02*
Y635000D01*
X1130300Y762000D02*
Y800100D01*
X558800Y685800D02*
X571500Y698500D01*
X889000Y609600D02*
X901700Y596900D01*
X863600Y609600D02*
X876300Y596900D01*
X368300Y533400D02*
Y596900D01*
X812800Y609600D02*
X825500Y596900D01*
X838200Y609600D02*
X850900Y596900D01*
X1066800Y457200D02*
Y533400D01*
X1041400Y431800D02*
Y533400D01*
X368300D02*
X393700Y508000D01*
X381000Y546100D02*
Y774700D01*
Y546100D02*
X419100Y508000D01*
X825500Y609600D02*
Y800100D01*
X546100Y457200D02*
X571500Y482600D01*
X482600Y495300D02*
Y546100D01*
Y571500D02*
Y591820D01*
X487680Y596900D01*
X558800Y444500D02*
X596900Y482600D01*
X508000Y444500D02*
X558800D01*
X495300Y457200D02*
X508000Y444500D01*
X520700Y482600D02*
X533400Y495300D01*
X622300Y558800D02*
X624840D01*
X609600Y469900D02*
X622300Y457200D01*
X546100Y584200D02*
Y622300D01*
X469900Y584200D02*
Y622300D01*
X939800Y812800D02*
X952500Y800100D01*
Y762000D02*
Y800100D01*
X939800Y749300D02*
X952500Y762000D01*
X1104900D02*
Y800100D01*
X1092200Y812800D02*
X1104900Y800100D01*
X1079500Y762000D02*
Y800100D01*
X1066800Y812800D02*
X1079500Y800100D01*
X1066800Y787400D02*
Y800100D01*
X1054100Y812800D02*
X1066800Y800100D01*
X1054100Y762000D02*
Y800100D01*
X1041400Y812800D02*
X1054100Y800100D01*
X1028700Y812800D02*
X1041400Y800100D01*
X1028700Y762000D02*
Y800100D01*
X1016000Y812800D02*
X1028700Y800100D01*
X1016000Y787400D02*
Y800100D01*
X1003300Y812800D02*
X1016000Y800100D01*
X990600Y787400D02*
Y800100D01*
X977900Y812800D02*
X990600Y800100D01*
X977900Y812800D02*
Y990600D01*
Y762000D02*
Y800100D01*
X965200Y812800D02*
X977900Y800100D01*
X965200Y787400D02*
Y800100D01*
X952500Y812800D02*
X965200Y800100D01*
X952500Y812800D02*
Y990600D01*
X939800Y787400D02*
Y800100D01*
X927100Y812800D02*
X939800Y800100D01*
X927100Y762000D02*
Y800100D01*
X914400Y812800D02*
X927100Y800100D01*
X901700Y762000D02*
Y800100D01*
X889000Y812800D02*
X901700Y800100D01*
X914400Y787400D02*
Y800100D01*
X901700Y812800D02*
X914400Y800100D01*
X889000Y787400D02*
Y800100D01*
X876300Y812800D02*
X889000Y800100D01*
X850900Y812800D02*
X863600Y800100D01*
X876300Y762000D02*
Y800100D01*
X863600Y812800D02*
X876300Y800100D01*
X939800Y1092200D02*
Y1104900D01*
X901700Y1117600D02*
X914400Y1104900D01*
Y1092200D02*
Y1104900D01*
X889000Y1092200D02*
Y1104900D01*
X850900Y1117600D02*
X863600Y1104900D01*
Y1092200D02*
Y1104900D01*
X800100Y1117600D02*
X812800Y1104900D01*
Y1092200D02*
Y1104900D01*
X774700Y1117600D02*
X787400Y1104900D01*
Y1092200D02*
Y1104900D01*
X749300Y1117600D02*
X762000Y1104900D01*
Y1092200D02*
Y1104900D01*
X723900Y1117600D02*
X736600Y1104900D01*
Y1092200D02*
Y1104900D01*
X698500Y1117600D02*
X711200Y1104900D01*
Y1092200D02*
Y1104900D01*
X914400Y1117600D02*
X927100Y1104900D01*
X914400Y1117600D02*
Y1244600D01*
X889000Y1117600D02*
X901700Y1104900D01*
X889000Y1117600D02*
Y1244600D01*
X863600Y1117600D02*
X876300Y1104900D01*
X863600Y1117600D02*
Y1244600D01*
X838200Y1117600D02*
X850900Y1104900D01*
X838200Y1117600D02*
Y1244600D01*
X825500Y977900D02*
Y1104900D01*
X812800Y1117600D02*
X825500Y1104900D01*
X812800Y1117600D02*
Y1244600D01*
X787400Y1117600D02*
Y1244600D01*
X762000Y1117600D02*
X774700Y1104900D01*
X762000Y1117600D02*
Y1244600D01*
X711200Y1117600D02*
Y1244600D01*
X863600Y736600D02*
Y749300D01*
X876300Y762000D01*
X889000Y749300D02*
X901700Y762000D01*
X889000Y736600D02*
Y749300D01*
X914400Y736600D02*
Y749300D01*
X927100Y762000D01*
X965200Y749300D02*
X977900Y762000D01*
X965200Y736600D02*
Y749300D01*
X825500Y825500D02*
X850900Y800100D01*
Y762000D02*
Y800100D01*
X825500Y609600D02*
X838200Y596900D01*
Y749300D02*
X850900Y762000D01*
X838200Y736600D02*
Y749300D01*
X800100D02*
X812800Y762000D01*
X800100Y609600D02*
X812800Y596900D01*
Y584200D02*
Y596900D01*
X838200Y584200D02*
Y596900D01*
X863600Y584200D02*
Y596900D01*
X850900Y609600D02*
X863600Y596900D01*
X850900Y609600D02*
Y749300D01*
X863600Y762000D01*
X876300Y749300D02*
X889000Y762000D01*
X876300Y609600D02*
Y749300D01*
Y609600D02*
X889000Y596900D01*
Y584200D02*
Y596900D01*
X914400Y584200D02*
Y596900D01*
X901700Y609600D02*
X914400Y596900D01*
X901700Y609600D02*
Y749300D01*
X914400Y762000D01*
X927100Y749300D02*
X939800Y762000D01*
X927100Y609600D02*
Y749300D01*
Y609600D02*
X939800Y596900D01*
Y584200D02*
Y596900D01*
X952500Y609600D02*
Y749300D01*
Y609600D02*
X965200Y596900D01*
Y584200D02*
Y596900D01*
X977900Y609600D02*
Y749300D01*
Y609600D02*
X990600Y596900D01*
Y584200D02*
Y596900D01*
X1016000Y406400D02*
Y533400D01*
X914400Y381000D02*
X927100Y393700D01*
X947420D01*
X952500Y388620D01*
X977900Y368300D02*
Y393700D01*
X889000Y381000D02*
X914400Y406400D01*
X965200D02*
X977900Y393700D01*
X914400Y406400D02*
X965200D01*
X1104900Y368300D02*
Y596900D01*
X1079500Y368300D02*
Y558800D01*
X1092200Y571500D01*
X1079500D02*
Y596900D01*
X1054100Y368300D02*
Y546100D01*
X1079500Y571500D01*
X1023620Y368300D02*
X1028700Y373380D01*
X1003300Y368300D02*
X1023620D01*
X1092200Y609600D02*
X1104900Y596900D01*
X1079500Y609600D02*
Y749300D01*
Y609600D02*
X1092200Y596900D01*
X1066800Y609600D02*
X1079500Y596900D01*
X1066800Y584200D02*
Y596900D01*
X1054100Y609600D02*
X1066800Y596900D01*
X952500Y749300D02*
X965200Y762000D01*
X977900Y749300D02*
X990600Y762000D01*
X1003300Y749300D02*
X1016000Y762000D01*
Y1079500D02*
Y1092200D01*
X990600Y1054100D02*
X1016000Y1079500D01*
X1041400D02*
Y1092200D01*
X1016000Y1054100D02*
X1041400Y1079500D01*
X1066800D02*
Y1092200D01*
X1016000Y939800D02*
Y1003300D01*
Y749300D02*
X1028700Y762000D01*
X1117600Y749300D02*
X1130300Y762000D01*
X1092200Y749300D02*
X1104900Y762000D01*
X1066800Y749300D02*
X1079500Y762000D01*
Y749300D02*
X1092200Y762000D01*
X1041400Y749300D02*
X1054100Y762000D01*
X1028700Y749300D02*
X1041400Y762000D01*
X1054100Y749300D02*
X1066800Y762000D01*
X863600Y1054100D02*
Y1092200D01*
X889000Y1054100D02*
Y1092200D01*
X914400Y1054100D02*
Y1092200D01*
X939800Y1054100D02*
Y1092200D01*
X990600Y381000D02*
X1003300Y368300D01*
X977900Y1061720D02*
X982980Y1066800D01*
X990600D01*
X1003300Y1079500D01*
X850900Y812800D02*
Y952500D01*
X876300Y812800D02*
Y952500D01*
X965200Y1054100D02*
Y1066800D01*
X812800Y965200D02*
Y1092200D01*
Y965200D02*
X825500Y952500D01*
Y977900D02*
X850900Y952500D01*
Y1079500D02*
Y1104900D01*
X1016000Y1054100D02*
X1028700Y1041400D01*
X990600Y1054100D02*
X1003300Y1041400D01*
X1117600Y1051400D02*
Y1092200D01*
X495300Y406400D02*
X520700Y381000D01*
X495300Y406400D02*
Y457200D01*
X381000Y393700D02*
X393700Y381000D01*
X381000Y393700D02*
Y469900D01*
X393700Y482600D01*
X419100D01*
X444500Y508000D01*
X393700Y406400D02*
Y457200D01*
Y406400D02*
X419100Y381000D01*
X444500D02*
X457200Y368300D01*
X477520D01*
X482600Y373380D01*
X457200Y393700D02*
X469900Y381000D01*
X520700Y457200D02*
Y482600D01*
X419100Y723900D02*
X444500Y698500D01*
X419100Y723900D02*
Y736600D01*
X469900Y647700D02*
Y736600D01*
X482600Y373380D02*
Y469900D01*
X495300Y584200D02*
X508000Y571500D01*
X482600Y469900D02*
X508000Y495300D01*
Y571500D01*
X457200Y469900D02*
X482600Y495300D01*
X457200Y393700D02*
Y469900D01*
X444500Y457200D02*
Y482600D01*
X457200Y495300D01*
Y520700D01*
X406400Y571500D02*
X457200Y520700D01*
X411480Y825500D02*
X431800D01*
X444500Y812800D01*
X419100Y584200D02*
X431800Y596900D01*
X452120D01*
X457200Y591820D01*
Y571500D02*
Y591820D01*
Y571500D02*
X482600Y546100D01*
X393700Y698500D02*
Y736600D01*
X495300Y508000D02*
Y558800D01*
X482600Y571500D02*
X495300Y558800D01*
X330200Y1117600D02*
Y1180846D01*
X990600Y1320800D02*
X1003300Y1308100D01*
X901700Y1117600D02*
Y1181100D01*
X876300Y1117600D02*
X889000Y1104900D01*
X1041400Y1320800D02*
X1054100Y1308100D01*
X965200Y1244600D02*
Y1295400D01*
X939800Y1244600D02*
Y1295400D01*
X914400Y1244600D02*
Y1295400D01*
X889000Y1244600D02*
Y1295400D01*
X863600Y1244600D02*
Y1295400D01*
X838200Y1244600D02*
Y1295400D01*
X812800Y1244600D02*
Y1295400D01*
X787400Y1244600D02*
Y1295400D01*
X774700Y1308100D02*
X787400Y1320800D01*
X800100Y1333500D02*
X812800Y1320800D01*
X749300Y1333500D02*
X800100D01*
X736600Y1320800D02*
X749300Y1333500D01*
X736600Y1244600D02*
Y1320800D01*
X723900Y1117600D02*
Y1308100D01*
X927100Y1117600D02*
X939800Y1104900D01*
X927100Y1117600D02*
Y1231900D01*
X749300Y1117600D02*
Y1257300D01*
X1155700Y1282700D02*
Y1308100D01*
X1143000Y1320800D02*
X1155700Y1308100D01*
X1168400Y1244600D02*
Y1257300D01*
X1143000Y1282700D02*
X1168400Y1257300D01*
X1143000Y1282700D02*
Y1295400D01*
X1155700Y1282700D02*
X1193800Y1244600D01*
X1130300Y1282700D02*
X1155700Y1257300D01*
X1130300Y1282700D02*
Y1308100D01*
X1117600Y1320800D02*
X1130300Y1308100D01*
X1536700Y1219200D02*
X1574800Y1181100D01*
X1524000Y1231900D02*
X1536700Y1219200D01*
X1524000Y1231900D02*
Y1282700D01*
X1511300Y1181100D02*
Y1219200D01*
X1912780Y1122520D02*
Y1181100D01*
Y1122520D02*
X1930400Y1104900D01*
Y1067054D02*
Y1104900D01*
X2006600Y1067054D02*
Y1104900D01*
X1938020Y1173480D02*
Y1181100D01*
X2082800Y1067054D02*
Y1104900D01*
X2039620Y1173734D02*
Y1181100D01*
X736600Y1117600D02*
Y1244600D01*
X774700Y965200D02*
Y1104900D01*
X749300Y952500D02*
X762000Y965200D01*
Y1092200D01*
Y952500D02*
X774700Y965200D01*
X787400D02*
Y1092200D01*
X444500Y546100D02*
Y584200D01*
Y546100D02*
X469900Y520700D01*
Y508000D02*
Y520700D01*
X1003300Y393700D02*
X1016000Y381000D01*
X1003300Y546100D02*
X1016000Y558800D01*
X1028700D01*
X1003300Y393700D02*
Y546100D01*
X977900D02*
X1003300Y571500D01*
X1023620D01*
X1117600Y812800D02*
X1130300Y800100D01*
X1003300Y812800D02*
Y990600D01*
X1422400Y647700D02*
X1435100Y660400D01*
Y711200D01*
X1409700Y685927D02*
Y711200D01*
X1384300Y749300D02*
X1397000Y736600D01*
X1117600Y812800D02*
Y863600D01*
X1308100Y876300D02*
Y889000D01*
X1701800Y698500D02*
Y749300D01*
X1676400Y762000D02*
X1701800Y787400D01*
X1397000Y749300D02*
X1422400Y723900D01*
X1384300Y889000D02*
X1422400Y850900D01*
Y876300D02*
X1447800Y850900D01*
X1409700Y457200D02*
X1422400Y444500D01*
X1485900D01*
X889000Y762000D02*
Y787400D01*
X863600D02*
Y800100D01*
Y762000D02*
Y787400D01*
X939800Y812800D02*
Y939800D01*
X1041400Y812800D02*
Y939800D01*
X1016000Y812800D02*
Y939800D01*
Y762000D02*
Y787400D01*
X1041400D02*
Y800100D01*
Y762000D02*
Y787400D01*
X863600Y812800D02*
Y939800D01*
X990600Y762000D02*
Y787400D01*
X1066800Y762000D02*
Y787400D01*
X889000Y812800D02*
Y939800D01*
X990600Y825500D02*
Y939800D01*
X965200Y762000D02*
Y787400D01*
X1092200D02*
Y800100D01*
Y762000D02*
Y787400D01*
X965200Y812800D02*
Y939800D01*
X939800Y762000D02*
Y787400D01*
X838200Y838200D02*
Y939800D01*
X914400Y812800D02*
Y939800D01*
X1117600Y863600D02*
Y939800D01*
X812800Y762000D02*
Y787400D01*
X914400Y762000D02*
Y787400D01*
X1219200Y838200D02*
Y990600D01*
X1358900Y889000D02*
Y901700D01*
X1117600Y939800D02*
Y952500D01*
X1104900Y812800D02*
X1117600Y800100D01*
Y787400D02*
Y800100D01*
X1092200Y825500D02*
Y939800D01*
X1041400Y1054100D02*
X1066800Y1079500D01*
X1041400Y1054100D02*
X1054100Y1041400D01*
X1066800Y812800D02*
Y939800D01*
X1676400Y787400D02*
X1689100Y800100D01*
X1295400Y1003300D02*
X1320800Y977900D01*
X1422400Y1193800D02*
Y1219200D01*
X1409700Y1181100D02*
X1422400Y1193800D01*
X444500Y698500D02*
X457200Y685800D01*
Y640080D02*
Y685800D01*
Y640080D02*
X462280Y635000D01*
X482600D01*
X419100Y584200D02*
Y660400D01*
X558800D02*
Y685800D01*
X1295400Y1003300D02*
Y1041400D01*
X1333500Y1079500D01*
Y1092200D01*
X1346200Y1003300D02*
Y1231900D01*
X1701800Y1244600D02*
Y1244854D01*
Y1282700D01*
X1676400Y711200D02*
X1689100Y723900D01*
Y762000D01*
X1714500Y723900D02*
X1752600Y762000D01*
X1676400Y660400D02*
X1689100D01*
X1714500Y685800D01*
Y723900D01*
X1587500Y647700D02*
Y698500D01*
X1574800Y635000D02*
X1587500Y647700D01*
Y698500D02*
X1600200Y711200D01*
X1562100Y647700D02*
X1574800Y660400D01*
X1816100Y393700D02*
X1828800Y381000D01*
X1816100Y469900D02*
X1828800Y482600D01*
Y495300D01*
X406400Y571500D02*
Y820420D01*
X411480Y825500D01*
X533400Y495300D02*
Y596900D01*
X762000Y355600D02*
Y622300D01*
X1536700Y482600D02*
X1574800Y520700D01*
Y635000D01*
X1524000Y419100D02*
Y495300D01*
X1562100Y533400D01*
Y647700D01*
X1511300Y444500D02*
Y505460D01*
X1549400Y543560D01*
Y1028700D01*
X1473200Y698500D02*
Y749300D01*
X1498600Y774700D01*
X1574800Y660400D02*
Y762000D01*
X1600200Y787400D01*
X1930400Y381000D02*
Y457200D01*
X1879600Y990600D02*
Y1155700D01*
X1981200Y508000D02*
Y520700D01*
X2019300Y558800D01*
X2044700Y609600D02*
X2057400Y622300D01*
Y635000D01*
X2019300Y558800D02*
Y596900D01*
X2044700Y622300D01*
X1981200Y584200D02*
Y596900D01*
X1955800Y889000D02*
X1993900Y850900D01*
X2044700Y622300D02*
Y647700D01*
X2057400Y660400D01*
Y711200D01*
X1981200Y596900D02*
X1993900Y609600D01*
X1943100Y647700D02*
X1955800Y660400D01*
Y711200D01*
X1803400Y889000D02*
Y901700D01*
X1854200Y965200D02*
X1866900Y977900D01*
X2006600Y863600D02*
Y889000D01*
Y863600D02*
X2019300Y850900D01*
Y876300D02*
Y901700D01*
X2082800Y965200D01*
X2032000Y889000D02*
X2070100Y850900D01*
X1993900Y863600D02*
X2006600Y850900D01*
Y838200D02*
Y850900D01*
X1943100Y876300D02*
Y901700D01*
Y876300D02*
X1968500Y850900D01*
X1866900Y952500D02*
X1892300Y977900D01*
X1905000Y914400D02*
X1955800Y965200D01*
X1905000Y876300D02*
Y914400D01*
X1955800Y838200D02*
Y850900D01*
X1917700Y876300D02*
Y901700D01*
X1993900Y863600D02*
Y901700D01*
X1917700D02*
X1968500Y952500D01*
Y1079500D01*
X1993900Y901700D02*
X2044700Y952500D01*
Y972820D01*
X2039620Y977900D02*
X2044700Y972820D01*
X2019300Y977900D02*
X2039620D01*
X2006600Y965200D02*
X2019300Y977900D01*
X1955800Y914400D02*
X1981200D01*
X2032000Y965200D01*
X1943100Y901700D02*
X1955800Y914400D01*
X1930400Y889000D02*
Y901700D01*
X1955800Y927100D01*
X1968500D01*
X1993900Y952500D01*
X1892300Y977900D02*
Y1054100D01*
X1905000Y876300D02*
X1930400Y850900D01*
X1938020D02*
X1943100Y845820D01*
X1930400Y850900D02*
X1938020D01*
X1917700Y876300D02*
X1930400Y863600D01*
X1943100D01*
X1955800Y850900D01*
X787400Y381000D02*
Y533400D01*
X1117600Y952500D02*
X1130300Y965200D01*
X1600200Y609600D02*
X1612900Y622300D01*
X1435100Y1143000D02*
X1498600Y1079500D01*
X1752600D02*
Y1092200D01*
X1676400Y889000D02*
Y901700D01*
X1651000Y927100D02*
Y1193800D01*
Y927100D02*
X1676400Y901700D01*
Y1016000D02*
Y1028700D01*
X1727200Y1079500D01*
Y1092200D01*
X1600200Y838200D02*
Y1168400D01*
X1651000Y1219200D01*
X1828800Y457200D02*
X1841500Y469900D01*
X444500Y1041400D02*
Y1084580D01*
X406400Y1122680D02*
Y1231900D01*
Y1122680D02*
X444500Y1084580D01*
X1206500Y635000D02*
Y673100D01*
X1231900Y698500D01*
X419100Y812800D02*
X482600Y749300D01*
Y647700D02*
X533400Y596900D01*
X482600Y647700D02*
Y749300D01*
X1270000Y1244854D02*
X1295654D01*
X1320800Y1270000D01*
Y1308100D01*
X1346200Y1333500D01*
X1981200Y965200D02*
Y1054100D01*
X2044700D02*
Y1117600D01*
X1638300Y825500D02*
Y1016000D01*
X1689100Y444500D02*
Y482854D01*
X1676654Y495300D02*
X1689100Y482854D01*
X1651000Y444500D02*
Y495300D01*
Y444500D02*
X1701800Y393700D01*
Y381000D02*
Y393700D01*
X1168400Y1079500D02*
Y1092200D01*
X673100Y508000D02*
X698500D01*
X1562100Y800100D02*
X1600200Y838200D01*
X1562100Y685800D02*
Y800100D01*
X482600Y635000D02*
X495300Y622300D01*
X431800Y1028700D02*
X444500Y1016000D01*
Y990600D02*
X457200Y1003300D01*
Y1117600D01*
X1041400Y571500D02*
Y584200D01*
Y607060D01*
X1092200Y571500D02*
Y584200D01*
Y596900D01*
X1117600Y723900D02*
Y736600D01*
Y749300D01*
X939800Y647700D02*
Y736600D01*
Y749300D01*
X1092200Y609600D02*
Y736600D01*
Y749300D01*
X1066800Y609600D02*
Y736600D01*
Y749300D01*
X1041400Y622300D02*
Y736600D01*
Y749300D01*
X1016000Y609600D02*
Y736600D01*
Y749300D01*
X1955800Y381000D02*
Y431800D01*
X1968500Y406400D02*
X1981200Y393700D01*
Y381000D02*
Y393700D01*
Y419100D02*
X2006600Y393700D01*
X1981200Y419100D02*
Y457200D01*
X2006600Y381000D02*
Y393700D01*
X1993900Y431800D02*
Y482600D01*
Y431800D02*
X2032000Y393700D01*
Y381000D02*
Y393700D01*
X2057400Y381000D02*
Y393700D01*
X2095500Y889000D02*
Y977900D01*
X2108200Y901700D02*
Y990600D01*
X2044700Y1054100D02*
X2108200Y990600D01*
X2120900Y927100D02*
X2171700Y876300D01*
X1676400Y1143000D02*
Y1193800D01*
X1701800Y1219200D01*
X1663700Y1130300D02*
X1676400Y1143000D01*
X1739900Y520700D02*
X1778000D01*
Y457200D02*
Y520700D01*
Y863600D01*
X1752600Y457200D02*
X1752854Y457454D01*
Y495300D01*
X1511300Y1155700D02*
X1536700Y1130300D01*
X1511300Y1181100D02*
X1524000Y1168400D01*
X1308100Y1092200D02*
Y1155700D01*
X381000Y1181100D02*
X393700Y1193800D01*
X1130300Y965200D02*
Y1117600D01*
X1003300Y1282700D02*
Y1308100D01*
X1079500Y1181100D02*
Y1257300D01*
X1054100Y1206500D02*
Y1257300D01*
X1079500Y812800D02*
X1092200Y800100D01*
X838200Y1066800D02*
X850900Y1079500D01*
X838200Y990600D02*
X876300Y952500D01*
X850900Y1041400D02*
X863600Y1054100D01*
X876300Y1016000D02*
X901700Y990600D01*
Y1016000D02*
X927100Y990600D01*
Y1016000D02*
X952500Y990600D01*
Y1016000D02*
X977900Y990600D01*
Y1016000D02*
X990600Y1003300D01*
X1003300Y1016000D02*
X1016000Y1003300D01*
X838200Y1028700D02*
Y1066800D01*
Y990600D02*
Y1028700D01*
X850900Y1003300D02*
Y1041400D01*
X876300Y1016000D02*
Y1104900D01*
X901700Y1016000D02*
Y1104900D01*
X927100Y1016000D02*
Y1104900D01*
X952500Y1016000D02*
Y1104900D01*
X977900Y1016000D02*
Y1061720D01*
X1003300Y1016000D02*
Y1041400D01*
X1028700Y901700D02*
Y1041400D01*
X1054100Y812800D02*
Y1041400D01*
X1066800Y939800D02*
Y1028700D01*
X1079500Y812800D02*
Y1104900D01*
X977900Y1130300D02*
Y1143000D01*
Y1130300D02*
X1003300Y1104900D01*
Y1079500D02*
Y1104900D01*
X990600Y1130300D02*
Y1176020D01*
Y1130300D02*
X1016000Y1104900D01*
Y1092200D02*
Y1104900D01*
Y1193800D02*
Y1244600D01*
X1003300Y1130300D02*
X1041400Y1092200D01*
X1003300Y1130300D02*
Y1257300D01*
X1104900Y1079500D02*
Y1117600D01*
X1028700Y1130300D02*
Y1257300D01*
Y1130300D02*
X1066800Y1092200D01*
X835660Y1348740D02*
X863600Y1320800D01*
X622300Y660400D02*
Y812800D01*
X635000Y647700D02*
Y787400D01*
X596900Y584200D02*
X647700Y635000D01*
Y800100D01*
X711200Y863600D01*
Y889000D01*
X647700Y1168400D02*
X660400Y1181100D01*
X647700Y1041400D02*
Y1168400D01*
X698500Y927100D02*
X723900Y901700D01*
X673100Y927100D02*
X698500D01*
X660400Y939800D02*
X673100Y927100D01*
X660400Y939800D02*
Y1079500D01*
X609600Y571500D02*
X660400Y622300D01*
Y787400D01*
X723900Y850900D01*
Y901700D01*
X749300Y927100D02*
Y952500D01*
Y927100D02*
X762000Y914400D01*
Y863600D02*
Y914400D01*
X736600Y927100D02*
Y1092200D01*
Y927100D02*
X749300Y914400D01*
Y800100D02*
Y914400D01*
X697110Y953890D02*
X736600Y914400D01*
X673100Y774700D02*
X736600Y838200D01*
Y914400D01*
X660400Y368300D02*
Y546100D01*
X673100Y558800D01*
Y774700D01*
X681115Y953890D02*
X697110D01*
X673100Y961905D02*
X681115Y953890D01*
X673100Y961905D02*
Y1091946D01*
X660400Y1104646D02*
X673100Y1091946D01*
X711200Y990600D02*
Y1092200D01*
X635000Y952500D02*
Y1168400D01*
X1104900D02*
Y1257300D01*
Y1168400D02*
X1155700Y1117600D01*
Y1079500D02*
Y1117600D01*
X1168400Y1193800D02*
Y1244600D01*
X1155700Y1181100D02*
Y1257300D01*
Y1181100D02*
X1193800Y1143000D01*
Y1092200D02*
Y1143000D01*
X1143000Y1168400D02*
Y1193800D01*
Y1168400D02*
X1181100Y1130300D01*
Y342900D02*
Y1130300D01*
X1130300Y1168400D02*
Y1257300D01*
Y1168400D02*
X1168400Y1130300D01*
Y1092200D02*
Y1130300D01*
X1676400Y340357D02*
Y332739D01*
X1678939Y330200D01*
X1681478Y332739D01*
X1684017Y330200D01*
X1686557Y332739D01*
Y340357D01*
X1691635D02*
Y332739D01*
X1694174Y330200D01*
X1696713Y332739D01*
X1699253Y330200D01*
X1701792Y332739D01*
Y340357D01*
X1706870D02*
Y332739D01*
X1709409Y330200D01*
X1711949Y332739D01*
X1714488Y330200D01*
X1717027Y332739D01*
Y340357D01*
X1722105Y330200D02*
Y332739D01*
X1724644D01*
Y330200D01*
X1722105D01*
X1734801D02*
X1742419D01*
X1744958Y332739D01*
X1742419Y335278D01*
X1737340D01*
X1734801Y337817D01*
X1737340Y340357D01*
X1744958D01*
X1750036Y325122D02*
Y340357D01*
X1757654D01*
X1760193Y337817D01*
Y332739D01*
X1757654Y330200D01*
X1750036D01*
X1772889D02*
X1767810D01*
X1765271Y332739D01*
Y337817D01*
X1767810Y340357D01*
X1772889D01*
X1775428Y337817D01*
Y335278D01*
X1765271D01*
X1783046Y342896D02*
Y340357D01*
X1780506D01*
X1785585D01*
X1783046D01*
Y332739D01*
X1785585Y330200D01*
X1793202D02*
X1800820D01*
X1803359Y332739D01*
X1800820Y335278D01*
X1795741D01*
X1793202Y337817D01*
X1795741Y340357D01*
X1803359D01*
X1808437Y330200D02*
X1813516D01*
X1810977D01*
Y340357D01*
X1808437D01*
X1823672D02*
X1828751D01*
X1831290Y337817D01*
Y330200D01*
X1823672D01*
X1821133Y332739D01*
X1823672Y335278D01*
X1831290D01*
X1836368Y330200D02*
X1841447D01*
X1838907D01*
Y345435D01*
X1836368D01*
X1849064Y330200D02*
X1854142D01*
X1851603D01*
Y340357D01*
X1849064D01*
X1861760Y330200D02*
X1869377D01*
X1871917Y332739D01*
X1869377Y335278D01*
X1864299D01*
X1861760Y337817D01*
X1864299Y340357D01*
X1871917D01*
X1879534Y342896D02*
Y340357D01*
X1876995D01*
X1882073D01*
X1879534D01*
Y332739D01*
X1882073Y330200D01*
X1889691Y337817D02*
X1899848D01*
X1904926Y330200D02*
Y340357D01*
X1907465D01*
X1910004Y337817D01*
Y330200D01*
Y337817D01*
X1912544Y340357D01*
X1915083Y337817D01*
Y330200D01*
X1920161Y340357D02*
X1930318Y330200D01*
X1925240Y335278D01*
X1930318Y340357D01*
X1920161Y330200D01*
X1935396D02*
Y332739D01*
X1937935D01*
Y330200D01*
X1935396D01*
X1948092Y340357D02*
Y330200D01*
Y335278D01*
X1950631Y337817D01*
X1953170Y340357D01*
X1955710D01*
X1963327D02*
Y332739D01*
X1965866Y330200D01*
X1973484D01*
Y340357D01*
X1978562Y330200D02*
X1988719Y340357D01*
X1998876Y325122D02*
X2001415D01*
X2003954Y327661D01*
Y340357D01*
X1996337D01*
X1993797Y337817D01*
Y332739D01*
X1996337Y330200D01*
X2003954D01*
X2011572Y340357D02*
X2016650D01*
X2019189Y337817D01*
Y330200D01*
X2011572D01*
X2009032Y332739D01*
X2011572Y335278D01*
X2019189D01*
X2024267Y330200D02*
X2029346D01*
X2026807D01*
Y345435D01*
X2024267D01*
X2039503Y340357D02*
X2044581D01*
X2047120Y337817D01*
Y330200D01*
X2039503D01*
X2036963Y332739D01*
X2039503Y335278D01*
X2047120D01*
X2052198Y330200D02*
Y345435D01*
Y335278D02*
X2059816Y340357D01*
X2052198Y335278D02*
X2059816Y330200D01*
X2067433D02*
X2075051D01*
X2077590Y332739D01*
X2075051Y335278D01*
X2069973D01*
X2067433Y337817D01*
X2069973Y340357D01*
X2077590D01*
X2082668Y330200D02*
X2087747D01*
X2085208D01*
Y340357D01*
X2082668D01*
X2095364Y325122D02*
X2097904D01*
X2100443Y327661D01*
Y340357D01*
X2113139D02*
X2118217D01*
X2120756Y337817D01*
Y330200D01*
X2113139D01*
X2110600Y332739D01*
X2113139Y335278D01*
X2120756D01*
X551180Y1216655D02*
Y1201420D01*
X558797D01*
X561337Y1203959D01*
Y1206498D01*
Y1209037D01*
X558797Y1211577D01*
X551180D01*
X566415D02*
Y1203959D01*
X568954Y1201420D01*
X576572D01*
Y1198881D01*
X574033Y1196342D01*
X571493D01*
X576572Y1201420D02*
Y1211577D01*
X607042Y1216655D02*
X596885D01*
Y1209037D01*
X601964D01*
X596885D01*
Y1201420D01*
X612120D02*
X617199D01*
X614660D01*
Y1211577D01*
X612120D01*
X627355Y1201420D02*
Y1214116D01*
Y1209037D01*
X624816D01*
X629894D01*
X627355D01*
Y1214116D01*
X629894Y1216655D01*
X640051Y1211577D02*
X645130D01*
X647669Y1209037D01*
Y1201420D01*
X640051D01*
X637512Y1203959D01*
X640051Y1206498D01*
X647669D01*
X652747Y1201420D02*
Y1211577D01*
X660365D01*
X662904Y1209037D01*
Y1201420D01*
X561337Y1221740D02*
X551180D01*
X561337Y1231897D01*
Y1234436D01*
X558797Y1236975D01*
X553719D01*
X551180Y1234436D01*
X566415D02*
X568954Y1236975D01*
X574033D01*
X576572Y1234436D01*
Y1224279D01*
X574033Y1221740D01*
X568954D01*
X566415Y1224279D01*
Y1234436D01*
X581650Y1221740D02*
X586729D01*
X584189D01*
Y1236975D01*
X581650Y1234436D01*
X594346Y1224279D02*
X596885Y1221740D01*
X601964D01*
X604503Y1224279D01*
Y1234436D01*
X601964Y1236975D01*
X596885D01*
X594346Y1234436D01*
Y1231897D01*
X596885Y1229358D01*
X604503D01*
X624816Y1221740D02*
Y1236975D01*
X632434D01*
X634973Y1234436D01*
Y1229358D01*
X632434Y1226818D01*
X624816D01*
X650208Y1234436D02*
X647669Y1236975D01*
X642590D01*
X640051Y1234436D01*
Y1224279D01*
X642590Y1221740D01*
X647669D01*
X650208Y1224279D01*
X655286Y1236975D02*
Y1221740D01*
X662904D01*
X665443Y1224279D01*
Y1226818D01*
X662904Y1229358D01*
X655286D01*
X662904D01*
X665443Y1231897D01*
Y1234436D01*
X662904Y1236975D01*
X655286D01*
X551180Y1262375D02*
Y1247140D01*
X558797D01*
X561337Y1249679D01*
Y1252218D01*
Y1254758D01*
X558797Y1257297D01*
X551180D01*
X566415D02*
Y1249679D01*
X568954Y1247140D01*
X576572D01*
Y1244601D01*
X574033Y1242062D01*
X571493D01*
X576572Y1247140D02*
Y1257297D01*
X596885Y1247140D02*
Y1262375D01*
X604503D01*
X607042Y1259836D01*
Y1254758D01*
X604503Y1252218D01*
X596885D01*
X612120Y1262375D02*
Y1252218D01*
X617199Y1247140D01*
X622277Y1252218D01*
Y1262375D01*
X627355D02*
Y1252218D01*
X632434Y1247140D01*
X637512Y1252218D01*
Y1262375D01*
X556257Y1280156D02*
X553717Y1282695D01*
X548639D01*
X546100Y1280156D01*
Y1269999D01*
X548639Y1267460D01*
X553717D01*
X556257Y1269999D01*
Y1275078D01*
X551178D01*
X563874Y1277617D02*
X568953D01*
X571492Y1275078D01*
Y1267460D01*
X563874D01*
X561335Y1269999D01*
X563874Y1272538D01*
X571492D01*
X576570Y1267460D02*
X581648D01*
X579109D01*
Y1282695D01*
X576570D01*
X591805Y1277617D02*
X596884D01*
X599423Y1275078D01*
Y1267460D01*
X591805D01*
X589266Y1269999D01*
X591805Y1272538D01*
X599423D01*
X604501Y1267460D02*
Y1282695D01*
Y1272538D02*
X612119Y1277617D01*
X604501Y1272538D02*
X612119Y1267460D01*
X619736D02*
X627354D01*
X629893Y1269999D01*
X627354Y1272538D01*
X622275D01*
X619736Y1275078D01*
X622275Y1277617D01*
X629893D01*
X634971Y1267460D02*
X640050D01*
X637510D01*
Y1277617D01*
X634971D01*
X647667Y1262382D02*
X650206D01*
X652746Y1264921D01*
Y1277617D01*
X665441D02*
X670520D01*
X673059Y1275078D01*
Y1267460D01*
X665441D01*
X662902Y1269999D01*
X665441Y1272538D01*
X673059D01*
X342900Y340357D02*
X347978Y330200D01*
X353057Y340357D01*
X365753Y330200D02*
X360674D01*
X358135Y332739D01*
Y337817D01*
X360674Y340357D01*
X365753D01*
X368292Y337817D01*
Y335278D01*
X358135D01*
X373370Y340357D02*
Y330200D01*
Y335278D01*
X375909Y337817D01*
X378448Y340357D01*
X380988D01*
X388605Y330200D02*
X396223D01*
X398762Y332739D01*
X396223Y335278D01*
X391144D01*
X388605Y337817D01*
X391144Y340357D01*
X398762D01*
X403840Y330200D02*
X408919D01*
X406380D01*
Y340357D01*
X403840D01*
X419075Y330200D02*
X424154D01*
X426693Y332739D01*
Y337817D01*
X424154Y340357D01*
X419075D01*
X416536Y337817D01*
Y332739D01*
X419075Y330200D01*
X431771D02*
Y340357D01*
X439389D01*
X441928Y337817D01*
Y330200D01*
X462241D02*
X467320D01*
X464781D01*
Y345435D01*
X462241Y342896D01*
X474937Y330200D02*
Y332739D01*
X477477D01*
Y330200D01*
X474937D01*
X487633D02*
X492711D01*
X490172D01*
Y345435D01*
X487633Y342896D01*
D13*
X533400Y1155700D02*
Y1298100D01*
X2118520Y1166274D02*
Y1200150D01*
X2082800Y1130554D02*
X2118520Y1166274D01*
X2051050Y1200150D02*
X2118520D01*
X2039620Y1188720D02*
X2051050Y1200150D01*
X1963420Y1173734D02*
Y1181100D01*
Y1173734D02*
X2006600Y1130554D01*
X2039620Y1181100D02*
Y1188720D01*
X1778000Y1016000D02*
Y1066800D01*
X1752600D02*
X1778000Y1092200D01*
X1752600Y1041400D02*
Y1066800D01*
X1905000Y711200D02*
X1930400D01*
X1879600Y685800D02*
X1905000Y711200D01*
X1879600Y685800D02*
X1905000Y660400D01*
Y609600D02*
Y660400D01*
X1828800Y812800D02*
Y889000D01*
X1894840Y873760D02*
X1930400Y838200D01*
X1894840Y873760D02*
Y924560D01*
X1231900Y1117600D02*
X1257300Y1092200D01*
Y1066800D02*
Y1092200D01*
X1849280Y1200150D02*
X1869600D01*
X1835150D02*
X1849280D01*
X1790700Y1155700D02*
X1835150Y1200150D01*
X1485900Y914400D02*
Y990600D01*
X1460500Y889000D02*
X1485900Y914400D01*
X1257300Y812800D02*
Y914400D01*
X1778000Y1143000D02*
X1790700Y1155700D01*
X1778000Y1092200D02*
Y1143000D01*
X1460500Y762000D02*
X1485900Y787400D01*
X1849280Y1200150D02*
Y1344930D01*
X1460500Y635000D02*
X1483360Y612140D01*
Y530860D02*
Y612140D01*
X1460500Y508000D02*
X1483360Y530860D01*
X1625600Y1066800D02*
X1638300Y1079500D01*
X736600Y685800D02*
X787400Y736600D01*
X736600Y673100D02*
Y685800D01*
Y673100D02*
X787400Y622300D01*
X1282700Y762000D02*
Y787400D01*
Y711200D02*
Y762000D01*
X1257300Y812800D02*
X1282700Y787400D01*
X418846Y1273810D02*
X449580Y1243076D01*
X431960Y1140460D02*
X449580Y1158080D01*
Y1243076D01*
X431960Y1140460D02*
X457200D01*
X469900Y1127760D01*
Y1092200D02*
Y1127760D01*
Y1180846D02*
X495300Y1155446D01*
Y1092200D02*
Y1155446D01*
X444500Y863600D02*
X469900Y889000D01*
Y1092200D01*
X1600200Y584200D02*
X1625600Y609600D01*
X1905000Y482600D02*
X1930400Y457200D01*
X1905000Y812800D02*
X1930400Y838200D01*
X1905000Y736600D02*
Y812800D01*
Y736600D02*
X1930400Y711200D01*
X1460500Y889000D02*
X1485900Y863600D01*
Y787400D02*
Y863600D01*
X1460500Y711200D02*
Y762000D01*
Y635000D02*
Y711200D01*
X1257300Y685800D02*
X1282700Y711200D01*
X1257300Y609600D02*
Y685800D01*
Y609600D02*
X1282700Y584200D01*
X1257300Y482600D02*
Y533400D01*
Y482600D02*
X1282700Y457200D01*
X317500Y762000D02*
X342900Y787400D01*
X317500Y673100D02*
Y762000D01*
Y584200D02*
Y673100D01*
Y457200D02*
X342900Y431800D01*
X317500Y457200D02*
Y584200D01*
X624840Y558800D02*
X647700Y535940D01*
Y406400D02*
Y535940D01*
X622300Y381000D02*
X647700Y406400D01*
X762000Y1295400D02*
Y1320800D01*
X1168400Y1295400D02*
Y1320800D01*
X1752600Y1193800D02*
X1790700Y1155700D01*
X1752600Y1193800D02*
Y1218946D01*
X2118520Y1200150D02*
Y1344930D01*
X1849280D02*
X2118520D01*
X673100Y533400D02*
X698500Y558800D01*
X1460500Y381000D02*
X1485900Y406400D01*
X1460500Y508000D02*
X1485900Y482600D01*
Y406400D02*
Y444500D01*
Y482600D01*
X1257300Y914400D02*
X1308100Y965200D01*
X1460500Y1016000D02*
X1485900Y990600D01*
X1638300Y1079500D02*
Y1155700D01*
X698500Y558800D02*
Y609600D01*
X736600Y647700D01*
X1625600Y609600D02*
Y939800D01*
X1905000Y482600D02*
Y558800D01*
Y609600D02*
X1930400Y584200D01*
X1905000Y558800D02*
X1930400Y584200D01*
X1778000Y965200D02*
Y1016000D01*
X1231900Y558800D02*
X1257300Y533400D01*
X1879600Y939800D02*
X1894840Y924560D01*
X1282700Y990600D02*
X1308100Y965200D01*
X1282700Y990600D02*
Y1041400D01*
X1257300Y1066800D02*
X1282700Y1041400D01*
X673100Y317500D02*
Y508000D01*
Y533400D01*
X393700Y812800D02*
Y850646D01*
X406654Y863600D01*
X787400Y533400D02*
Y584200D01*
Y622300D01*
D14*
X1968500Y1308100D02*
D03*
X1993900D02*
D03*
X2019300D02*
D03*
X1943100D02*
D03*
X1917700D02*
D03*
X685800Y863600D02*
D03*
Y889000D02*
D03*
Y914400D02*
D03*
Y939800D02*
D03*
Y1016000D02*
D03*
Y990600D02*
D03*
Y965200D02*
D03*
X330200Y1041400D02*
D03*
Y1016000D02*
D03*
Y990600D02*
D03*
Y965200D02*
D03*
Y889000D02*
D03*
Y914400D02*
D03*
Y939800D02*
D03*
X1231900Y1282700D02*
D03*
Y1308100D02*
D03*
X635000Y1320800D02*
D03*
D15*
X2044700Y1308100D02*
D03*
X609600Y1320800D02*
D03*
D16*
X381000Y1066800D02*
D03*
X1536700Y711200D02*
D03*
X1511046D02*
D03*
X1625600Y1041400D02*
D03*
Y1066800D02*
D03*
X1066800Y1054100D02*
D03*
X469900Y622300D02*
D03*
Y647700D02*
D03*
X546100Y622300D02*
D03*
Y647700D02*
D03*
X1625600Y533400D02*
D03*
X1651000D02*
D03*
X1536700Y1219200D02*
D03*
X1511300D02*
D03*
X1879600Y939800D02*
D03*
Y914400D02*
D03*
Y685800D02*
D03*
Y660400D02*
D03*
X469900Y1092200D02*
D03*
X495300D02*
D03*
X1879600Y431800D02*
D03*
Y406400D02*
D03*
X1257300Y1066800D02*
D03*
Y1041400D02*
D03*
X1587500Y457200D02*
D03*
X1562100D02*
D03*
X1257300Y812800D02*
D03*
Y787400D02*
D03*
X1828800Y495300D02*
D03*
X1803400D02*
D03*
X1231900Y558800D02*
D03*
Y533400D02*
D03*
X736600Y673100D02*
D03*
Y647700D02*
D03*
X660400Y1155700D02*
D03*
Y1181100D02*
D03*
X1536700Y635000D02*
D03*
X1511300D02*
D03*
X1790700Y1155700D02*
D03*
X1765300D02*
D03*
X1066800Y1295400D02*
D03*
Y1320800D02*
D03*
X1041400Y1295400D02*
D03*
Y1320800D02*
D03*
X1016000Y1295400D02*
D03*
Y1320800D02*
D03*
X990600Y1295400D02*
D03*
Y1320800D02*
D03*
X762000D02*
D03*
X889000Y1295400D02*
D03*
Y1320800D02*
D03*
X1168400Y1295400D02*
D03*
Y1320800D02*
D03*
X787400Y1295400D02*
D03*
Y1320800D02*
D03*
X812800Y1295400D02*
D03*
Y1320800D02*
D03*
X838200Y1295400D02*
D03*
Y1320800D02*
D03*
X863600Y1295400D02*
D03*
Y1320800D02*
D03*
X1143000Y1295400D02*
D03*
Y1320800D02*
D03*
X1117600Y1295400D02*
D03*
Y1320800D02*
D03*
X914400Y1295400D02*
D03*
Y1320800D02*
D03*
X1092200Y1295400D02*
D03*
Y1320800D02*
D03*
X965200Y1295400D02*
D03*
Y1320800D02*
D03*
X939800Y1295400D02*
D03*
Y1320800D02*
D03*
X1727200Y1155700D02*
D03*
X1701800D02*
D03*
X1663700D02*
D03*
X1638300D02*
D03*
X381000Y1117600D02*
D03*
Y1143000D02*
D03*
X1231900Y635000D02*
D03*
X1206500D02*
D03*
X1320800Y1219200D02*
D03*
Y1244600D02*
D03*
X1651000Y1219200D02*
D03*
Y1244854D02*
D03*
X1752600Y1244600D02*
D03*
Y1218946D02*
D03*
X1701800Y1219200D02*
D03*
Y1244854D02*
D03*
X1511300Y1066800D02*
D03*
Y1092454D02*
D03*
X660400Y1104646D02*
D03*
Y1130300D02*
D03*
X1574800Y1142746D02*
D03*
Y1168400D02*
D03*
X1473200Y1168654D02*
D03*
Y1143000D02*
D03*
X571500Y698500D02*
D03*
Y672846D02*
D03*
X520700Y698500D02*
D03*
Y672846D02*
D03*
X444500Y698500D02*
D03*
Y672846D02*
D03*
X393700Y698500D02*
D03*
Y672846D02*
D03*
X1168400Y1054100D02*
D03*
Y1028446D02*
D03*
X380746Y990600D02*
D03*
X406400D02*
D03*
X381000Y965200D02*
D03*
X406654D02*
D03*
X380746Y1016000D02*
D03*
X406400D02*
D03*
X380746Y939800D02*
D03*
X406400D02*
D03*
X380746Y914400D02*
D03*
X406400D02*
D03*
X1727200Y495300D02*
D03*
X1752854D02*
D03*
X1676654D02*
D03*
X1651000D02*
D03*
X381000Y1041400D02*
D03*
X406654D02*
D03*
X381000Y863600D02*
D03*
X406654D02*
D03*
X380746Y889000D02*
D03*
X406400D02*
D03*
X990600Y1028446D02*
D03*
Y1054100D02*
D03*
X571500Y1079500D02*
D03*
Y1105154D02*
D03*
X939800Y1028446D02*
D03*
Y1054100D02*
D03*
X914400Y1028446D02*
D03*
Y1054100D02*
D03*
X863600Y1028446D02*
D03*
Y1054100D02*
D03*
X889000Y1028446D02*
D03*
Y1054100D02*
D03*
X965200Y1028446D02*
D03*
Y1054100D02*
D03*
X1041400Y1028446D02*
D03*
Y1054100D02*
D03*
X1016000Y1028446D02*
D03*
Y1054100D02*
D03*
X2082800Y1041400D02*
D03*
Y1067054D02*
D03*
Y1104900D02*
D03*
Y1130554D02*
D03*
X2006600Y1041400D02*
D03*
Y1067054D02*
D03*
Y1104900D02*
D03*
Y1130554D02*
D03*
X1930400Y1041400D02*
D03*
Y1067054D02*
D03*
Y1104900D02*
D03*
Y1130554D02*
D03*
X469900Y1180846D02*
D03*
Y1206500D02*
D03*
X431800Y1180846D02*
D03*
Y1206500D02*
D03*
X1270000Y1244854D02*
D03*
Y1219200D02*
D03*
X1231900Y698500D02*
D03*
X1206246D02*
D03*
X330200Y1180846D02*
D03*
Y1206500D02*
D03*
X1422400Y1219200D02*
D03*
Y1244854D02*
D03*
Y1142746D02*
D03*
Y1168400D02*
D03*
X1231900Y1143000D02*
D03*
Y1168654D02*
D03*
X1270000Y1143000D02*
D03*
Y1168654D02*
D03*
X1371600Y1142746D02*
D03*
Y1168400D02*
D03*
X342900Y787400D02*
D03*
Y762000D02*
D03*
Y431800D02*
D03*
Y406400D02*
D03*
X1739900Y520700D02*
D03*
D17*
X685800Y1041400D02*
D03*
X330200Y863600D02*
D03*
X1231900Y1257300D02*
D03*
D18*
X533400Y1318100D02*
D03*
X1117600Y1028860D02*
D03*
X431800Y1120300D02*
D03*
X1371600Y1219360D02*
D03*
D19*
X533400Y1298100D02*
D03*
X1117600Y1048860D02*
D03*
X431800Y1140300D02*
D03*
X1371600Y1239360D02*
D03*
D20*
X1117600Y939800D02*
D03*
X1092200D02*
D03*
X1066800D02*
D03*
X1041400D02*
D03*
X1016000D02*
D03*
X990600D02*
D03*
X965200D02*
D03*
X939800D02*
D03*
X914400D02*
D03*
X889000D02*
D03*
X863600D02*
D03*
X838200D02*
D03*
X812800D02*
D03*
X787400D02*
D03*
X1117600Y787400D02*
D03*
X1092200D02*
D03*
X1066800D02*
D03*
X1041400D02*
D03*
X1016000D02*
D03*
X990600D02*
D03*
X965200D02*
D03*
X939800D02*
D03*
X914400D02*
D03*
X889000D02*
D03*
X863600D02*
D03*
X838200D02*
D03*
X812800D02*
D03*
X546100Y584200D02*
D03*
X520700D02*
D03*
X495300D02*
D03*
X469900D02*
D03*
X444500D02*
D03*
X419100D02*
D03*
X393700D02*
D03*
X546100Y508000D02*
D03*
X520700D02*
D03*
X495300D02*
D03*
X469900D02*
D03*
X444500D02*
D03*
X419100D02*
D03*
X1676400Y609600D02*
D03*
Y635000D02*
D03*
Y660400D02*
D03*
Y685800D02*
D03*
Y711200D02*
D03*
Y736600D02*
D03*
Y762000D02*
D03*
Y787400D02*
D03*
Y812800D02*
D03*
X1600200Y584200D02*
D03*
Y609600D02*
D03*
Y635000D02*
D03*
Y660400D02*
D03*
Y685800D02*
D03*
Y711200D02*
D03*
Y736600D02*
D03*
Y762000D02*
D03*
Y787400D02*
D03*
Y812800D02*
D03*
X546100Y457200D02*
D03*
X520700D02*
D03*
X495300D02*
D03*
X469900D02*
D03*
X444500D02*
D03*
X419100D02*
D03*
X393700D02*
D03*
X546100Y381000D02*
D03*
X520700D02*
D03*
X495300D02*
D03*
X469900D02*
D03*
X444500D02*
D03*
X419100D02*
D03*
X1460500Y838200D02*
D03*
X1435100D02*
D03*
X1409700D02*
D03*
X1384300D02*
D03*
X1358900D02*
D03*
X1333500D02*
D03*
X1308100D02*
D03*
X1460500Y762000D02*
D03*
X1435100D02*
D03*
X1409700D02*
D03*
X1384300D02*
D03*
X1358900D02*
D03*
X1333500D02*
D03*
X571500Y812800D02*
D03*
X546100D02*
D03*
X520700D02*
D03*
X495300D02*
D03*
X469900D02*
D03*
X444500D02*
D03*
X419100D02*
D03*
X393700D02*
D03*
X571500Y736600D02*
D03*
X546100D02*
D03*
X520700D02*
D03*
X495300D02*
D03*
X469900D02*
D03*
X444500D02*
D03*
X419100D02*
D03*
X444500Y1041400D02*
D03*
Y1016000D02*
D03*
Y990600D02*
D03*
Y965200D02*
D03*
Y939800D02*
D03*
Y914400D02*
D03*
Y889000D02*
D03*
Y863600D02*
D03*
X520700Y1041400D02*
D03*
Y1016000D02*
D03*
Y990600D02*
D03*
Y965200D02*
D03*
Y939800D02*
D03*
Y914400D02*
D03*
Y889000D02*
D03*
X1828800Y457200D02*
D03*
X1803400D02*
D03*
X1778000D02*
D03*
X1752600D02*
D03*
X1727200D02*
D03*
X1701800D02*
D03*
X1676400D02*
D03*
X1828800Y381000D02*
D03*
X1803400D02*
D03*
X1778000D02*
D03*
X1752600D02*
D03*
X1727200D02*
D03*
X1701800D02*
D03*
X1193800Y1244600D02*
D03*
X1168400D02*
D03*
X1143000D02*
D03*
X1117600D02*
D03*
X1092200D02*
D03*
X1066800D02*
D03*
X1041400D02*
D03*
X1016000D02*
D03*
X990600D02*
D03*
X965200D02*
D03*
X939800D02*
D03*
X914400D02*
D03*
X889000D02*
D03*
X863600D02*
D03*
X838200D02*
D03*
X812800D02*
D03*
X787400D02*
D03*
X762000D02*
D03*
X736600D02*
D03*
X711200D02*
D03*
X1193800Y1092200D02*
D03*
X1168400D02*
D03*
X1143000D02*
D03*
X1117600D02*
D03*
X1092200D02*
D03*
X1066800D02*
D03*
X1041400D02*
D03*
X1016000D02*
D03*
X990600D02*
D03*
X965200D02*
D03*
X939800D02*
D03*
X914400D02*
D03*
X889000D02*
D03*
X863600D02*
D03*
X838200D02*
D03*
X812800D02*
D03*
X787400D02*
D03*
X762000D02*
D03*
X736600D02*
D03*
X571500Y1041400D02*
D03*
Y1016000D02*
D03*
Y990600D02*
D03*
Y965200D02*
D03*
Y939800D02*
D03*
Y914400D02*
D03*
Y889000D02*
D03*
Y863600D02*
D03*
X647700Y1041400D02*
D03*
Y1016000D02*
D03*
Y990600D02*
D03*
Y965200D02*
D03*
Y939800D02*
D03*
Y914400D02*
D03*
Y889000D02*
D03*
X2082800Y584200D02*
D03*
X2057400D02*
D03*
X2032000D02*
D03*
X2006600D02*
D03*
X1981200D02*
D03*
X1955800D02*
D03*
X1930400D02*
D03*
X2082800Y508000D02*
D03*
X2057400D02*
D03*
X2032000D02*
D03*
X2006600D02*
D03*
X1981200D02*
D03*
X1955800D02*
D03*
X2082800Y457200D02*
D03*
X2057400D02*
D03*
X2032000D02*
D03*
X2006600D02*
D03*
X1981200D02*
D03*
X1955800D02*
D03*
X1930400D02*
D03*
X2082800Y381000D02*
D03*
X2057400D02*
D03*
X2032000D02*
D03*
X2006600D02*
D03*
X1981200D02*
D03*
X1955800D02*
D03*
X2082800Y965200D02*
D03*
X2057400D02*
D03*
X2032000D02*
D03*
X2006600D02*
D03*
X1981200D02*
D03*
X1955800D02*
D03*
X1930400D02*
D03*
X2082800Y889000D02*
D03*
X2057400D02*
D03*
X2032000D02*
D03*
X2006600D02*
D03*
X1981200D02*
D03*
X1955800D02*
D03*
X1828800Y609600D02*
D03*
Y635000D02*
D03*
Y660400D02*
D03*
Y685800D02*
D03*
Y711200D02*
D03*
Y736600D02*
D03*
Y762000D02*
D03*
Y787400D02*
D03*
Y812800D02*
D03*
X1752600Y584200D02*
D03*
Y609600D02*
D03*
Y635000D02*
D03*
Y660400D02*
D03*
Y685800D02*
D03*
Y711200D02*
D03*
Y736600D02*
D03*
Y762000D02*
D03*
Y787400D02*
D03*
Y812800D02*
D03*
X2082800Y838200D02*
D03*
X2057400D02*
D03*
X2032000D02*
D03*
X2006600D02*
D03*
X1981200D02*
D03*
X1955800D02*
D03*
X1930400D02*
D03*
X2082800Y762000D02*
D03*
X2057400D02*
D03*
X2032000D02*
D03*
X2006600D02*
D03*
X1981200D02*
D03*
X1955800D02*
D03*
X2082800Y711200D02*
D03*
X2057400D02*
D03*
X2032000D02*
D03*
X2006600D02*
D03*
X1981200D02*
D03*
X1955800D02*
D03*
X1930400D02*
D03*
X2082800Y635000D02*
D03*
X2057400D02*
D03*
X2032000D02*
D03*
X2006600D02*
D03*
X1981200D02*
D03*
X1955800D02*
D03*
X1828800Y965200D02*
D03*
X1803400D02*
D03*
X1778000D02*
D03*
X1752600D02*
D03*
X1727200D02*
D03*
X1701800D02*
D03*
X1676400D02*
D03*
X1828800Y889000D02*
D03*
X1803400D02*
D03*
X1778000D02*
D03*
X1752600D02*
D03*
X1727200D02*
D03*
X1701800D02*
D03*
X1460500Y584200D02*
D03*
X1435100D02*
D03*
X1409700D02*
D03*
X1384300D02*
D03*
X1358900D02*
D03*
X1333500D02*
D03*
X1308100D02*
D03*
X1282700D02*
D03*
X1460500Y508000D02*
D03*
X1435100D02*
D03*
X1409700D02*
D03*
X1384300D02*
D03*
X1358900D02*
D03*
X1333500D02*
D03*
X1308100D02*
D03*
X1828800Y1092200D02*
D03*
X1803400D02*
D03*
X1778000D02*
D03*
X1752600D02*
D03*
X1727200D02*
D03*
X1701800D02*
D03*
X1676400D02*
D03*
X1828800Y1016000D02*
D03*
X1803400D02*
D03*
X1778000D02*
D03*
X1752600D02*
D03*
X1727200D02*
D03*
X1701800D02*
D03*
X1460500Y965200D02*
D03*
X1435100D02*
D03*
X1409700D02*
D03*
X1384300D02*
D03*
X1358900D02*
D03*
X1333500D02*
D03*
X1308100D02*
D03*
X1460500Y889000D02*
D03*
X1435100D02*
D03*
X1409700D02*
D03*
X1384300D02*
D03*
X1358900D02*
D03*
X1333500D02*
D03*
X1460500Y1092200D02*
D03*
X1435100D02*
D03*
X1409700D02*
D03*
X1384300D02*
D03*
X1358900D02*
D03*
X1333500D02*
D03*
X1308100D02*
D03*
X1460500Y1016000D02*
D03*
X1435100D02*
D03*
X1409700D02*
D03*
X1384300D02*
D03*
X1358900D02*
D03*
X1333500D02*
D03*
X1460500Y711200D02*
D03*
X1435100D02*
D03*
X1409700D02*
D03*
X1384300D02*
D03*
X1358900D02*
D03*
X1333500D02*
D03*
X1308100D02*
D03*
X1282700D02*
D03*
X1460500Y635000D02*
D03*
X1435100D02*
D03*
X1409700D02*
D03*
X1384300D02*
D03*
X1358900D02*
D03*
X1333500D02*
D03*
X1308100D02*
D03*
X1460500Y457200D02*
D03*
X1435100D02*
D03*
X1409700D02*
D03*
X1384300D02*
D03*
X1358900D02*
D03*
X1333500D02*
D03*
X1308100D02*
D03*
X1282700D02*
D03*
X1460500Y381000D02*
D03*
X1435100D02*
D03*
X1409700D02*
D03*
X1384300D02*
D03*
X1358900D02*
D03*
X1333500D02*
D03*
X1308100D02*
D03*
X622300Y558800D02*
D03*
Y533400D02*
D03*
Y508000D02*
D03*
Y482600D02*
D03*
Y457200D02*
D03*
Y431800D02*
D03*
Y406400D02*
D03*
Y381000D02*
D03*
X698500Y558800D02*
D03*
Y533400D02*
D03*
Y508000D02*
D03*
Y482600D02*
D03*
Y457200D02*
D03*
Y431800D02*
D03*
Y406400D02*
D03*
X812800Y584200D02*
D03*
X838200D02*
D03*
X863600D02*
D03*
X889000D02*
D03*
X914400D02*
D03*
X939800D02*
D03*
X965200D02*
D03*
X990600D02*
D03*
X1016000D02*
D03*
X1041400D02*
D03*
X1066800D02*
D03*
X1092200D02*
D03*
X1117600D02*
D03*
X787400Y736600D02*
D03*
X812800D02*
D03*
X838200D02*
D03*
X863600D02*
D03*
X889000D02*
D03*
X914400D02*
D03*
X939800D02*
D03*
X965200D02*
D03*
X990600D02*
D03*
X1016000D02*
D03*
X1041400D02*
D03*
X1066800D02*
D03*
X1092200D02*
D03*
X1117600D02*
D03*
X812800Y381000D02*
D03*
X838200D02*
D03*
X863600D02*
D03*
X889000D02*
D03*
X914400D02*
D03*
X939800D02*
D03*
X965200D02*
D03*
X990600D02*
D03*
X1016000D02*
D03*
X1041400D02*
D03*
X1066800D02*
D03*
X1092200D02*
D03*
X1117600D02*
D03*
X787400Y533400D02*
D03*
X812800D02*
D03*
X838200D02*
D03*
X863600D02*
D03*
X889000D02*
D03*
X914400D02*
D03*
X939800D02*
D03*
X965200D02*
D03*
X990600D02*
D03*
X1016000D02*
D03*
X1041400D02*
D03*
X1066800D02*
D03*
X1092200D02*
D03*
X1117600D02*
D03*
D21*
X787400Y787400D02*
D03*
X393700Y508000D02*
D03*
Y381000D02*
D03*
X1308100Y762000D02*
D03*
X393700Y736600D02*
D03*
X1676400Y381000D02*
D03*
X711200Y1092200D02*
D03*
X1930400Y508000D02*
D03*
Y381000D02*
D03*
Y889000D02*
D03*
Y762000D02*
D03*
Y635000D02*
D03*
X1676400Y889000D02*
D03*
X1282700Y508000D02*
D03*
X1676400Y1016000D02*
D03*
X1308100Y889000D02*
D03*
Y1016000D02*
D03*
X1282700Y635000D02*
D03*
Y381000D02*
D03*
X787400Y584200D02*
D03*
Y381000D02*
D03*
D22*
X1647190Y1285240D02*
D03*
X1756664Y1284986D02*
D03*
X1469390Y1285240D02*
D03*
X1578864Y1284986D02*
D03*
X419100Y1333500D02*
D03*
X372364Y1304036D02*
D03*
X1291336Y1285494D02*
D03*
X1400810Y1285240D02*
D03*
D23*
X1701800Y1282700D02*
D03*
X1524000D02*
D03*
X1345946Y1282954D02*
D03*
D24*
X1702054Y1333246D02*
D03*
X1524254D02*
D03*
X418846Y1273810D02*
D03*
X1346200Y1333500D02*
D03*
D25*
X1676400Y584200D02*
D03*
X520700Y863600D02*
D03*
X647700D02*
D03*
X1828800Y584200D02*
D03*
X698500Y381000D02*
D03*
D26*
X1599200D02*
D03*
X1550400D02*
D03*
D27*
X762000Y1295400D02*
D03*
D28*
X1536700Y1155700D02*
D03*
X1511300D02*
D03*
X1333500D02*
D03*
X1308100D02*
D03*
X393700Y1193800D02*
D03*
X368300D02*
D03*
D29*
X1524000Y1168400D02*
D03*
X1320800D02*
D03*
X381000Y1206500D02*
D03*
D30*
X533400Y1155700D02*
D03*
X685800Y1193800D02*
D03*
X1955800Y1143000D02*
D03*
X1524000Y812800D02*
D03*
X1778000Y1066800D02*
D03*
X1739900Y774700D02*
D03*
X1701800Y927100D02*
D03*
X1854200Y546100D02*
D03*
Y1041400D02*
D03*
X1841500Y1104900D02*
D03*
X2146300Y863600D02*
D03*
X2159000Y850900D02*
D03*
X2082800Y812800D02*
D03*
X2019300Y825500D02*
D03*
X2044700Y723900D02*
D03*
X1765300Y533400D02*
D03*
X1854200Y850900D02*
D03*
X1892300Y469900D02*
D03*
X2133600Y609600D02*
D03*
X2146300Y596900D02*
D03*
X1930400Y736600D02*
D03*
X1816100Y698500D02*
D03*
X2108200Y749300D02*
D03*
X850900Y1003300D02*
D03*
X1244600Y1079500D02*
D03*
X1231900Y1054100D02*
D03*
Y914400D02*
D03*
X990600Y1003300D02*
D03*
X800100Y1016000D02*
D03*
X1231900Y1117600D02*
D03*
X774700Y850900D02*
D03*
X762000Y812800D02*
D03*
X977900Y1143000D02*
D03*
X952500Y1155700D02*
D03*
X1054100Y1206500D02*
D03*
X1168400Y850900D02*
D03*
X1155700Y876300D02*
D03*
X431800Y1066800D02*
D03*
X495300Y1028700D02*
D03*
X596900Y685800D02*
D03*
X1397000Y368300D02*
D03*
X939800Y1130300D02*
D03*
X901700Y1181100D02*
D03*
X1079500D02*
D03*
X990600Y1193800D02*
D03*
X1143000Y419100D02*
D03*
Y774700D02*
D03*
X1282700Y889000D02*
D03*
X1320800Y927100D02*
D03*
X1498600Y901700D02*
D03*
X1485900Y914400D02*
D03*
X1612900Y952500D02*
D03*
X1358900Y939800D02*
D03*
X1676400Y863600D02*
D03*
X1638300Y825500D02*
D03*
X1219200Y1231900D02*
D03*
Y1104900D02*
D03*
X1206500Y723900D02*
D03*
X1092200Y1155700D02*
D03*
X876300Y1333500D02*
D03*
X1117600Y647700D02*
D03*
X939800D02*
D03*
X1587500Y1130300D02*
D03*
X1866900D02*
D03*
X1587500Y1231900D02*
D03*
X1155700Y711200D02*
D03*
X1028700Y901700D02*
D03*
X1193800Y927100D02*
D03*
X1651000Y876300D02*
D03*
X660400Y368300D02*
D03*
X1181100Y342900D02*
D03*
X2120900Y571500D02*
D03*
X838200Y693420D02*
D03*
X1943100Y685800D02*
D03*
X1550400Y419100D02*
D03*
X1549400Y1028700D02*
D03*
X1816100D02*
D03*
X1752600Y1041400D02*
D03*
X711200Y889000D02*
D03*
X1092200Y990600D02*
D03*
X736600Y711200D02*
D03*
X749300Y977900D02*
D03*
X723900Y1003300D02*
D03*
X1346200Y622300D02*
D03*
X1041400Y990600D02*
D03*
X1536700Y1054100D02*
D03*
X1346200Y1231900D02*
D03*
X406400D02*
D03*
X850900Y1206500D02*
D03*
X800100Y1257300D02*
D03*
X774700D02*
D03*
X952500D02*
D03*
X977900D02*
D03*
X927100Y876300D02*
D03*
X901700Y901700D02*
D03*
X762000Y939800D02*
D03*
X482600Y1054100D02*
D03*
X812800Y660400D02*
D03*
X863600Y711200D02*
D03*
X1701800Y698500D02*
D03*
X1092200Y825500D02*
D03*
X1028700Y596900D02*
D03*
X914400Y622300D02*
D03*
X1752600Y419100D02*
D03*
X1587500Y546100D02*
D03*
X381000Y774700D02*
D03*
X469900Y787400D02*
D03*
X889000Y698500D02*
D03*
X990600Y825500D02*
D03*
X1054100Y635000D02*
D03*
X1041400Y622300D02*
D03*
X368300Y596900D02*
D03*
X1066800Y457200D02*
D03*
X1041400Y431800D02*
D03*
X317500Y673100D02*
D03*
Y584200D02*
D03*
X584200Y495300D02*
D03*
X838200Y838200D02*
D03*
X1016000Y406400D02*
D03*
X723900Y1308100D02*
D03*
X927100Y1231900D02*
D03*
X749300Y1257300D02*
D03*
X1988820Y1181100D02*
D03*
X673100Y317500D02*
D03*
X1409700Y685927D02*
D03*
X1473200Y698500D02*
D03*
X1117600Y863600D02*
D03*
X1701800Y749300D02*
D03*
X1219200Y838200D02*
D03*
Y990600D02*
D03*
X1435100Y1308100D02*
D03*
X1409700Y1181100D02*
D03*
X558800Y495300D02*
D03*
X419100Y660400D02*
D03*
X558800D02*
D03*
X1511300Y444500D02*
D03*
X1524000Y419100D02*
D03*
X1536700Y482600D02*
D03*
X1562100Y685800D02*
D03*
X533400Y635000D02*
D03*
X762000Y622300D02*
D03*
Y355600D02*
D03*
X1498600Y330200D02*
D03*
X2065020Y1181100D02*
D03*
X1879600Y1155700D02*
D03*
X2120900Y673100D02*
D03*
X1625600Y939800D02*
D03*
X1638300Y1016000D02*
D03*
X1879600Y990600D02*
D03*
X2095500Y863600D02*
D03*
X2171700Y685800D02*
D03*
X1879600Y889000D02*
D03*
X1968500Y1079500D02*
D03*
X1892300Y1054100D02*
D03*
X1143000Y698500D02*
D03*
X1498600Y1079500D02*
D03*
X1651000Y1193800D02*
D03*
X1130300Y1257300D02*
D03*
X1981200Y1054100D02*
D03*
X2044700Y1117600D02*
D03*
X1244600Y584200D02*
D03*
X457200Y1117600D02*
D03*
X1955800Y431800D02*
D03*
X2120900Y927100D02*
D03*
X1130300Y1117600D02*
D03*
X838200Y1028700D02*
D03*
X1066800D02*
D03*
X1079500Y1104900D02*
D03*
X1104900Y1117600D02*
D03*
X622300Y812800D02*
D03*
X635000Y787400D02*
D03*
X660400Y1079500D02*
D03*
X762000Y863600D02*
D03*
X749300Y800100D02*
D03*
X1016000Y1193800D02*
D03*
X1143000D02*
D03*
X711200Y990600D02*
D03*
X635000Y952500D02*
D03*
Y1168400D02*
D03*
X1168400Y1193800D02*
D03*
M02*
