G04 Layer_Physical_Order=2*
G04 Layer_Color=65280*
%FSLAX44Y44*%
%MOMM*%
G71*
G01*
G75*
%ADD12C,0.2540*%
%ADD13C,0.7500*%
%ADD14C,1.5000*%
%ADD15R,1.5000X1.5000*%
%ADD16C,1.6500*%
%ADD17R,1.5000X1.5000*%
%ADD18C,1.2500*%
%ADD19R,1.2500X1.2500*%
%ADD20C,1.5000*%
%ADD21R,1.5000X1.5000*%
%ADD22C,4.0000*%
%ADD23R,2.0000X2.0000*%
%ADD24R,4.0000X4.0000*%
%ADD25R,1.5000X1.5000*%
%ADD26C,1.4000*%
%ADD27R,1.6500X1.6500*%
%ADD28O,1.0000X2.0000*%
%ADD29O,1.0000X2.0000*%
%ADD30C,1.2700*%
D12*
X1409573Y685800D02*
X1485646D01*
X571500Y672846D02*
X736600D01*
X1206754Y1066800D02*
X1257300D01*
X1168400Y1028446D02*
X1206754Y1066800D01*
X1155954Y1016000D02*
X1168400Y1028446D01*
X1079500Y1016000D02*
X1155954D01*
X1117600Y1051400D02*
X1120140Y1048860D01*
X1142840D02*
X1148080Y1054100D01*
X1120140Y1048860D02*
X1142840D01*
X1752600Y1219200D02*
X1752854D01*
X609600Y1028700D02*
X647700Y1066800D01*
X711200Y1193800D02*
X990600D01*
X698500Y1181100D02*
X711200Y1193800D01*
X660400Y1181100D02*
X698500D01*
X444754Y1193800D02*
X685800D01*
X431800Y1180846D02*
X444754Y1193800D01*
X609600Y1298100D02*
Y1320800D01*
X1625600Y1143000D02*
X1955800D01*
X2065020Y1181100D02*
Y1211580D01*
X1968500Y1308100D02*
X2065020Y1211580D01*
X647700Y965200D02*
X685800D01*
X647700Y914400D02*
X685800D01*
X647700Y939800D02*
X685800D01*
X368046Y1003300D02*
X380746Y990600D01*
X322580Y1003300D02*
X368046D01*
X317500Y1008380D02*
X322580Y1003300D01*
X317500Y1028700D02*
X330200Y1041400D01*
X317500Y1008380D02*
Y1028700D01*
X330200Y1016000D02*
X380746D01*
X368046Y952500D02*
X380746Y939800D01*
X322580Y952500D02*
X368046D01*
X317500Y947420D02*
X322580Y952500D01*
X317500Y901700D02*
Y947420D01*
Y901700D02*
X330200Y889000D01*
X368300Y977900D02*
X381000Y965200D01*
X304800Y889000D02*
X330200Y863600D01*
X304800Y889000D02*
Y965200D01*
X317500Y977900D01*
X368300D01*
X1587500Y508000D02*
X1658620D01*
X1549400Y469900D02*
X1587500Y508000D01*
X1206500Y469900D02*
X1549400D01*
X1600200Y495300D02*
X1651000D01*
X1562100Y457200D02*
X1600200Y495300D01*
X1658620Y508000D02*
X1663700Y502920D01*
Y487680D02*
Y502920D01*
Y487680D02*
X1668780Y482600D01*
X1524000Y812800D02*
X1600200D01*
X1498600Y762000D02*
X1600200D01*
X1460500Y800100D02*
X1498600Y762000D01*
X1244600Y800100D02*
X1460500D01*
X1739900Y774700D02*
X1778000D01*
X1422400Y927100D02*
X1701800D01*
X1752600Y787400D02*
X1778000D01*
X1816100Y749300D01*
X1854200Y736600D02*
X1930400D01*
X1816100Y749300D02*
X1841500D01*
X1854200Y736600D01*
Y546100D02*
X1993900D01*
X2032000Y508000D01*
X1689100Y1104900D02*
X1841500D01*
X1803400Y457200D02*
X1816100Y469900D01*
X2133600Y876300D02*
X2146300Y863600D01*
X1993900Y876300D02*
X2133600D01*
X1943100Y850900D02*
X2159000D01*
X2019300Y825500D02*
X2070100D01*
X2082800Y812800D01*
X1993900Y723900D02*
X2044700D01*
X1981200Y711200D02*
X1993900Y723900D01*
X1981200Y812800D02*
Y838200D01*
X1765300Y533400D02*
X1905000D01*
X1498600Y850900D02*
X1854200D01*
X1892300Y469900D02*
X1943100D01*
X1955800Y457200D01*
X2082800Y609600D02*
X2133600D01*
X2057400Y635000D02*
X2082800Y609600D01*
X2044700Y596900D02*
X2146300D01*
X2032000Y609600D02*
X2044700Y596900D01*
X2006600Y609600D02*
X2032000D01*
X1981200Y635000D02*
X2006600Y609600D01*
X2057400Y584200D02*
X2070100Y571500D01*
X2120900D01*
X2057400Y736600D02*
X2082800Y711200D01*
X1955800Y736600D02*
X2057400D01*
X1930400Y762000D02*
X1955800Y736600D01*
X1778000Y685800D02*
X1828800D01*
X1765300Y698500D02*
X1778000Y685800D01*
X1701800Y698500D02*
X1765300D01*
X1816100D02*
X1993900D01*
X2006600Y711200D01*
X1968500Y749300D02*
X2108200D01*
X838200Y990600D02*
X914400D01*
X825500Y1003300D02*
X838200Y990600D01*
X825500Y977900D02*
X876300D01*
X812800Y990600D02*
X825500Y977900D01*
X812800Y965200D02*
X863600D01*
X800100Y977900D02*
X812800Y965200D01*
X749300Y977900D02*
X800100D01*
X850900Y1003300D02*
X927100D01*
X1219200Y1079500D02*
X1257300Y1117600D01*
X952500D02*
X965200Y1130300D01*
X914400Y1117600D02*
X952500D01*
X889000Y1092200D02*
X914400Y1117600D01*
X1257300D02*
X1384300D01*
X1244600Y1079500D02*
X1270000Y1104900D01*
X1231900Y1054100D02*
X1536700D01*
X749300Y914400D02*
X1231900D01*
X1270000Y1104900D02*
X1346200D01*
X1358900Y1092200D01*
X1066800Y965200D02*
X1092200Y939800D01*
X965200Y965200D02*
X1066800D01*
X927100Y1003300D02*
X965200Y965200D01*
X990600Y1003300D02*
X1333500D01*
X863600Y965200D02*
X889000Y939800D01*
X876300Y977900D02*
X914400Y939800D01*
Y990600D02*
X965200Y939800D01*
X800100Y1016000D02*
X939800D01*
X977900Y977900D01*
X609600D02*
Y1028700D01*
X431800Y1066800D02*
X596900D01*
X1003300D02*
X1016000Y1054100D01*
X647700Y1117600D02*
X673100D01*
X647700Y1143000D02*
X977900D01*
X723900Y850900D02*
X774700D01*
X825500D02*
X1168400D01*
X812800Y838200D02*
X825500Y850900D01*
X736600Y838200D02*
X812800D01*
X825500Y825500D02*
X838200Y838200D01*
X749300Y825500D02*
X825500D01*
X977900Y812800D02*
X990600Y825500D01*
X762000Y812800D02*
X977900D01*
X711200Y838200D02*
X723900Y850900D01*
X469900Y838200D02*
X711200D01*
X723900Y825500D02*
X736600Y838200D01*
X508000Y825500D02*
X723900D01*
X800100Y800100D02*
X812800Y787400D01*
X698500Y850900D02*
X711200Y863600D01*
X457200Y850900D02*
X698500D01*
X584200Y952500D02*
X609600Y977900D01*
X546100Y952500D02*
X584200D01*
Y939800D02*
X622300Y977900D01*
X520700Y1016000D02*
X571500Y965200D01*
X533400D02*
X546100Y952500D01*
X571500Y939800D02*
X584200D01*
X685800Y1130300D02*
X939800D01*
X673100Y1117600D02*
X685800Y1130300D01*
X850900Y1206500D02*
X1054100D01*
X1168400Y850900D02*
X1371600D01*
X1155700Y876300D02*
X1651000D01*
X1016000Y342900D02*
X1155700D01*
X1003300Y355600D02*
X1016000Y342900D01*
X762000Y355600D02*
X1003300D01*
X1028700D02*
X1727200D01*
X1016000Y368300D02*
X1028700Y355600D01*
X660400Y368300D02*
X1016000D01*
X1028700Y373380D02*
Y388620D01*
X1023620Y393700D02*
X1028700Y388620D01*
X685800Y393700D02*
X1023620D01*
X1033780Y368300D02*
X1397000D01*
X1028700Y373380D02*
X1033780Y368300D01*
X1168400Y330200D02*
X1498600D01*
X1155700Y342900D02*
X1168400Y330200D01*
X1219200Y825500D02*
X1244600Y800100D01*
X1092200Y825500D02*
X1219200D01*
X622300Y1117600D02*
X647700Y1143000D01*
X457200Y1117600D02*
X622300D01*
X596900Y1066800D02*
X647700Y1117600D01*
X520700Y965200D02*
X533400D01*
X393446Y1028700D02*
X495300D01*
X380746Y1016000D02*
X393446Y1028700D01*
X406400Y685800D02*
X596900D01*
X1201420Y673100D02*
X1498600D01*
X1188720Y660400D02*
X1201420Y673100D01*
X812800Y660400D02*
X1188720D01*
X1193800Y711200D02*
X1226820D01*
X1168400Y685800D02*
X1193800Y711200D01*
X845820Y685800D02*
X1168400D01*
X1282700Y635000D02*
Y660400D01*
X1206246Y683260D02*
Y698500D01*
X901700Y1181100D02*
X1079500D01*
X1143000Y419100D02*
X1524000D01*
X1305560Y744220D02*
X1313180Y736600D01*
X1285240Y744220D02*
X1305560D01*
X1280160Y749300D02*
X1285240Y744220D01*
X1295400Y736600D02*
X1308100Y723900D01*
X1252220Y736600D02*
X1295400D01*
X1226820Y711200D02*
X1252220Y736600D01*
X1079500Y749300D02*
X1280160D01*
X1295400D02*
X1651000D01*
X1282700Y762000D02*
X1295400Y749300D01*
X1117600Y762000D02*
X1282700D01*
X1092200Y787400D02*
X1117600Y762000D01*
X1143000Y774700D02*
X1320800D01*
X1333500Y762000D01*
X711200Y889000D02*
X1282700D01*
X1028700Y901700D02*
X1397000D01*
X1193800Y927100D02*
X1320800D01*
X1422400Y901700D02*
X1498600D01*
X1727200Y355600D02*
X1752600Y381000D01*
X1447800Y952500D02*
X1612900D01*
X1435100Y965200D02*
X1447800Y952500D01*
X1117600Y863600D02*
X1676400D01*
X1498600Y825500D02*
X1638300D01*
X1485900Y812800D02*
X1498600Y825500D01*
X1358900Y812800D02*
X1485900D01*
X1333500Y838200D02*
X1358900Y812800D01*
X1231900Y1231900D02*
X1257300Y1257300D01*
X1219200Y1231900D02*
X1231900D01*
X533400Y723900D02*
X1206500D01*
X1003300Y1333500D02*
X1016000Y1320800D01*
X876300Y1333500D02*
X1003300D01*
X520700Y672846D02*
X571500D01*
X1313180Y736600D02*
X1600200D01*
X1308100Y723900D02*
X1651000D01*
X1905000Y533400D02*
X1930400Y508000D01*
X774700Y1282700D02*
X896620D01*
X749300Y1257300D02*
X774700Y1282700D01*
X1587500Y1130300D02*
X1866900D01*
X1257300Y1257300D02*
X1435100D01*
X1778000Y774700D02*
X1816100Y736600D01*
X1397000Y1003300D02*
X2019300D01*
X1384300Y990600D02*
X1397000Y1003300D01*
X1346200Y990600D02*
X1384300D01*
X863600Y711200D02*
X1155700D01*
X1397000Y901700D02*
X1422400Y927100D01*
X1409700Y889000D02*
X1422400Y901700D01*
X1333500Y1003300D02*
X1346200Y990600D01*
X977900Y977900D02*
X1320800D01*
X546100Y927100D02*
X736600D01*
X533400Y939800D02*
X546100Y927100D01*
X520700Y939800D02*
X533400D01*
X596900Y876300D02*
X927100D01*
X584200Y889000D02*
X596900Y876300D01*
X571500Y889000D02*
X584200D01*
X596900Y901700D02*
X901700D01*
X584200Y914400D02*
X596900Y901700D01*
X571500Y914400D02*
X584200D01*
X1765300Y977900D02*
X1993900D01*
X1752600Y965200D02*
X1765300Y977900D01*
X1511300Y1092454D02*
X1536446Y1117600D01*
X1244346Y1181100D02*
X1308100D01*
X1231900Y1168654D02*
X1244346Y1181100D01*
X1358900D02*
X1409700D01*
X1473200Y825500D02*
X1498600Y850900D01*
X1371600Y825500D02*
X1473200D01*
X1358900Y838200D02*
X1371600Y825500D01*
X1625600Y647700D02*
X1701800D01*
X1612900Y635000D02*
X1625600Y647700D01*
X1600200Y635000D02*
X1612900D01*
X1816100Y736600D02*
X1828800D01*
X609600Y596900D02*
X622300Y609600D01*
X457200Y596900D02*
X609600D01*
X1092200Y381000D02*
Y457200D01*
X1079500Y469900D02*
X1092200Y457200D01*
X685800Y469900D02*
X1079500D01*
X1066800Y381000D02*
Y431800D01*
X1041400Y381000D02*
Y406400D01*
X1181100Y342900D02*
X1739900D01*
X1778000Y381000D01*
X838200Y693420D02*
X845820Y685800D01*
X1422400Y1320800D02*
X1435100Y1308100D01*
X1943100Y685800D02*
X2171700D01*
X1550400Y419100D02*
X1752600D01*
X1803400Y1092200D02*
X1816100Y1079500D01*
X1739900Y1028700D02*
X1816100D01*
X1765300Y660400D02*
X1778000Y673100D01*
X1752600Y660400D02*
X1765300D01*
X1739900Y635000D02*
X1752600D01*
X1689100Y584200D02*
X1739900Y635000D01*
X1803400Y647700D02*
X1816100Y660400D01*
X1295400Y723900D02*
X1308100Y711200D01*
X1498600Y673100D02*
X1524000Y698500D01*
X660400Y1104646D02*
X660654Y1104900D01*
X825500D01*
X838200Y1092200D01*
X520700Y711200D02*
X736600D01*
X673100Y406400D02*
X685800Y393700D01*
X1244600Y622300D02*
X1346200D01*
X1231900Y635000D02*
X1244600Y622300D01*
X1790700Y1079500D02*
X1803400Y1092200D01*
X393446Y1003300D02*
X457200D01*
X520700Y939800D01*
X736600Y927100D02*
X749300Y914400D01*
X774700Y927100D02*
X850900D01*
X863600Y939800D01*
X1016000Y1028446D02*
X1041400D01*
Y990600D02*
X1092200D01*
X1244346Y1143000D02*
X1270000Y1168654D01*
X1231900Y1143000D02*
X1244346D01*
X1053846Y1016000D02*
X1079500D01*
Y1041400D01*
X1384300Y1092200D02*
X1397000Y1079500D01*
X1524000Y1333500D02*
X1524254Y1333246D01*
X1391920Y1320800D02*
X1422400D01*
X1374140Y1303020D02*
X1391920Y1320800D01*
X1325880Y1303020D02*
X1374140D01*
X1308100Y1320800D02*
X1325880Y1303020D01*
X406400Y1231900D02*
X901700D01*
X431800Y1206500D02*
X469900D01*
X411480D02*
X431800D01*
X1041400Y1219200D02*
X1066800Y1244600D01*
X1041400Y1028446D02*
X1053846Y1016000D01*
X901700Y1231900D02*
X914400Y1244600D01*
X896620Y1282700D02*
X901700Y1287780D01*
X800100Y1257300D02*
X927100D01*
X774700D02*
X787400Y1270000D01*
X914400D01*
X952500Y1257300D02*
X965200Y1270000D01*
X977900Y1257300D02*
X1003300D01*
X952500Y1282700D02*
Y1308100D01*
X927100Y1257300D02*
X952500Y1282700D01*
X927100D02*
Y1308100D01*
X914400Y1270000D02*
X927100Y1282700D01*
X800100Y952500D02*
X812800Y939800D01*
X647700Y1016000D02*
X685800D01*
X647700Y889000D02*
X685800D01*
X571246Y1104900D02*
X571500Y1105154D01*
X393700Y1054100D02*
X482600D01*
X381000Y1041400D02*
X393700Y1054100D01*
X647700Y863600D02*
X685800D01*
X647700Y990600D02*
X685800D01*
X381000Y863600D02*
X393700Y876300D01*
X508000D01*
X520700Y863600D01*
X406400Y1117600D02*
X409100Y1120300D01*
X381000Y1117600D02*
X406400D01*
X409100Y1120300D02*
X431800D01*
X380746Y990600D02*
X393446Y1003300D01*
X381000Y965200D02*
X393700Y977900D01*
X431800D01*
X444500Y965200D01*
X330200Y914400D02*
X380746D01*
Y939800D02*
X393446Y952500D01*
X431800D01*
X444500Y939800D01*
X380746Y914400D02*
X393446Y927100D01*
X431800D01*
X444500Y914400D01*
X380746Y889000D02*
X393446Y901700D01*
X431800D01*
X444500Y889000D01*
X1320800Y1219200D02*
X1396746D01*
X1651000Y1244600D02*
X1752600D01*
X1320800Y977900D02*
X1333500Y965200D01*
X381000Y1066800D02*
X381254D01*
X1663700Y685800D02*
X1676400D01*
X1651000Y698500D02*
X1663700Y685800D01*
X1600200Y762000D02*
X1651000D01*
X1663700Y749300D01*
X1739900Y736600D02*
X1752600D01*
X1714500Y762000D02*
X1739900Y736600D01*
Y685800D02*
X1752600D01*
X1701800Y647700D02*
X1739900Y685800D01*
X1587500Y647700D02*
X1600200Y660400D01*
X1663700Y711200D02*
X1676400D01*
X914400Y622300D02*
X1041400D01*
X1562100Y647700D02*
X1587500Y673100D01*
X1562100Y635000D02*
Y647700D01*
X1739900Y711200D02*
X1752600D01*
X1727200Y723900D02*
X1739900Y711200D01*
X1727200Y736600D02*
X1739900Y723900D01*
X1536700Y495300D02*
X1562100Y520700D01*
X469900Y1180846D02*
X470154Y1181100D01*
X1599200Y381000D02*
X1676400D01*
X1308100Y508000D02*
X1320800Y495300D01*
X1536700D01*
X1130300Y571500D02*
X1219200Y482600D01*
X1117600Y558800D02*
X1206500Y469900D01*
X1727200Y457200D02*
X1752600D01*
X1600200Y469900D02*
X1689100D01*
X1701800Y457200D01*
X1587500D02*
X1600200Y469900D01*
X685800Y444500D02*
X1054100D01*
X1435100Y1041400D02*
X1460500Y1016000D01*
X1257300Y1041400D02*
X1435100D01*
X1117600Y787400D02*
X1257300D01*
X1231900Y533400D02*
X1435100D01*
X1460500Y508000D01*
X1003300Y571500D02*
X1130300D01*
X1041400Y558800D02*
X1117600D01*
X495300Y736600D02*
X520700Y711200D01*
X1028700Y546100D02*
X1041400Y558800D01*
X1028700Y520700D02*
Y546100D01*
X1016000Y508000D02*
X1028700Y520700D01*
X723900Y508000D02*
X1016000D01*
X965200Y533400D02*
X1003300Y571500D01*
X698500Y558800D02*
X736600Y520700D01*
X927100D01*
X939800Y533400D01*
X977900Y520700D02*
X990600Y533400D01*
X952500Y520700D02*
X977900D01*
X939800Y533400D02*
X952500Y520700D01*
X469900Y787400D02*
X546100D01*
X584200Y749300D01*
X825500D01*
X838200Y736600D01*
X381000Y774700D02*
X406400Y800100D01*
X558800D01*
X596900Y762000D01*
X889000D01*
X914400Y736600D01*
X952500Y774700D02*
X990600Y736600D01*
X609600Y774700D02*
X952500D01*
X571500Y812800D02*
X609600Y774700D01*
X1485646Y685800D02*
X1511046Y711200D01*
X1651000Y736600D02*
X1663700Y723900D01*
X1651000Y673100D02*
X1663700Y660400D01*
X1676400D01*
X1663700Y736600D02*
X1676400D01*
X1651000Y749300D02*
X1663700Y736600D01*
X1041400Y1028446D02*
Y1028700D01*
X495300Y812800D02*
X508000Y825500D01*
X444500Y812800D02*
X469900Y838200D01*
X419100Y812800D02*
X457200Y850900D01*
X342900Y762000D02*
X546100D01*
X571500Y736600D01*
X444500Y584200D02*
X457200Y596900D01*
X635000D02*
X800100D01*
X609600Y571500D02*
X635000Y596900D01*
X800100D02*
X812800Y584200D01*
X1054100Y520700D02*
Y541020D01*
X1028700Y495300D02*
X1054100Y520700D01*
X698500Y533400D02*
X723900Y508000D01*
X1059180Y546100D02*
X1104900D01*
X1054100Y541020D02*
X1059180Y546100D01*
X685800Y495300D02*
X1028700D01*
X698500Y482600D02*
X1041400D01*
X698500Y457200D02*
X1066800D01*
X1054100Y444500D02*
X1066800Y431800D01*
X1041400Y482600D02*
X1092200Y533400D01*
X698500Y431800D02*
X1041400D01*
X533400Y495300D02*
X558800D01*
X520700Y508000D02*
X533400Y495300D01*
X469900Y457200D02*
X495300Y482600D01*
X571500D01*
X584200Y495300D01*
X317500Y673100D02*
X317754Y672846D01*
X393700D01*
Y698500D02*
X406400Y685800D01*
X622300Y406400D02*
X673100D01*
Y431800D02*
X685800Y419100D01*
X622300Y431800D02*
X673100D01*
X647700Y482600D02*
X685800Y444500D01*
X622300Y482600D02*
X647700D01*
Y508000D02*
X685800Y469900D01*
X622300Y508000D02*
X647700D01*
Y533400D02*
X685800Y495300D01*
X622300Y533400D02*
X647700D01*
X1104900Y546100D02*
X1117600Y533400D01*
X482600Y444500D02*
X495300Y457200D01*
X469900Y647700D02*
X546100D01*
X444500Y672846D02*
X520700D01*
X393700D02*
X444500D01*
X622300Y381000D02*
X698500D01*
X787400D01*
X698500Y406400D02*
X1016000D01*
X787400Y736600D02*
X812800D01*
X939800Y1028446D02*
X965200D01*
X990600D01*
X1016000D01*
X863600D02*
X889000D01*
X914400D01*
X939800D01*
X876300Y1308100D02*
X889000Y1320800D01*
X723900Y1308100D02*
X876300D01*
X901700D02*
X914400Y1320800D01*
X927100Y1308100D02*
X939800Y1320800D01*
X952500Y1308100D02*
X965200Y1320800D01*
X901700Y1287780D02*
Y1308100D01*
X965200Y1270000D02*
X990600D01*
X1016000Y1295400D01*
X1028700Y1236980D02*
Y1257300D01*
X1023620Y1231900D02*
X1028700Y1236980D01*
Y1257300D02*
X1066800Y1295400D01*
X927100Y1231900D02*
X1023620D01*
X1041400Y1244600D02*
X1092200Y1295400D01*
Y1320800D02*
X1104900Y1308100D01*
X1003300Y1257300D02*
X1028700Y1282700D01*
Y1303020D01*
X1033780Y1308100D01*
X1054100D01*
X1066800Y1320800D01*
X1396746Y1219200D02*
X1422400Y1244854D01*
X1270000Y1219200D02*
X1320800D01*
X1396746Y1142746D02*
X1422400Y1168400D01*
X1371600Y1142746D02*
X1396746D01*
X1308100Y1016000D02*
X1320800Y1028700D01*
X1397000D01*
X1409700Y1016000D01*
X1333500D02*
X1346200Y1003300D01*
X1409700Y1092200D02*
X1435100D01*
X1930400Y1130554D02*
X2006600D01*
X2082800D01*
X520700Y406400D02*
X546100Y381000D01*
X342900Y406400D02*
X520700D01*
X482600Y393700D02*
X495300Y381000D01*
X431800Y393700D02*
X482600D01*
X419100Y381000D02*
X431800Y393700D01*
X419100Y457200D02*
X431800Y444500D01*
X482600D01*
X520700Y533400D02*
X546100Y508000D01*
X292100Y533400D02*
X520700D01*
X444500Y508000D02*
X469900D01*
X1028700Y419100D02*
X1041400Y406400D01*
X685800Y419100D02*
X1028700D01*
X1346200Y571500D02*
X1358900Y584200D01*
X1320800Y571500D02*
X1346200D01*
X1308100Y584200D02*
X1320800Y571500D01*
X1676400Y584200D02*
X1689100D01*
X1371600Y576580D02*
X1376680Y571500D01*
X1371600Y576580D02*
Y591820D01*
X1366520Y596900D02*
X1371600Y591820D01*
Y609600D02*
X1384300Y596900D01*
X1524000D01*
X1562100Y635000D01*
X1409700D02*
X1435100Y609600D01*
Y635000D02*
X1447800Y622300D01*
X1511300Y609600D02*
X1536700Y635000D01*
X1435100Y609600D02*
X1511300D01*
X1447800Y622300D02*
X1498600D01*
X1511300Y635000D01*
X1409573Y685800D02*
X1409700Y685927D01*
X1358900Y711200D02*
X1371600Y698500D01*
X1473200D01*
X1651000Y723900D02*
X1663700Y711200D01*
X1282700D02*
X1308100Y685800D01*
X1409573D01*
X520700Y736600D02*
X533400Y723900D01*
X1028700Y596900D02*
X1130300D01*
X1181100Y546100D01*
X1587500D01*
X1676400Y736600D02*
X1727200D01*
X1663700Y723900D02*
X1727200D01*
X1663700Y749300D02*
X1701800D01*
X1676400Y762000D02*
X1714500D01*
X1435100Y457200D02*
X1447800Y444500D01*
X1219200Y990600D02*
X1320800D01*
X1384300Y965200D02*
X1409700D01*
X1333500D02*
X1358900D01*
X1447800Y977900D02*
X1460500Y965200D01*
X1320800Y990600D02*
X1333500Y977900D01*
X1447800D01*
X1384300Y1117600D02*
X1409700Y1092200D01*
X1358646Y1142746D02*
X1371600D01*
X1320800Y1244600D02*
X1353820D01*
X1359060Y1239360D01*
X1371600D01*
X1587500Y673100D02*
X1651000D01*
X1600200Y736600D02*
X1651000D01*
X419100Y660400D02*
X558800D01*
X1816100D02*
X1828800D01*
X1447800Y444500D02*
X1511300D01*
X1219200Y482600D02*
X1536700D01*
X1524000Y698500D02*
X1651000D01*
X1562100Y685800D02*
X1600200D01*
X533400Y635000D02*
X749300D01*
X762000Y622300D01*
X2039620Y1155700D02*
X2065020Y1181100D01*
X1879600Y1155700D02*
X2039620D01*
X1676400Y965200D02*
X1701800D01*
X1854200Y1041400D02*
X1930400D01*
X1778000Y673100D02*
X2120900D01*
X1905000Y939800D02*
X1930400Y965200D01*
X1879600Y939800D02*
X1905000D01*
X1930400Y457200D02*
X1943100Y444500D01*
X1968500D01*
X1981200Y457200D01*
X1993900Y444500D01*
X2019300D01*
X2032000Y457200D01*
X1955800Y508000D02*
X1968500Y520700D01*
X1993900D01*
X1549400Y1028700D02*
X1689100D01*
X2019300Y1003300D02*
X2057400Y965200D01*
X1752600Y990600D02*
X1879600D01*
X1727200Y965200D02*
X1752600Y990600D01*
X2006600Y584200D02*
X2019300Y571500D01*
X2044700D01*
X2057400Y584200D01*
X1993900Y520700D02*
X2006600Y508000D01*
X1739900Y647700D02*
X1803400D01*
X1587500Y622300D02*
X1714500D01*
X1739900Y647700D01*
Y723900D02*
X1762760D01*
X1775460Y711200D01*
X1828800D01*
X2057400Y660400D02*
X2082800Y635000D01*
X1879600Y660400D02*
X2057400D01*
X1981200Y889000D02*
X1993900Y876300D01*
X2019300Y596900D02*
X2032000Y584200D01*
X1993900Y596900D02*
X2019300D01*
X1955800Y635000D02*
X1993900Y596900D01*
X1955800Y635000D02*
X1968500Y647700D01*
X1993900D01*
X2006600Y635000D01*
X1930400Y889000D02*
X1955800Y863600D01*
X2095500D01*
X2044700Y901700D02*
X2057400Y889000D01*
X1892300Y901700D02*
X2044700D01*
X1879600Y889000D02*
X1892300Y901700D01*
X1955800Y762000D02*
X1968500Y749300D01*
X1574800Y1193800D02*
X1625600Y1143000D01*
X2070100Y1054100D02*
X2082800Y1041400D01*
X1993900Y977900D02*
X2006600Y965200D01*
X1752600Y1218946D02*
X1752854Y1219200D01*
X1816100Y1079500D02*
X1968500D01*
X889000Y698500D02*
X1143000D01*
X1148080Y1054100D02*
X1168400D01*
X914400D02*
X927100Y1041400D01*
X1054100D01*
X1346200Y1003300D02*
X1371600D01*
X1384300Y1016000D01*
X1397000Y1079500D02*
X1473200D01*
X1486154Y1092454D01*
X1498600Y1079500D02*
X1790700D01*
X1486154Y1092454D02*
X1511300D01*
X1676400Y1092200D02*
X1689100Y1104900D01*
X1727200Y1016000D02*
X1739900Y1028700D01*
X1638300Y1016000D02*
X1676400D01*
X1689100Y1028700D02*
X1701800Y1016000D01*
X1638300Y1206500D02*
X1651000Y1193800D01*
X1066800Y1244600D02*
X1104900Y1206500D01*
X1638300D01*
X1587500Y622300D02*
Y647700D01*
X1376680Y571500D02*
X1536700D01*
X1587500Y622300D01*
X431800Y576580D02*
X436880Y571500D01*
X431800Y576580D02*
Y591820D01*
X426720Y596900D02*
X431800Y591820D01*
X368300Y596900D02*
X426720D01*
X436880Y571500D02*
X609600D01*
X1193800Y1320800D02*
X1308100D01*
X1257300Y723900D02*
X1295400D01*
X1231900Y698500D02*
X1257300Y723900D01*
X1066800Y1054100D02*
X1079500Y1041400D01*
X444500Y736600D02*
X469900D01*
X495300D01*
X520700Y698500D02*
Y711200D01*
X1244600Y1219200D02*
X1257300Y1231900D01*
X1346200D01*
X1130300Y1282700D02*
X1231900D01*
X1117600Y1295400D02*
X1130300Y1282700D01*
X1181100Y1308100D02*
X1193800Y1320800D01*
X1104900Y1308100D02*
X1181100D01*
X1130300Y1257300D02*
X1231900D01*
X1981200Y1054100D02*
X2070100D01*
X1892300D02*
X1981200D01*
X1536446Y1117600D02*
X2044700D01*
X1727200Y889000D02*
X1752600Y863600D01*
X1930400D01*
X1943100Y850900D01*
X1168400Y584200D02*
X1244600D01*
X1143000Y609600D02*
X1168400Y584200D01*
X622300Y609600D02*
X1143000D01*
X1371600Y850900D02*
X1384300Y838200D01*
X1117600Y1244600D02*
X1143000Y1219200D01*
X1244600D01*
X838200Y787400D02*
X850900Y800100D01*
X1041400D01*
X1079500Y838200D01*
X1219200D01*
X1041400Y622300D02*
X1155700D01*
X1181100Y596900D01*
X1366520D01*
X1054100Y635000D02*
X1168400D01*
X1193800Y609600D01*
X1371600D01*
X1066800Y736600D02*
X1079500Y749300D01*
X1435100Y1257300D02*
X1460500Y1231900D01*
X1587500D01*
X787400Y533400D02*
X812800D01*
X838200D01*
X2032000Y431800D02*
X2057400Y457200D01*
X1955800Y431800D02*
X2032000D01*
X2095500Y927100D02*
X2120900D01*
X2057400Y965200D02*
X2095500Y927100D01*
X1765300Y469900D02*
X1778000Y457200D01*
X1714500Y469900D02*
X1765300D01*
X1701800Y482600D02*
X1714500Y469900D01*
X1668780Y482600D02*
X1701800D01*
X1790700D02*
X1803400Y495300D01*
X1714500Y482600D02*
X1790700D01*
X1701800Y495300D02*
X1714500Y482600D01*
X1676654Y495300D02*
X1701800D01*
X1663700Y520700D02*
X1676400Y508000D01*
X1813560D01*
X1816100Y505460D01*
X1562100Y520700D02*
X1663700D01*
X1816100Y469900D02*
Y505460D01*
X1536700Y1155700D02*
X1549654Y1142746D01*
X1574800D01*
X1536700Y1155700D02*
Y1178560D01*
X1473200Y1143000D02*
X1503680Y1173480D01*
X1518920D01*
X1524000Y1168400D01*
X1473200Y1168654D02*
X1488186Y1183640D01*
X1531620D01*
X1536700Y1178560D01*
X1333500Y1155700D02*
X1358900Y1181100D01*
X1308100D02*
X1320800Y1168400D01*
X1308100Y1155700D02*
X1323340Y1140460D01*
X1343660D01*
X1371600Y1168400D01*
X1270000Y1168654D02*
X1305814Y1132840D01*
X1348740D01*
X1358646Y1142746D01*
X1270000Y1143000D02*
X1287780Y1125220D01*
X1427480D01*
X1460500Y1092200D01*
X406400Y1211580D02*
X411480Y1206500D01*
X386080Y1211580D02*
X406400D01*
X381000Y1206500D02*
X386080Y1211580D01*
X393700Y1219200D02*
X1041400D01*
X388620Y1224280D02*
X393700Y1219200D01*
X368300Y1216660D02*
X375920Y1224280D01*
X388620D01*
X368300Y1193800D02*
Y1216660D01*
X355600Y1206500D02*
X368300Y1193800D01*
X330200Y1206500D02*
X355600D01*
X965200Y1130300D02*
X1117600D01*
X1130300Y1117600D01*
X939800Y1092200D02*
X965200Y1117600D01*
X990600Y1092200D02*
X1003300Y1104900D01*
X1054100Y1041400D02*
X1066800Y1028700D01*
X1003300Y1104900D02*
X1079500D01*
X965200Y1117600D02*
X1104900D01*
X736600Y812800D02*
X749300Y825500D01*
X622300Y812800D02*
X736600D01*
X635000Y787400D02*
X787400D01*
X711200Y863600D02*
X762000D01*
X749300Y800100D02*
X800100D01*
X762000Y939800D02*
X774700Y927100D01*
X1016000Y1193800D02*
X1143000D01*
X1092200Y1092200D02*
X1104900Y1104900D01*
X1219200D01*
X660400Y1079500D02*
X1219200D01*
X647700Y1066800D02*
X1003300D01*
X711200Y990600D02*
X812800D01*
X723900Y1003300D02*
X825500D01*
X622300Y1016000D02*
X635000Y1028700D01*
X838200D01*
X622300Y977900D02*
Y1016000D01*
X635000Y952500D02*
X800100D01*
X635000Y1168400D02*
X1143000D01*
X1168400Y1193800D01*
X1574800D01*
X2159000Y1247143D02*
Y1257300D01*
X2148843Y1247143D01*
X2146304D01*
X2143765Y1249682D01*
Y1254761D01*
X2146304Y1257300D01*
Y1242065D02*
X2143765Y1239526D01*
Y1234447D01*
X2146304Y1231908D01*
X2156461D01*
X2159000Y1234447D01*
Y1239526D01*
X2156461Y1242065D01*
X2146304D01*
X2159000Y1226830D02*
Y1221751D01*
Y1224291D01*
X2143765D01*
X2146304Y1226830D01*
X2156461Y1214134D02*
X2159000Y1211595D01*
Y1206516D01*
X2156461Y1203977D01*
X2146304D01*
X2143765Y1206516D01*
Y1211595D01*
X2146304Y1214134D01*
X2148843D01*
X2151382Y1211595D01*
Y1203977D01*
X2159000Y1183664D02*
X2143765D01*
Y1176046D01*
X2146304Y1173507D01*
X2151382D01*
X2153922Y1176046D01*
Y1183664D01*
X2146304Y1158272D02*
X2143765Y1160811D01*
Y1165890D01*
X2146304Y1168429D01*
X2156461D01*
X2159000Y1165890D01*
Y1160811D01*
X2156461Y1158272D01*
X2143765Y1153194D02*
X2159000D01*
Y1145576D01*
X2156461Y1143037D01*
X2153922D01*
X2151382Y1145576D01*
Y1153194D01*
Y1145576D01*
X2148843Y1143037D01*
X2146304D01*
X2143765Y1145576D01*
Y1153194D01*
X2095504Y1259843D02*
X2092965Y1262383D01*
Y1267461D01*
X2095504Y1270000D01*
X2105661D01*
X2108200Y1267461D01*
Y1262383D01*
X2105661Y1259843D01*
X2100582D01*
Y1264922D01*
X2098043Y1252226D02*
Y1247147D01*
X2100582Y1244608D01*
X2108200D01*
Y1252226D01*
X2105661Y1254765D01*
X2103122Y1252226D01*
Y1244608D01*
X2108200Y1239530D02*
Y1234452D01*
Y1236991D01*
X2092965D01*
Y1239530D01*
X2098043Y1224295D02*
Y1219216D01*
X2100582Y1216677D01*
X2108200D01*
Y1224295D01*
X2105661Y1226834D01*
X2103122Y1224295D01*
Y1216677D01*
X2108200Y1211599D02*
X2092965D01*
X2103122D02*
X2098043Y1203981D01*
X2103122Y1211599D02*
X2108200Y1203981D01*
Y1196364D02*
Y1188746D01*
X2105661Y1186207D01*
X2103122Y1188746D01*
Y1193825D01*
X2100582Y1196364D01*
X2098043Y1193825D01*
Y1186207D01*
X2108200Y1181129D02*
Y1176050D01*
Y1178590D01*
X2098043D01*
Y1181129D01*
X2113278Y1168433D02*
Y1165894D01*
X2110739Y1163354D01*
X2098043D01*
Y1150659D02*
Y1145580D01*
X2100582Y1143041D01*
X2108200D01*
Y1150659D01*
X2105661Y1153198D01*
X2103122Y1150659D01*
Y1143041D01*
X2118365Y1247140D02*
X2133600D01*
Y1239522D01*
X2131061Y1236983D01*
X2128522D01*
X2125983D01*
X2123443Y1239522D01*
Y1247140D01*
Y1231905D02*
X2131061D01*
X2133600Y1229366D01*
Y1221748D01*
X2136139D01*
X2138678Y1224287D01*
Y1226827D01*
X2133600Y1221748D02*
X2123443D01*
X2133600Y1201435D02*
X2118365D01*
Y1193817D01*
X2120904Y1191278D01*
X2125983D01*
X2128522Y1193817D01*
Y1201435D01*
X2118365Y1186200D02*
X2128522D01*
X2133600Y1181121D01*
X2128522Y1176043D01*
X2118365D01*
Y1170965D02*
X2128522D01*
X2133600Y1165886D01*
X2128522Y1160808D01*
X2118365D01*
X2169165Y1257300D02*
X2184400D01*
Y1249682D01*
X2181861Y1247143D01*
X2179322D01*
X2176783D01*
X2174243Y1249682D01*
Y1257300D01*
Y1242065D02*
X2181861D01*
X2184400Y1239526D01*
Y1231908D01*
X2186939D01*
X2189478Y1234447D01*
Y1236987D01*
X2184400Y1231908D02*
X2174243D01*
X2169165Y1201438D02*
Y1211595D01*
X2176783D01*
Y1206516D01*
Y1211595D01*
X2184400D01*
Y1196360D02*
Y1191281D01*
Y1193820D01*
X2174243D01*
Y1196360D01*
X2184400Y1181125D02*
X2171704D01*
X2176783D01*
Y1183664D01*
Y1178586D01*
Y1181125D01*
X2171704D01*
X2169165Y1178586D01*
X2174243Y1168429D02*
Y1163350D01*
X2176783Y1160811D01*
X2184400D01*
Y1168429D01*
X2181861Y1170968D01*
X2179322Y1168429D01*
Y1160811D01*
X2184400Y1155733D02*
X2174243D01*
Y1148115D01*
X2176783Y1145576D01*
X2184400D01*
D13*
X533400Y1155700D02*
X660400D01*
X518000Y1140300D02*
X533400Y1155700D01*
X431800Y1140300D02*
X518000D01*
X609600Y1298100D02*
X678340D01*
X533400D02*
X609600D01*
X596900Y1346200D02*
X1143000D01*
X568800Y1318100D02*
X596900Y1346200D01*
X533400Y1318100D02*
X568800D01*
X1917700Y1282700D02*
X1943100Y1308100D01*
X1854200Y1282700D02*
X1917700D01*
X1752600Y1181100D02*
X1854200Y1282700D01*
X1663700Y1181100D02*
X1752600D01*
X1638300Y1155700D02*
X1663700Y1181100D01*
X1790700Y1308100D02*
X1917700D01*
X1943100Y1333500D01*
X2057400D01*
X2082800Y1308100D01*
X2184400Y889000D02*
Y1028954D01*
X1625600Y1066800D02*
X1778000D01*
X1485900Y914400D02*
X1803400D01*
X2032000Y812800D02*
X2082800Y762000D01*
X1981200Y812800D02*
X2032000D01*
X1828800D02*
X1981200D01*
X1193800Y1155700D02*
X1231900Y1117600D01*
X952500Y1155700D02*
X1092200D01*
X660400D02*
X952500D01*
X1282700Y1066800D02*
X1308100Y1092200D01*
X1257300Y1066800D02*
X1282700D01*
Y812800D02*
X1308100Y838200D01*
X1257300Y812800D02*
X1282700D01*
X1191260Y683260D02*
X1206246D01*
X1181100Y673100D02*
X1191260Y683260D01*
X736600Y673100D02*
X1181100D01*
X1206500Y660400D02*
X1282700D01*
X1193800Y647700D02*
X1206500Y660400D01*
X1117600Y647700D02*
X1193800D01*
X1254760Y683260D02*
X1282700Y711200D01*
X1206246Y683260D02*
X1254760D01*
X1270000Y406400D02*
X1435100D01*
X1244600Y381000D02*
X1270000Y406400D01*
X1117600Y381000D02*
X1244600D01*
X1701800Y939800D02*
X1778000D01*
X1676400Y965200D02*
X1701800Y939800D01*
X1358900D02*
X1625600D01*
X1333500D02*
X1358900D01*
X1092200Y1155700D02*
X1193800D01*
X939800Y647700D02*
X1117600D01*
X736600D02*
X939800D01*
X1778000Y939800D02*
X1879600D01*
X1778000D02*
Y965200D01*
X2184400Y762000D02*
Y889000D01*
X2082800D02*
X2184400D01*
X1435100Y406400D02*
X1460500Y381000D01*
X2019300Y317500D02*
X2082800Y381000D01*
X673100Y317500D02*
X2019300D01*
X398780Y1160780D02*
X449834D01*
X381000Y1143000D02*
X398780Y1160780D01*
X449834D02*
X469900Y1180846D01*
X2184400Y609600D02*
Y635000D01*
X2082800Y508000D02*
X2184400Y609600D01*
X342900Y406400D02*
X431800Y317500D01*
X673100D01*
X1282700Y660400D02*
X1435100D01*
X1805940Y835660D02*
X1828800Y812800D01*
X1699260Y835660D02*
X1805940D01*
X1676400Y812800D02*
X1699260Y835660D01*
X330200Y1143000D02*
X381000D01*
X292100Y1181100D02*
X330200Y1143000D01*
X292100Y1181100D02*
Y1277620D01*
X318516Y1304036D01*
X518000Y1333500D02*
X533400Y1318100D01*
X1790700Y1257046D02*
Y1308100D01*
X1765554Y1333246D02*
X1790700Y1308100D01*
X1702054Y1333246D02*
X1765554D01*
X1803400Y406400D02*
X1828800Y381000D01*
X1485900Y406400D02*
X1803400D01*
X1460500Y381000D02*
X1485900Y406400D01*
X1308100Y431800D02*
X1651000D01*
X1625600Y558800D02*
X1727200D01*
X292100Y1054100D02*
X381000Y1143000D01*
X1346200Y1333500D02*
X1524000D01*
X1168400Y1320800D02*
X1181100Y1333500D01*
X1524254Y1333246D02*
X1702054D01*
X406654Y863600D02*
X444500D01*
X470154Y1181100D02*
X660400D01*
X1701800Y431800D02*
X1879600D01*
X1803400Y914400D02*
X1828800Y889000D01*
X1308100Y558800D02*
X1574800D01*
X1676400Y457200D02*
X1701800Y431800D01*
X1879600D02*
X1905000D01*
X1930400Y457200D01*
X2057400Y406400D02*
X2082800Y381000D01*
X1879600Y406400D02*
X2057400D01*
X1854200D02*
X1879600D01*
X1828800Y381000D02*
X1854200Y406400D01*
X1651000Y431800D02*
X1676400Y457200D01*
X1574800Y558800D02*
X1600200Y584200D01*
X1282700D02*
X1308100Y558800D01*
X1257300D02*
X1282700Y584200D01*
X1231900Y558800D02*
X1257300D01*
X1282700Y457200D02*
X1308100Y431800D01*
X1752600Y584200D02*
X1828800D01*
X1600200D02*
X1625600Y558800D01*
X1460500Y1016000D02*
X1485900Y1041400D01*
X1435100Y660400D02*
X1460500Y635000D01*
X647700Y584200D02*
X787400D01*
X622300Y558800D02*
X647700Y584200D01*
X317500D02*
X393700D01*
X1143000Y1346200D02*
X1168400Y1320800D01*
X1663700Y1155700D02*
X1701800D01*
X1727200D02*
X1765300D01*
X1790700Y1181100D01*
X1988820D01*
X342900Y431800D02*
X368300D01*
X393700Y457200D01*
X292100D02*
X342900Y406400D01*
X292100Y762000D02*
X342900D01*
Y787400D02*
X368300D01*
X393700Y812800D01*
Y457200D02*
X419100Y431800D01*
X571500D01*
X622300Y381000D01*
X292100Y457200D02*
Y533400D01*
Y762000D02*
Y1054100D01*
X1308100Y965200D02*
X1333500Y939800D01*
X1308100Y1092200D02*
X1333500Y1066800D01*
X418846Y1273810D02*
X509110D01*
X533400Y1298100D01*
X2057400Y914400D02*
X2082800Y889000D01*
X1828800D02*
X1854200Y914400D01*
X1879600D01*
X2057400D01*
X1485900Y1041400D02*
X1625600D01*
X1752600D01*
X1727200Y558800D02*
X1752600Y584200D01*
X1828800D02*
X1930400D01*
X2082800Y635000D02*
X2184400D01*
X2082800Y762000D02*
X2184400D01*
Y635000D02*
Y762000D01*
X2082800Y1130554D02*
Y1308100D01*
X1752854Y1219200D02*
X1790700Y1257046D01*
X1333500Y1066800D02*
X1511300D01*
X1625600D01*
X292100Y533400D02*
Y762000D01*
X393700Y584200D02*
X419100Y558800D01*
X622300D01*
X1181100Y1333500D02*
X1346200D01*
X2082800Y381000D02*
X2108200Y406400D01*
X2082800Y508000D02*
X2108200Y482600D01*
Y406400D02*
Y482600D01*
X2082800Y1130554D02*
X2184400Y1028954D01*
X1651000Y939800D02*
X1676400Y965200D01*
X1625600Y939800D02*
X1651000D01*
X1257300Y787400D02*
X1435100D01*
X1460500Y762000D01*
X318516Y1304036D02*
X372364D01*
X401828Y1333500D01*
X419100D01*
X518000D01*
X701040Y1320800D02*
X762000D01*
X678340Y1298100D02*
X701040Y1320800D01*
D14*
X1968500Y1308100D02*
D03*
X1993900D02*
D03*
X2019300D02*
D03*
X1943100D02*
D03*
X1917700D02*
D03*
X685800Y863600D02*
D03*
Y889000D02*
D03*
Y914400D02*
D03*
Y939800D02*
D03*
Y1016000D02*
D03*
Y990600D02*
D03*
Y965200D02*
D03*
X330200Y1041400D02*
D03*
Y1016000D02*
D03*
Y990600D02*
D03*
Y965200D02*
D03*
Y889000D02*
D03*
Y914400D02*
D03*
Y939800D02*
D03*
X1231900Y1282700D02*
D03*
Y1308100D02*
D03*
X635000Y1320800D02*
D03*
D15*
X2044700Y1308100D02*
D03*
X609600Y1320800D02*
D03*
D16*
X381000Y1066800D02*
D03*
X1536700Y711200D02*
D03*
X1511046D02*
D03*
X1625600Y1041400D02*
D03*
Y1066800D02*
D03*
X1066800Y1054100D02*
D03*
X469900Y622300D02*
D03*
Y647700D02*
D03*
X546100Y622300D02*
D03*
Y647700D02*
D03*
X1625600Y533400D02*
D03*
X1651000D02*
D03*
X1536700Y1219200D02*
D03*
X1511300D02*
D03*
X1879600Y939800D02*
D03*
Y914400D02*
D03*
Y685800D02*
D03*
Y660400D02*
D03*
X469900Y1092200D02*
D03*
X495300D02*
D03*
X1879600Y431800D02*
D03*
Y406400D02*
D03*
X1257300Y1066800D02*
D03*
Y1041400D02*
D03*
X1587500Y457200D02*
D03*
X1562100D02*
D03*
X1257300Y812800D02*
D03*
Y787400D02*
D03*
X1828800Y495300D02*
D03*
X1803400D02*
D03*
X1231900Y558800D02*
D03*
Y533400D02*
D03*
X736600Y673100D02*
D03*
Y647700D02*
D03*
X660400Y1155700D02*
D03*
Y1181100D02*
D03*
X1536700Y635000D02*
D03*
X1511300D02*
D03*
X1790700Y1155700D02*
D03*
X1765300D02*
D03*
X1066800Y1295400D02*
D03*
Y1320800D02*
D03*
X1041400Y1295400D02*
D03*
Y1320800D02*
D03*
X1016000Y1295400D02*
D03*
Y1320800D02*
D03*
X990600Y1295400D02*
D03*
Y1320800D02*
D03*
X762000D02*
D03*
X889000Y1295400D02*
D03*
Y1320800D02*
D03*
X1168400Y1295400D02*
D03*
Y1320800D02*
D03*
X787400Y1295400D02*
D03*
Y1320800D02*
D03*
X812800Y1295400D02*
D03*
Y1320800D02*
D03*
X838200Y1295400D02*
D03*
Y1320800D02*
D03*
X863600Y1295400D02*
D03*
Y1320800D02*
D03*
X1143000Y1295400D02*
D03*
Y1320800D02*
D03*
X1117600Y1295400D02*
D03*
Y1320800D02*
D03*
X914400Y1295400D02*
D03*
Y1320800D02*
D03*
X1092200Y1295400D02*
D03*
Y1320800D02*
D03*
X965200Y1295400D02*
D03*
Y1320800D02*
D03*
X939800Y1295400D02*
D03*
Y1320800D02*
D03*
X1727200Y1155700D02*
D03*
X1701800D02*
D03*
X1663700D02*
D03*
X1638300D02*
D03*
X381000Y1117600D02*
D03*
Y1143000D02*
D03*
X1231900Y635000D02*
D03*
X1206500D02*
D03*
X1320800Y1219200D02*
D03*
Y1244600D02*
D03*
X1651000Y1219200D02*
D03*
Y1244854D02*
D03*
X1752600Y1244600D02*
D03*
Y1218946D02*
D03*
X1701800Y1219200D02*
D03*
Y1244854D02*
D03*
X1511300Y1066800D02*
D03*
Y1092454D02*
D03*
X660400Y1104646D02*
D03*
Y1130300D02*
D03*
X1574800Y1142746D02*
D03*
Y1168400D02*
D03*
X1473200Y1168654D02*
D03*
Y1143000D02*
D03*
X571500Y698500D02*
D03*
Y672846D02*
D03*
X520700Y698500D02*
D03*
Y672846D02*
D03*
X444500Y698500D02*
D03*
Y672846D02*
D03*
X393700Y698500D02*
D03*
Y672846D02*
D03*
X1168400Y1054100D02*
D03*
Y1028446D02*
D03*
X380746Y990600D02*
D03*
X406400D02*
D03*
X381000Y965200D02*
D03*
X406654D02*
D03*
X380746Y1016000D02*
D03*
X406400D02*
D03*
X380746Y939800D02*
D03*
X406400D02*
D03*
X380746Y914400D02*
D03*
X406400D02*
D03*
X1727200Y495300D02*
D03*
X1752854D02*
D03*
X1676654D02*
D03*
X1651000D02*
D03*
X381000Y1041400D02*
D03*
X406654D02*
D03*
X381000Y863600D02*
D03*
X406654D02*
D03*
X380746Y889000D02*
D03*
X406400D02*
D03*
X990600Y1028446D02*
D03*
Y1054100D02*
D03*
X571500Y1079500D02*
D03*
Y1105154D02*
D03*
X939800Y1028446D02*
D03*
Y1054100D02*
D03*
X914400Y1028446D02*
D03*
Y1054100D02*
D03*
X863600Y1028446D02*
D03*
Y1054100D02*
D03*
X889000Y1028446D02*
D03*
Y1054100D02*
D03*
X965200Y1028446D02*
D03*
Y1054100D02*
D03*
X1041400Y1028446D02*
D03*
Y1054100D02*
D03*
X1016000Y1028446D02*
D03*
Y1054100D02*
D03*
X2082800Y1041400D02*
D03*
Y1067054D02*
D03*
Y1104900D02*
D03*
Y1130554D02*
D03*
X2006600Y1041400D02*
D03*
Y1067054D02*
D03*
Y1104900D02*
D03*
Y1130554D02*
D03*
X1930400Y1041400D02*
D03*
Y1067054D02*
D03*
Y1104900D02*
D03*
Y1130554D02*
D03*
X469900Y1180846D02*
D03*
Y1206500D02*
D03*
X431800Y1180846D02*
D03*
Y1206500D02*
D03*
X1270000Y1244854D02*
D03*
Y1219200D02*
D03*
X1231900Y698500D02*
D03*
X1206246D02*
D03*
X330200Y1180846D02*
D03*
Y1206500D02*
D03*
X1422400Y1219200D02*
D03*
Y1244854D02*
D03*
Y1142746D02*
D03*
Y1168400D02*
D03*
X1231900Y1143000D02*
D03*
Y1168654D02*
D03*
X1270000Y1143000D02*
D03*
Y1168654D02*
D03*
X1371600Y1142746D02*
D03*
Y1168400D02*
D03*
X342900Y787400D02*
D03*
Y762000D02*
D03*
Y431800D02*
D03*
Y406400D02*
D03*
X1739900Y520700D02*
D03*
D17*
X685800Y1041400D02*
D03*
X330200Y863600D02*
D03*
X1231900Y1257300D02*
D03*
D18*
X533400Y1318100D02*
D03*
X1117600Y1028860D02*
D03*
X431800Y1120300D02*
D03*
X1371600Y1219360D02*
D03*
D19*
X533400Y1298100D02*
D03*
X1117600Y1048860D02*
D03*
X431800Y1140300D02*
D03*
X1371600Y1239360D02*
D03*
D20*
X1117600Y939800D02*
D03*
X1092200D02*
D03*
X1066800D02*
D03*
X1041400D02*
D03*
X1016000D02*
D03*
X990600D02*
D03*
X965200D02*
D03*
X939800D02*
D03*
X914400D02*
D03*
X889000D02*
D03*
X863600D02*
D03*
X838200D02*
D03*
X812800D02*
D03*
X787400D02*
D03*
X1117600Y787400D02*
D03*
X1092200D02*
D03*
X1066800D02*
D03*
X1041400D02*
D03*
X1016000D02*
D03*
X990600D02*
D03*
X965200D02*
D03*
X939800D02*
D03*
X914400D02*
D03*
X889000D02*
D03*
X863600D02*
D03*
X838200D02*
D03*
X812800D02*
D03*
X546100Y584200D02*
D03*
X520700D02*
D03*
X495300D02*
D03*
X469900D02*
D03*
X444500D02*
D03*
X419100D02*
D03*
X393700D02*
D03*
X546100Y508000D02*
D03*
X520700D02*
D03*
X495300D02*
D03*
X469900D02*
D03*
X444500D02*
D03*
X419100D02*
D03*
X1676400Y609600D02*
D03*
Y635000D02*
D03*
Y660400D02*
D03*
Y685800D02*
D03*
Y711200D02*
D03*
Y736600D02*
D03*
Y762000D02*
D03*
Y787400D02*
D03*
Y812800D02*
D03*
X1600200Y584200D02*
D03*
Y609600D02*
D03*
Y635000D02*
D03*
Y660400D02*
D03*
Y685800D02*
D03*
Y711200D02*
D03*
Y736600D02*
D03*
Y762000D02*
D03*
Y787400D02*
D03*
Y812800D02*
D03*
X546100Y457200D02*
D03*
X520700D02*
D03*
X495300D02*
D03*
X469900D02*
D03*
X444500D02*
D03*
X419100D02*
D03*
X393700D02*
D03*
X546100Y381000D02*
D03*
X520700D02*
D03*
X495300D02*
D03*
X469900D02*
D03*
X444500D02*
D03*
X419100D02*
D03*
X1460500Y838200D02*
D03*
X1435100D02*
D03*
X1409700D02*
D03*
X1384300D02*
D03*
X1358900D02*
D03*
X1333500D02*
D03*
X1308100D02*
D03*
X1460500Y762000D02*
D03*
X1435100D02*
D03*
X1409700D02*
D03*
X1384300D02*
D03*
X1358900D02*
D03*
X1333500D02*
D03*
X571500Y812800D02*
D03*
X546100D02*
D03*
X520700D02*
D03*
X495300D02*
D03*
X469900D02*
D03*
X444500D02*
D03*
X419100D02*
D03*
X393700D02*
D03*
X571500Y736600D02*
D03*
X546100D02*
D03*
X520700D02*
D03*
X495300D02*
D03*
X469900D02*
D03*
X444500D02*
D03*
X419100D02*
D03*
X444500Y1041400D02*
D03*
Y1016000D02*
D03*
Y990600D02*
D03*
Y965200D02*
D03*
Y939800D02*
D03*
Y914400D02*
D03*
Y889000D02*
D03*
Y863600D02*
D03*
X520700Y1041400D02*
D03*
Y1016000D02*
D03*
Y990600D02*
D03*
Y965200D02*
D03*
Y939800D02*
D03*
Y914400D02*
D03*
Y889000D02*
D03*
X1828800Y457200D02*
D03*
X1803400D02*
D03*
X1778000D02*
D03*
X1752600D02*
D03*
X1727200D02*
D03*
X1701800D02*
D03*
X1676400D02*
D03*
X1828800Y381000D02*
D03*
X1803400D02*
D03*
X1778000D02*
D03*
X1752600D02*
D03*
X1727200D02*
D03*
X1701800D02*
D03*
X1193800Y1244600D02*
D03*
X1168400D02*
D03*
X1143000D02*
D03*
X1117600D02*
D03*
X1092200D02*
D03*
X1066800D02*
D03*
X1041400D02*
D03*
X1016000D02*
D03*
X990600D02*
D03*
X965200D02*
D03*
X939800D02*
D03*
X914400D02*
D03*
X889000D02*
D03*
X863600D02*
D03*
X838200D02*
D03*
X812800D02*
D03*
X787400D02*
D03*
X762000D02*
D03*
X736600D02*
D03*
X711200D02*
D03*
X1193800Y1092200D02*
D03*
X1168400D02*
D03*
X1143000D02*
D03*
X1117600D02*
D03*
X1092200D02*
D03*
X1066800D02*
D03*
X1041400D02*
D03*
X1016000D02*
D03*
X990600D02*
D03*
X965200D02*
D03*
X939800D02*
D03*
X914400D02*
D03*
X889000D02*
D03*
X863600D02*
D03*
X838200D02*
D03*
X812800D02*
D03*
X787400D02*
D03*
X762000D02*
D03*
X736600D02*
D03*
X571500Y1041400D02*
D03*
Y1016000D02*
D03*
Y990600D02*
D03*
Y965200D02*
D03*
Y939800D02*
D03*
Y914400D02*
D03*
Y889000D02*
D03*
Y863600D02*
D03*
X647700Y1041400D02*
D03*
Y1016000D02*
D03*
Y990600D02*
D03*
Y965200D02*
D03*
Y939800D02*
D03*
Y914400D02*
D03*
Y889000D02*
D03*
X2082800Y584200D02*
D03*
X2057400D02*
D03*
X2032000D02*
D03*
X2006600D02*
D03*
X1981200D02*
D03*
X1955800D02*
D03*
X1930400D02*
D03*
X2082800Y508000D02*
D03*
X2057400D02*
D03*
X2032000D02*
D03*
X2006600D02*
D03*
X1981200D02*
D03*
X1955800D02*
D03*
X2082800Y457200D02*
D03*
X2057400D02*
D03*
X2032000D02*
D03*
X2006600D02*
D03*
X1981200D02*
D03*
X1955800D02*
D03*
X1930400D02*
D03*
X2082800Y381000D02*
D03*
X2057400D02*
D03*
X2032000D02*
D03*
X2006600D02*
D03*
X1981200D02*
D03*
X1955800D02*
D03*
X2082800Y965200D02*
D03*
X2057400D02*
D03*
X2032000D02*
D03*
X2006600D02*
D03*
X1981200D02*
D03*
X1955800D02*
D03*
X1930400D02*
D03*
X2082800Y889000D02*
D03*
X2057400D02*
D03*
X2032000D02*
D03*
X2006600D02*
D03*
X1981200D02*
D03*
X1955800D02*
D03*
X1828800Y609600D02*
D03*
Y635000D02*
D03*
Y660400D02*
D03*
Y685800D02*
D03*
Y711200D02*
D03*
Y736600D02*
D03*
Y762000D02*
D03*
Y787400D02*
D03*
Y812800D02*
D03*
X1752600Y584200D02*
D03*
Y609600D02*
D03*
Y635000D02*
D03*
Y660400D02*
D03*
Y685800D02*
D03*
Y711200D02*
D03*
Y736600D02*
D03*
Y762000D02*
D03*
Y787400D02*
D03*
Y812800D02*
D03*
X2082800Y838200D02*
D03*
X2057400D02*
D03*
X2032000D02*
D03*
X2006600D02*
D03*
X1981200D02*
D03*
X1955800D02*
D03*
X1930400D02*
D03*
X2082800Y762000D02*
D03*
X2057400D02*
D03*
X2032000D02*
D03*
X2006600D02*
D03*
X1981200D02*
D03*
X1955800D02*
D03*
X2082800Y711200D02*
D03*
X2057400D02*
D03*
X2032000D02*
D03*
X2006600D02*
D03*
X1981200D02*
D03*
X1955800D02*
D03*
X1930400D02*
D03*
X2082800Y635000D02*
D03*
X2057400D02*
D03*
X2032000D02*
D03*
X2006600D02*
D03*
X1981200D02*
D03*
X1955800D02*
D03*
X1828800Y965200D02*
D03*
X1803400D02*
D03*
X1778000D02*
D03*
X1752600D02*
D03*
X1727200D02*
D03*
X1701800D02*
D03*
X1676400D02*
D03*
X1828800Y889000D02*
D03*
X1803400D02*
D03*
X1778000D02*
D03*
X1752600D02*
D03*
X1727200D02*
D03*
X1701800D02*
D03*
X1460500Y584200D02*
D03*
X1435100D02*
D03*
X1409700D02*
D03*
X1384300D02*
D03*
X1358900D02*
D03*
X1333500D02*
D03*
X1308100D02*
D03*
X1282700D02*
D03*
X1460500Y508000D02*
D03*
X1435100D02*
D03*
X1409700D02*
D03*
X1384300D02*
D03*
X1358900D02*
D03*
X1333500D02*
D03*
X1308100D02*
D03*
X1828800Y1092200D02*
D03*
X1803400D02*
D03*
X1778000D02*
D03*
X1752600D02*
D03*
X1727200D02*
D03*
X1701800D02*
D03*
X1676400D02*
D03*
X1828800Y1016000D02*
D03*
X1803400D02*
D03*
X1778000D02*
D03*
X1752600D02*
D03*
X1727200D02*
D03*
X1701800D02*
D03*
X1460500Y965200D02*
D03*
X1435100D02*
D03*
X1409700D02*
D03*
X1384300D02*
D03*
X1358900D02*
D03*
X1333500D02*
D03*
X1308100D02*
D03*
X1460500Y889000D02*
D03*
X1435100D02*
D03*
X1409700D02*
D03*
X1384300D02*
D03*
X1358900D02*
D03*
X1333500D02*
D03*
X1460500Y1092200D02*
D03*
X1435100D02*
D03*
X1409700D02*
D03*
X1384300D02*
D03*
X1358900D02*
D03*
X1333500D02*
D03*
X1308100D02*
D03*
X1460500Y1016000D02*
D03*
X1435100D02*
D03*
X1409700D02*
D03*
X1384300D02*
D03*
X1358900D02*
D03*
X1333500D02*
D03*
X1460500Y711200D02*
D03*
X1435100D02*
D03*
X1409700D02*
D03*
X1384300D02*
D03*
X1358900D02*
D03*
X1333500D02*
D03*
X1308100D02*
D03*
X1282700D02*
D03*
X1460500Y635000D02*
D03*
X1435100D02*
D03*
X1409700D02*
D03*
X1384300D02*
D03*
X1358900D02*
D03*
X1333500D02*
D03*
X1308100D02*
D03*
X1460500Y457200D02*
D03*
X1435100D02*
D03*
X1409700D02*
D03*
X1384300D02*
D03*
X1358900D02*
D03*
X1333500D02*
D03*
X1308100D02*
D03*
X1282700D02*
D03*
X1460500Y381000D02*
D03*
X1435100D02*
D03*
X1409700D02*
D03*
X1384300D02*
D03*
X1358900D02*
D03*
X1333500D02*
D03*
X1308100D02*
D03*
X622300Y558800D02*
D03*
Y533400D02*
D03*
Y508000D02*
D03*
Y482600D02*
D03*
Y457200D02*
D03*
Y431800D02*
D03*
Y406400D02*
D03*
Y381000D02*
D03*
X698500Y558800D02*
D03*
Y533400D02*
D03*
Y508000D02*
D03*
Y482600D02*
D03*
Y457200D02*
D03*
Y431800D02*
D03*
Y406400D02*
D03*
X812800Y584200D02*
D03*
X838200D02*
D03*
X863600D02*
D03*
X889000D02*
D03*
X914400D02*
D03*
X939800D02*
D03*
X965200D02*
D03*
X990600D02*
D03*
X1016000D02*
D03*
X1041400D02*
D03*
X1066800D02*
D03*
X1092200D02*
D03*
X1117600D02*
D03*
X787400Y736600D02*
D03*
X812800D02*
D03*
X838200D02*
D03*
X863600D02*
D03*
X889000D02*
D03*
X914400D02*
D03*
X939800D02*
D03*
X965200D02*
D03*
X990600D02*
D03*
X1016000D02*
D03*
X1041400D02*
D03*
X1066800D02*
D03*
X1092200D02*
D03*
X1117600D02*
D03*
X812800Y381000D02*
D03*
X838200D02*
D03*
X863600D02*
D03*
X889000D02*
D03*
X914400D02*
D03*
X939800D02*
D03*
X965200D02*
D03*
X990600D02*
D03*
X1016000D02*
D03*
X1041400D02*
D03*
X1066800D02*
D03*
X1092200D02*
D03*
X1117600D02*
D03*
X787400Y533400D02*
D03*
X812800D02*
D03*
X838200D02*
D03*
X863600D02*
D03*
X889000D02*
D03*
X914400D02*
D03*
X939800D02*
D03*
X965200D02*
D03*
X990600D02*
D03*
X1016000D02*
D03*
X1041400D02*
D03*
X1066800D02*
D03*
X1092200D02*
D03*
X1117600D02*
D03*
D21*
X787400Y787400D02*
D03*
X393700Y508000D02*
D03*
Y381000D02*
D03*
X1308100Y762000D02*
D03*
X393700Y736600D02*
D03*
X1676400Y381000D02*
D03*
X711200Y1092200D02*
D03*
X1930400Y508000D02*
D03*
Y381000D02*
D03*
Y889000D02*
D03*
Y762000D02*
D03*
Y635000D02*
D03*
X1676400Y889000D02*
D03*
X1282700Y508000D02*
D03*
X1676400Y1016000D02*
D03*
X1308100Y889000D02*
D03*
Y1016000D02*
D03*
X1282700Y635000D02*
D03*
Y381000D02*
D03*
X787400Y584200D02*
D03*
Y381000D02*
D03*
D22*
X1647190Y1285240D02*
D03*
X1756664Y1284986D02*
D03*
X1469390Y1285240D02*
D03*
X1578864Y1284986D02*
D03*
X419100Y1333500D02*
D03*
X372364Y1304036D02*
D03*
X1291336Y1285494D02*
D03*
X1400810Y1285240D02*
D03*
D23*
X1701800Y1282700D02*
D03*
X1524000D02*
D03*
X1345946Y1282954D02*
D03*
D24*
X1702054Y1333246D02*
D03*
X1524254D02*
D03*
X418846Y1273810D02*
D03*
X1346200Y1333500D02*
D03*
D25*
X1676400Y584200D02*
D03*
X520700Y863600D02*
D03*
X647700D02*
D03*
X1828800Y584200D02*
D03*
X698500Y381000D02*
D03*
D26*
X1599200D02*
D03*
X1550400D02*
D03*
D27*
X762000Y1295400D02*
D03*
D28*
X1536700Y1155700D02*
D03*
X1511300D02*
D03*
X1333500D02*
D03*
X1308100D02*
D03*
X393700Y1193800D02*
D03*
X368300D02*
D03*
D29*
X1524000Y1168400D02*
D03*
X1320800D02*
D03*
X381000Y1206500D02*
D03*
D30*
X533400Y1155700D02*
D03*
X685800Y1193800D02*
D03*
X1955800Y1143000D02*
D03*
X1524000Y812800D02*
D03*
X1778000Y1066800D02*
D03*
X1739900Y774700D02*
D03*
X1701800Y927100D02*
D03*
X1854200Y546100D02*
D03*
Y1041400D02*
D03*
X1841500Y1104900D02*
D03*
X2146300Y863600D02*
D03*
X2159000Y850900D02*
D03*
X2082800Y812800D02*
D03*
X2019300Y825500D02*
D03*
X2044700Y723900D02*
D03*
X1765300Y533400D02*
D03*
X1854200Y850900D02*
D03*
X1892300Y469900D02*
D03*
X2133600Y609600D02*
D03*
X2146300Y596900D02*
D03*
X1930400Y736600D02*
D03*
X1816100Y698500D02*
D03*
X2108200Y749300D02*
D03*
X850900Y1003300D02*
D03*
X1244600Y1079500D02*
D03*
X1231900Y1054100D02*
D03*
Y914400D02*
D03*
X990600Y1003300D02*
D03*
X800100Y1016000D02*
D03*
X1231900Y1117600D02*
D03*
X774700Y850900D02*
D03*
X762000Y812800D02*
D03*
X977900Y1143000D02*
D03*
X952500Y1155700D02*
D03*
X1054100Y1206500D02*
D03*
X1168400Y850900D02*
D03*
X1155700Y876300D02*
D03*
X431800Y1066800D02*
D03*
X495300Y1028700D02*
D03*
X596900Y685800D02*
D03*
X1397000Y368300D02*
D03*
X939800Y1130300D02*
D03*
X901700Y1181100D02*
D03*
X1079500D02*
D03*
X990600Y1193800D02*
D03*
X1143000Y419100D02*
D03*
Y774700D02*
D03*
X1282700Y889000D02*
D03*
X1320800Y927100D02*
D03*
X1498600Y901700D02*
D03*
X1485900Y914400D02*
D03*
X1612900Y952500D02*
D03*
X1358900Y939800D02*
D03*
X1676400Y863600D02*
D03*
X1638300Y825500D02*
D03*
X1219200Y1231900D02*
D03*
Y1104900D02*
D03*
X1206500Y723900D02*
D03*
X1092200Y1155700D02*
D03*
X876300Y1333500D02*
D03*
X1117600Y647700D02*
D03*
X939800D02*
D03*
X1587500Y1130300D02*
D03*
X1866900D02*
D03*
X1587500Y1231900D02*
D03*
X1155700Y711200D02*
D03*
X1028700Y901700D02*
D03*
X1193800Y927100D02*
D03*
X1651000Y876300D02*
D03*
X660400Y368300D02*
D03*
X1181100Y342900D02*
D03*
X2120900Y571500D02*
D03*
X838200Y693420D02*
D03*
X1943100Y685800D02*
D03*
X1550400Y419100D02*
D03*
X1549400Y1028700D02*
D03*
X1816100D02*
D03*
X1752600Y1041400D02*
D03*
X711200Y889000D02*
D03*
X1092200Y990600D02*
D03*
X736600Y711200D02*
D03*
X749300Y977900D02*
D03*
X723900Y1003300D02*
D03*
X1346200Y622300D02*
D03*
X1041400Y990600D02*
D03*
X1536700Y1054100D02*
D03*
X1346200Y1231900D02*
D03*
X406400D02*
D03*
X850900Y1206500D02*
D03*
X800100Y1257300D02*
D03*
X774700D02*
D03*
X952500D02*
D03*
X977900D02*
D03*
X927100Y876300D02*
D03*
X901700Y901700D02*
D03*
X762000Y939800D02*
D03*
X482600Y1054100D02*
D03*
X812800Y660400D02*
D03*
X863600Y711200D02*
D03*
X1701800Y698500D02*
D03*
X1092200Y825500D02*
D03*
X1028700Y596900D02*
D03*
X914400Y622300D02*
D03*
X1752600Y419100D02*
D03*
X1587500Y546100D02*
D03*
X381000Y774700D02*
D03*
X469900Y787400D02*
D03*
X889000Y698500D02*
D03*
X990600Y825500D02*
D03*
X1054100Y635000D02*
D03*
X1041400Y622300D02*
D03*
X368300Y596900D02*
D03*
X1066800Y457200D02*
D03*
X1041400Y431800D02*
D03*
X317500Y673100D02*
D03*
Y584200D02*
D03*
X584200Y495300D02*
D03*
X838200Y838200D02*
D03*
X1016000Y406400D02*
D03*
X723900Y1308100D02*
D03*
X927100Y1231900D02*
D03*
X749300Y1257300D02*
D03*
X1988820Y1181100D02*
D03*
X673100Y317500D02*
D03*
X1409700Y685927D02*
D03*
X1473200Y698500D02*
D03*
X1117600Y863600D02*
D03*
X1701800Y749300D02*
D03*
X1219200Y838200D02*
D03*
Y990600D02*
D03*
X1435100Y1308100D02*
D03*
X1409700Y1181100D02*
D03*
X558800Y495300D02*
D03*
X419100Y660400D02*
D03*
X558800D02*
D03*
X1511300Y444500D02*
D03*
X1524000Y419100D02*
D03*
X1536700Y482600D02*
D03*
X1562100Y685800D02*
D03*
X533400Y635000D02*
D03*
X762000Y622300D02*
D03*
Y355600D02*
D03*
X1498600Y330200D02*
D03*
X2065020Y1181100D02*
D03*
X1879600Y1155700D02*
D03*
X2120900Y673100D02*
D03*
X1625600Y939800D02*
D03*
X1638300Y1016000D02*
D03*
X1879600Y990600D02*
D03*
X2095500Y863600D02*
D03*
X2171700Y685800D02*
D03*
X1879600Y889000D02*
D03*
X1968500Y1079500D02*
D03*
X1892300Y1054100D02*
D03*
X1143000Y698500D02*
D03*
X1498600Y1079500D02*
D03*
X1651000Y1193800D02*
D03*
X1130300Y1257300D02*
D03*
X1981200Y1054100D02*
D03*
X2044700Y1117600D02*
D03*
X1244600Y584200D02*
D03*
X457200Y1117600D02*
D03*
X1955800Y431800D02*
D03*
X2120900Y927100D02*
D03*
X1130300Y1117600D02*
D03*
X838200Y1028700D02*
D03*
X1066800D02*
D03*
X1079500Y1104900D02*
D03*
X1104900Y1117600D02*
D03*
X622300Y812800D02*
D03*
X635000Y787400D02*
D03*
X660400Y1079500D02*
D03*
X762000Y863600D02*
D03*
X749300Y800100D02*
D03*
X1016000Y1193800D02*
D03*
X1143000D02*
D03*
X711200Y990600D02*
D03*
X635000Y952500D02*
D03*
Y1168400D02*
D03*
X1168400Y1193800D02*
D03*
M02*
