G04 Layer_Color=16711935*
%FSLAX44Y44*%
%MOMM*%
G71*
G01*
G75*
%ADD12C,0.2540*%
%ADD53C,0.1524*%
D12*
X335280Y1280320D02*
G03*
X335280Y1280320I-10000J0D01*
G01*
Y368380D02*
G03*
X335280Y368380I-10000J0D01*
G01*
X2161540D02*
G03*
X2161540Y368380I-10000J0D01*
G01*
Y1280320D02*
G03*
X2161540Y1280320I-10000J0D01*
G01*
X254000Y1360320D02*
X273050D01*
X254000Y303380D02*
X273050D01*
X256540Y873746D02*
Y1360320D01*
Y303380D02*
Y781825D01*
X251460Y1345080D02*
X256540Y1360320D01*
X261620Y1345080D01*
X256540Y303380D02*
X261620Y318620D01*
X251460D02*
X256540Y303380D01*
X2199640Y276860D02*
Y294640D01*
X276860Y276860D02*
Y299570D01*
X1280146Y279400D02*
X2199640D01*
X276860D02*
X1188225D01*
X2184400Y284480D02*
X2199640Y279400D01*
X2184400Y274320D02*
X2199640Y279400D01*
X276860D02*
X292100Y274320D01*
X276860Y279400D02*
X292100Y284480D01*
X276860Y1360320D02*
X2199640D01*
Y303380D02*
Y1360320D01*
X276860Y303380D02*
X2199640D01*
X276860D02*
Y1360320D01*
X2179640Y1300320D02*
Y1360320D01*
Y1300320D02*
X2199640D01*
X2179640Y303380D02*
Y333380D01*
X2199000D01*
X276860D02*
X296860D01*
Y303380D02*
Y333380D01*
X277180Y1300320D02*
X296860D01*
Y1360480D01*
D53*
X268221Y785890D02*
Y790968D01*
Y788429D01*
X252986D01*
X255525Y785890D01*
Y798585D02*
X252986Y801125D01*
Y806203D01*
X255525Y808742D01*
X265681D01*
X268221Y806203D01*
Y801125D01*
X265681Y798585D01*
X255525D01*
X252986Y823977D02*
Y813820D01*
X260603D01*
X258064Y818899D01*
Y821438D01*
X260603Y823977D01*
X265681D01*
X268221Y821438D01*
Y816360D01*
X265681Y813820D01*
X270760Y831595D02*
X268221Y834134D01*
X265681D01*
Y831595D01*
X268221D01*
Y834134D01*
X270760Y831595D01*
X273299Y829056D01*
X252986Y854447D02*
X255525Y849369D01*
X260603Y844291D01*
X265681D01*
X268221Y846830D01*
Y851908D01*
X265681Y854447D01*
X263142D01*
X260603Y851908D01*
Y844291D01*
X265681Y859526D02*
X268221Y862065D01*
Y867143D01*
X265681Y869682D01*
X255525D01*
X252986Y867143D01*
Y862065D01*
X255525Y859526D01*
X258064D01*
X260603Y862065D01*
Y869682D01*
X1192290Y267719D02*
X1197368D01*
X1194829D01*
Y282954D01*
X1192290Y280415D01*
X1204985Y270259D02*
X1207525Y267719D01*
X1212603D01*
X1215142Y270259D01*
Y280415D01*
X1212603Y282954D01*
X1207525D01*
X1204985Y280415D01*
Y277876D01*
X1207525Y275337D01*
X1215142D01*
X1230377Y267719D02*
X1220220D01*
X1230377Y277876D01*
Y280415D01*
X1227838Y282954D01*
X1222760D01*
X1220220Y280415D01*
X1237995Y265180D02*
X1240534Y267719D01*
Y270259D01*
X1237995D01*
Y267719D01*
X1240534D01*
X1237995Y265180D01*
X1235456Y262641D01*
X1260847Y267719D02*
X1250691D01*
X1260847Y277876D01*
Y280415D01*
X1258308Y282954D01*
X1253230D01*
X1250691Y280415D01*
X1265926D02*
X1268465Y282954D01*
X1273543D01*
X1276082Y280415D01*
Y277876D01*
X1273543Y275337D01*
X1276082Y272798D01*
Y270259D01*
X1273543Y267719D01*
X1268465D01*
X1265926Y270259D01*
Y272798D01*
X1268465Y275337D01*
X1265926Y277876D01*
Y280415D01*
X1268465Y275337D02*
X1273543D01*
M02*
