M48
;Layer_Color=9474304
;FILE_FORMAT=4:4
METRIC,LZ
;TYPE=PLATED
T1F00S00C0.7112
T2F00S00C0.7500
T3F00S00C0.8000
T4F00S00C0.9000
T5F00S00C1.0000
T6F00S00C1.5000
T7F00S00C2.7000
T8F00S00C3.2000
%
T01
X006731Y003175
X006604Y003683
X00762Y003556
X011811Y003429
X01397Y003683
X014986Y003302
X021209Y005715
X021336Y006096
X021463Y005969
X021209Y006731
X021717Y006858
X021082Y007493
X020447Y007239
X019304Y007366
X019431Y006858
X018161Y006985
X017018
Y007493
X017399Y007747
X017653Y005334
X018542Y005461
X018923Y004699
X019558Y004318
X017526Y004191
X015875Y005461
X015367Y004826
X015113Y004445
X01524Y004191
X015504
X015621Y006858
X014732Y006985
X014097Y00685927
X013462Y006223
X012446Y005842
X012065Y007239
X011557Y007112
X01143Y006985
Y007747
X011176Y006477
X010541Y00635
X010414Y006223
X010287Y005969
X009398Y006477
X009144Y006223
X00889Y006985
X008636Y007112
X008382Y0069342
X008128Y006604
X010668Y004572
X010414Y004318
X01016Y004064
X01143Y004191
X00762Y006223
X007366Y007112
X005969Y006858
X005588Y006604
X005334Y00635
X004191Y006604
X004699Y007874
X00635
X005842Y004953
X005588
X003683Y005969
X003175Y005842
Y006731
X00381Y007747
X006223Y008128
X00762
X007493Y008001
X007747Y008509
X00762Y008636
X007112Y00889
X00762Y009398
X007493Y009779
X007239Y010033
X007112Y009906
X00635Y009525
X006604Y010795
X00635Y011684
X005334Y011557
X004572Y011176
X004318Y010668
X004826Y010541
X004953Y010287
X008001Y01016
X008382Y010287
X008509Y010033
X009906
X010414Y009906
X010922
X010668Y010287
X010795Y011049
X011049Y011176
X011303
X010922Y011557
X010795Y011811
X009779Y01143
X009525Y011557
X009398Y011303
X009017Y011811
Y009017
X009271Y008763
X009906Y008255
X010922
X011176Y008636
X011557Y008763
X011684Y008509
X010287Y009017
X008382Y008382
X012192
X012319Y009144
X011938Y009271
X012192Y009906
X012319Y010541
X012446Y010795
X012319Y011176
X012192Y011049
X014097Y011811
X014986Y010795
X015367Y010541
X015494Y010287
X014986Y009017
X014859Y009144
X01524Y008128
X013589Y009398
X013208Y009271
X012827Y00889
X01651Y008763
X016764Y008636
X016383Y008255
X016256Y009398
X016129Y009525
X016383Y01016
X017526Y010414
X01778Y010668
X018161Y010287
X018542Y010414
X018923Y010541
X018796Y009906
Y00889
X018542Y008509
X017018Y009271
X018415Y011049
X018669Y011303
X018796Y011557
X019558Y01143
X019685Y010795
X019812Y010541
X015875Y011303
X0198882Y011811
X0206502
X020447Y011176
X021209Y009271
X021463Y008636
X02159Y008509
X020955Y008636
X020828Y008128
X020193Y008255
X01651Y011938
X015875Y012319
X014351Y013081
X013462Y012319
X012192
X011684Y011938
X01143
X011303Y012573
X010541Y012065
X01016Y011938
X009906
X009779Y012573
X009525
X009271Y012319
X008509Y012065
X008001Y012573
X008763Y013335
X007747Y012573
X007493
X007239Y013081
X006858Y011938
X004064Y012319
T02
X004318Y011203
Y011403
X011176Y0104886
Y0102886
X013716Y0121936
Y0123936
X005334Y012981
Y013181
T03
X015504Y00381
X015992
T04
X003937Y00381
X004191
X004445
X004699
X004953
X005207
X005461
X006223
X006985
X007874
X008128
X008382
X008636
X00889
X009144
X009398
X009652
X009906
X01016
X010414
X010668
X010922
X011176
X012827
X013081
X013335
X013589
X013843
X014097
X014351
X014605
X016764
X017018
X017272
X017526
X01778
X018034
X018288
X019304
X019558
X019812
X020066
X02032
X020574
X020828
Y004572
X020574
X02032
X020066
Y00508
X02032
X020574
X020828
Y005842
X020574
X02032
X020066
Y00635
X02032
X020574
X020828
Y007112
X020574
X02032
X020066
Y00762
X02032
X020574
X020828
X019812
X019558
X019304
Y007112
X019558
X019812
Y00635
X019558
X019304
Y005842
X019558
X019812
Y00508
X019558
X019304
Y004572
X019558
X019812
X018288
X018034
X01778
X017526
X017272
X017018
X016764
Y005842
Y006096
Y00635
Y006604
Y006858
Y007112
Y007366
Y00762
Y007874
X016002
Y00762
Y007366
Y007112
Y006858
Y006604
Y00635
Y006096
Y005842
X017526
Y006096
Y00635
Y006604
Y006858
Y007112
Y007366
Y00762
Y007874
X018288
Y00762
Y007366
Y007112
Y006858
Y006604
Y00635
Y006096
Y005842
X014605
X014351
X014097
X013843
X013589
X013335
X013081
X012827
Y00635
X013081
X013335
X013589
X013843
X014097
X014351
X014605
Y007112
X014351
X014097
X013843
X013589
X013335
X013081
X012827
X013081Y00762
X013335
X013589
X013843
X014097
X014351
X014605
Y00508
X014351
X014097
X013843
X013589
X013335
X013081
X012827
Y004572
X013081
X013335
X013589
X013843
X014097
X014351
X014605
X011176Y005334
X010922
X010668
X010414
X01016
X009906
X009652
X009398
X009144
X00889
X008636
X008382
X008128
Y005842
X008382
X008636
X00889
X009144
X009398
X009652
X009906
X01016
X010414
X010668
X010922
X011176
Y007366
X010922
X010668
X010414
X01016
X009906
X009652
X009398
X009144
X00889
X008636
X008382
X008128
Y007874
X008382
X008636
X00889
X009144
X009398
X009652
X009906
X01016
X010414
X010668
X010922
X011176
X007874
Y007366
Y005842
Y005334
X006985
Y005588
Y00508
Y004826
Y004572
Y004318
Y004064
X006223
Y004318
Y004572
Y004826
Y00508
Y005334
Y005588
X005461Y005842
X005207
X004953
X004699
X004445
X004191
Y00508
X004445
X004699
X004953
X005207
X005461
Y004572
X005207
X004953
X004699
X004445
X004191
Y007366
X004445
X004699
X004953
X005207
X005461
X005715
X003937
Y005842
Y00508
Y004572
Y008128
X003302Y008636
Y00889
Y009144
Y009398
Y009652
Y009906
Y01016
Y010414
X004445
Y01016
Y009906
Y009652
Y009398
Y009144
Y00889
Y008636
Y008128
X004699
X004953
X005207
X005461
X005715
Y008636
Y00889
Y009144
Y009398
Y009652
Y009906
Y01016
Y010414
X005207
Y01016
Y009906
Y009652
Y009398
Y009144
Y00889
Y008636
X006477
Y00889
Y009144
Y009398
Y009652
Y009906
Y01016
Y010414
X006858
Y01016
Y009906
Y009652
Y009398
Y009144
Y00889
Y008636
X007874Y009398
Y010922
X00762
X007366
X007112
X004191Y008128
X008128Y009398
X008382
X008636
X00889
X009144
X009398
X009652
X009906
X01016
X010414
X010668
X010922
X011176
Y010922
X01143
X011684
X010922
X010668
X010414
X01016
X009906
X009652
X009398
X009144
X00889
X008636
X008382
X008128
X011938
X013081
X013335
X013589
X013843
X014097
X014351
X014605
Y01016
X014351
X014097
X013843
X013589
X013335
X013081
Y009652
X013335
X013589
X013843
X014097
X014351
X014605
Y00889
X014351
X014097
X013843
X013589
X013335
X013081
Y008382
X013335
X013589
X013843
X014097
X014351
X014605
X015113Y011557
X015367
X01524Y011684
X013335Y011557
X013208Y011684
X013081Y011557
X016764Y010922
X017018
X017272
X017526
X01778
X018034
X018288
Y01016
X018034
X01778
X017526
X017272
X017018
X016764
Y009652
X017018
X017272
X017526
X01778
X018034
X018288
Y00889
X018034
X01778
X017526
X017272
X017018
X016764
Y008128
X016002
X017526
X018288
X019304Y008382
X019558
X019812
Y00889
X019558
X019304
Y009652
X019558
X019812
X020066
X02032
X020574
X020828
Y00889
X020574
X02032
X020066
Y008382
X02032
X020574
X020828
X020447Y013081
X020193
X019939
X019685
X019431
X019177
X012319
Y012827
Y012573
X011938Y012446
X011684
X01143
X011176
X010922
X010668
X010414
X01016
X009906
X009652
X009398
X009144
X00889
X008636
X008382
X008128
X007874
X00762
X007366
X007112
X00635Y013208
X006096
X003937Y011938
X00381Y012065
X003683Y011938
T05
X015875Y004572
X01651Y004953
X01676654
X017272
X01752854
X017399Y005207
X018034Y004953
X018288
X018796Y004318
Y004064
Y006604
Y006858
X01651Y005334
X016256
X015621Y004572
X015367Y00635
X015113
X01511046Y007112
X015367
X012319Y006985
X01206246
X012065Y00635
X012319
Y005588
Y005334
X012573Y007874
X007366Y006731
Y006477
X005715Y00672846
Y006985
X005207
Y00672846
X005461Y006477
Y006223
X004699
Y006477
X004445Y00672846
Y006985
X003937
Y00672846
X003429Y00762
Y007874
Y004318
Y004064
X00381Y008636
X00380746Y00889
Y009144
Y009398
X00381Y009652
X00380746Y009906
Y01016
X00381Y010414
Y010668
Y011176
Y01143
X003302Y01180846
X004318
X004699
Y010922
X004953
X005715Y010795
Y01105154
X006604Y01104646
Y011303
Y011557
Y011811
X00406654Y010414
X004064Y01016
Y009906
X00406654Y009652
X004064Y009398
Y009144
Y00889
X00406654Y008636
X008636Y01028446
X00889
X009144
X009398
X009652
X009906
X01016
X010414
Y010541
X010668
X01016
X009906
X009652
X009398
X009144
X00889
X008636
X011684
Y01028446
X012573Y010414
Y010668
X0127Y01143
Y01168654
X012319
Y01143
X013716Y01142746
Y011684
X014224
Y01142746
X014732Y01143
Y01168654
X015748Y011684
Y01142746
X015113Y01092454
Y010668
X012573Y008128
X016256Y010414
Y010668
X016383Y011557
X016637
X017018
X017272
X017653
X017907
X019304Y01130554
Y011049
Y01067054
Y010414
X018796Y009398
Y009144
X020066Y010414
Y01067054
Y011049
Y01130554
X020828
Y011049
Y01067054
Y010414
X017526Y01218946
Y012446
X017018Y01244854
Y012192
X01651
Y01244854
X015367Y012192
X015113
X014224
Y01244854
X013208Y012446
Y012192
X0127
Y01244854
X011684Y012954
Y013208
X01143
Y012954
X011176
Y013208
X010922
X010668
Y012954
X010414
Y013208
X01016
Y012954
X009906
Y013208
X009652
Y012954
X009398
X009144
X00889
Y013208
X008636
X008382
X008128
Y012954
X008382
X008636
X009144Y013208
X009398
X010922Y012954
X007874
X00762
Y013208
X007874
X004699Y012065
X004318
X003302
T06
X017018Y012827
X01524
X01345946Y01282954
T07
X0164719Y0128524
X01702054Y01333246
X01756664Y01284986
X01578864
X01524254Y01333246
X0146939Y0128524
X0140081
X013462Y013335
X01291336Y01285494
X004191Y013335
X00372364Y01304036
T08
X00418846Y0127381
M30
