G04 Layer_Color=65535*
%FSLAX44Y44*%
%MOMM*%
G71*
G01*
G75*
%ADD12C,0.2540*%
%ADD31C,0.2000*%
%ADD32C,0.5000*%
%ADD33C,0.1500*%
D12*
X1550670Y711200D02*
G03*
X1550670Y711200I-13970J0D01*
G01*
X483870Y647192D02*
G03*
X483870Y647192I-13970J0D01*
G01*
X560070D02*
G03*
X560070Y647192I-13970J0D01*
G01*
X1716278Y1155700D02*
G03*
X1716278Y1155700I-13970J0D01*
G01*
X1652778D02*
G03*
X1652778Y1155700I-13970J0D01*
G01*
X394970Y1142492D02*
G03*
X394970Y1142492I-13970J0D01*
G01*
X1664970Y1219200D02*
G03*
X1664970Y1219200I-13970J0D01*
G01*
X1766570Y1244600D02*
G03*
X1766570Y1244600I-13970J0D01*
G01*
X1715770Y1219200D02*
G03*
X1715770Y1219200I-13970J0D01*
G01*
X1525270Y1066800D02*
G03*
X1525270Y1066800I-13970J0D01*
G01*
X674370Y1104646D02*
G03*
X674370Y1104646I-13970J0D01*
G01*
X1588770Y1142746D02*
G03*
X1588770Y1142746I-13970J0D01*
G01*
X1487170Y1168654D02*
G03*
X1487170Y1168654I-13970J0D01*
G01*
X585470Y698500D02*
G03*
X585470Y698500I-13970J0D01*
G01*
X534670D02*
G03*
X534670Y698500I-13970J0D01*
G01*
X458470D02*
G03*
X458470Y698500I-13970J0D01*
G01*
X407670D02*
G03*
X407670Y698500I-13970J0D01*
G01*
X1182370Y1054100D02*
G03*
X1182370Y1054100I-13970J0D01*
G01*
X394716Y990600D02*
G03*
X394716Y990600I-13970J0D01*
G01*
X394970Y965200D02*
G03*
X394970Y965200I-13970J0D01*
G01*
X394716Y1016000D02*
G03*
X394716Y1016000I-13970J0D01*
G01*
Y939800D02*
G03*
X394716Y939800I-13970J0D01*
G01*
Y914400D02*
G03*
X394716Y914400I-13970J0D01*
G01*
X1741170Y495300D02*
G03*
X1741170Y495300I-13970J0D01*
G01*
X1690624D02*
G03*
X1690624Y495300I-13970J0D01*
G01*
X394970Y1041400D02*
G03*
X394970Y1041400I-13970J0D01*
G01*
Y863600D02*
G03*
X394970Y863600I-13970J0D01*
G01*
X394716Y889000D02*
G03*
X394716Y889000I-13970J0D01*
G01*
X1004570Y1028446D02*
G03*
X1004570Y1028446I-13970J0D01*
G01*
X585470Y1079500D02*
G03*
X585470Y1079500I-13970J0D01*
G01*
X953770Y1028446D02*
G03*
X953770Y1028446I-13970J0D01*
G01*
X928370D02*
G03*
X928370Y1028446I-13970J0D01*
G01*
X877570D02*
G03*
X877570Y1028446I-13970J0D01*
G01*
X902970D02*
G03*
X902970Y1028446I-13970J0D01*
G01*
X979170D02*
G03*
X979170Y1028446I-13970J0D01*
G01*
X1055370D02*
G03*
X1055370Y1028446I-13970J0D01*
G01*
X1029970D02*
G03*
X1029970Y1028446I-13970J0D01*
G01*
X2096770Y1041400D02*
G03*
X2096770Y1041400I-13970J0D01*
G01*
Y1104900D02*
G03*
X2096770Y1104900I-13970J0D01*
G01*
X2020570Y1041400D02*
G03*
X2020570Y1041400I-13970J0D01*
G01*
Y1104900D02*
G03*
X2020570Y1104900I-13970J0D01*
G01*
X1944370Y1041400D02*
G03*
X1944370Y1041400I-13970J0D01*
G01*
Y1104900D02*
G03*
X1944370Y1104900I-13970J0D01*
G01*
X483870Y1180846D02*
G03*
X483870Y1180846I-13970J0D01*
G01*
X445770D02*
G03*
X445770Y1180846I-13970J0D01*
G01*
X1283970Y1244854D02*
G03*
X1283970Y1244854I-13970J0D01*
G01*
X1245870Y698500D02*
G03*
X1245870Y698500I-13970J0D01*
G01*
X344170Y1180846D02*
G03*
X344170Y1180846I-13970J0D01*
G01*
X1436370Y1219200D02*
G03*
X1436370Y1219200I-13970J0D01*
G01*
Y1142746D02*
G03*
X1436370Y1142746I-13970J0D01*
G01*
X1245870Y1143000D02*
G03*
X1245870Y1143000I-13970J0D01*
G01*
X1283970D02*
G03*
X1283970Y1143000I-13970J0D01*
G01*
X1385570Y1142746D02*
G03*
X1385570Y1142746I-13970J0D01*
G01*
X1693418Y1332738D02*
X1693926Y1333246D01*
X1693418Y1282954D02*
Y1332738D01*
X1710436Y1332484D02*
X1711198Y1333246D01*
X1710436Y1282700D02*
Y1332484D01*
X1647444Y1332738D02*
X1647952Y1333246D01*
X1647444Y1271524D02*
X1647698Y1271778D01*
X1756410D02*
X1756664Y1272032D01*
X1515618Y1332738D02*
X1516126Y1333246D01*
X1515618Y1282954D02*
Y1332738D01*
X1532636Y1332484D02*
X1533398Y1333246D01*
X1532636Y1282700D02*
Y1332484D01*
X1469644Y1332738D02*
X1470152Y1333246D01*
X1469644Y1271524D02*
X1469898Y1271778D01*
X1578610D02*
X1578864Y1272032D01*
X425196Y1335532D02*
X425958Y1336294D01*
X408178Y1335786D02*
X408686Y1336294D01*
X1855630Y1354990D02*
X2112170D01*
X1855630Y1260348D02*
Y1354990D01*
Y1260348D02*
X1875988Y1239990D01*
X2112170Y1189990D02*
Y1354990D01*
X1875950Y1189990D02*
Y1239990D01*
Y1189990D02*
X2112170D01*
X1337564Y1332992D02*
X1338072Y1333500D01*
X1337564Y1283208D02*
Y1332992D01*
X1354582Y1332738D02*
X1355344Y1333500D01*
X1354582Y1282954D02*
Y1332738D01*
X1291590Y1332992D02*
X1292098Y1333500D01*
X1291590Y1271778D02*
X1291844Y1272032D01*
X1400556D02*
X1400810Y1272286D01*
X563880Y838200D02*
X660400D01*
X673100Y850900D01*
X416560Y838200D02*
X436880D01*
X355600D02*
X365760D01*
X342900Y850900D02*
X355600Y838200D01*
X1460500Y1257300D02*
X1574800D01*
X1435100Y1282700D02*
X1460500Y1257300D01*
X1645920D02*
X1732280D01*
X1765300D02*
X1790700Y1282700D01*
X2065020Y1315715D02*
X2075177Y1300480D01*
Y1315715D02*
X2065020Y1300480D01*
X2080255D02*
Y1315715D01*
X2087873D01*
X2090412Y1313176D01*
Y1308098D01*
X2087873Y1305558D01*
X2080255D01*
X2105647Y1315715D02*
X2095490D01*
Y1308098D01*
X2100569Y1310637D01*
X2103108D01*
X2105647Y1308098D01*
Y1303019D01*
X2103108Y1300480D01*
X2098029D01*
X2095490Y1303019D01*
X322585Y805180D02*
X337820Y815337D01*
X322585D02*
X337820Y805180D01*
Y820415D02*
X322585D01*
Y828033D01*
X325124Y830572D01*
X330202D01*
X332742Y828033D01*
Y820415D01*
X325124Y835650D02*
X322585Y838189D01*
Y843268D01*
X325124Y845807D01*
X327663D01*
X330202Y843268D01*
Y840729D01*
Y843268D01*
X332742Y845807D01*
X335281D01*
X337820Y843268D01*
Y838189D01*
X335281Y835650D01*
X678185Y802640D02*
X693420Y812797D01*
X678185D02*
X693420Y802640D01*
Y817875D02*
X678185D01*
Y825493D01*
X680724Y828032D01*
X685803D01*
X688342Y825493D01*
Y817875D01*
X693420Y843267D02*
Y833110D01*
X683263Y843267D01*
X680724D01*
X678185Y840728D01*
Y835649D01*
X680724Y833110D01*
X1508760Y728980D02*
Y744215D01*
X1516378D01*
X1518917Y741676D01*
Y736598D01*
X1516378Y734058D01*
X1508760D01*
X1513838D02*
X1518917Y728980D01*
X1523995D02*
X1529073D01*
X1526534D01*
Y744215D01*
X1523995Y741676D01*
X1536691D02*
X1539230Y744215D01*
X1544308D01*
X1546848Y741676D01*
Y739137D01*
X1544308Y736598D01*
X1541769D01*
X1544308D01*
X1546848Y734058D01*
Y731519D01*
X1544308Y728980D01*
X1539230D01*
X1536691Y731519D01*
X1595124Y1043937D02*
X1592585Y1041397D01*
Y1036319D01*
X1595124Y1033780D01*
X1605281D01*
X1607820Y1036319D01*
Y1041397D01*
X1605281Y1043937D01*
X1607820Y1059172D02*
Y1049015D01*
X1597663Y1059172D01*
X1595124D01*
X1592585Y1056633D01*
Y1051554D01*
X1595124Y1049015D01*
X1607820Y1071868D02*
X1592585D01*
X1600202Y1064250D01*
Y1074407D01*
X490224Y1305557D02*
X487685Y1303017D01*
Y1297939D01*
X490224Y1295400D01*
X500381D01*
X502920Y1297939D01*
Y1303017D01*
X500381Y1305557D01*
X490224Y1310635D02*
X487685Y1313174D01*
Y1318253D01*
X490224Y1320792D01*
X492763D01*
X495303Y1318253D01*
X497842Y1320792D01*
X500381D01*
X502920Y1318253D01*
Y1313174D01*
X500381Y1310635D01*
X497842D01*
X495303Y1313174D01*
X492763Y1310635D01*
X490224D01*
X495303Y1313174D02*
Y1318253D01*
X932180Y871215D02*
Y855980D01*
X939798D01*
X942337Y858519D01*
Y868676D01*
X939798Y871215D01*
X932180D01*
X947415D02*
Y855980D01*
X955033D01*
X957572Y858519D01*
Y868676D01*
X955033Y871215D01*
X947415D01*
X962650D02*
X972807D01*
Y868676D01*
X962650Y858519D01*
Y855980D01*
X1574797Y487676D02*
X1572258Y490215D01*
X1567179D01*
X1564640Y487676D01*
Y477519D01*
X1567179Y474980D01*
X1572258D01*
X1574797Y477519D01*
X1579875Y474980D02*
X1584953D01*
X1582414D01*
Y490215D01*
X1579875Y487676D01*
X1478277Y1224276D02*
X1475737Y1226815D01*
X1470659D01*
X1468120Y1224276D01*
Y1214119D01*
X1470659Y1211580D01*
X1475737D01*
X1478277Y1214119D01*
X1493512Y1211580D02*
X1483355D01*
X1493512Y1221737D01*
Y1224276D01*
X1490973Y1226815D01*
X1485894D01*
X1483355Y1224276D01*
X1216657Y665476D02*
X1214118Y668015D01*
X1209039D01*
X1206500Y665476D01*
Y655319D01*
X1209039Y652780D01*
X1214118D01*
X1216657Y655319D01*
X1221735Y665476D02*
X1224274Y668015D01*
X1229353D01*
X1231892Y665476D01*
Y662937D01*
X1229353Y660397D01*
X1226813D01*
X1229353D01*
X1231892Y657858D01*
Y655319D01*
X1229353Y652780D01*
X1224274D01*
X1221735Y655319D01*
X1521457Y665476D02*
X1518918Y668015D01*
X1513839D01*
X1511300Y665476D01*
Y655319D01*
X1513839Y652780D01*
X1518918D01*
X1521457Y655319D01*
X1534153Y652780D02*
Y668015D01*
X1526535Y660397D01*
X1536692D01*
X1813557Y525776D02*
X1811017Y528315D01*
X1805939D01*
X1803400Y525776D01*
Y515619D01*
X1805939Y513080D01*
X1811017D01*
X1813557Y515619D01*
X1828792Y528315D02*
X1818635D01*
Y520698D01*
X1823713Y523237D01*
X1826253D01*
X1828792Y520698D01*
Y515619D01*
X1826253Y513080D01*
X1821174D01*
X1818635Y515619D01*
X396237Y1102356D02*
X393698Y1104895D01*
X388619D01*
X386080Y1102356D01*
Y1092199D01*
X388619Y1089660D01*
X393698D01*
X396237Y1092199D01*
X411472Y1104895D02*
X406393Y1102356D01*
X401315Y1097278D01*
Y1092199D01*
X403854Y1089660D01*
X408933D01*
X411472Y1092199D01*
Y1094738D01*
X408933Y1097278D01*
X401315D01*
X1112524Y993137D02*
X1109985Y990598D01*
Y985519D01*
X1112524Y982980D01*
X1122681D01*
X1125220Y985519D01*
Y990598D01*
X1122681Y993137D01*
X1109985Y998215D02*
Y1008372D01*
X1112524D01*
X1122681Y998215D01*
X1125220D01*
X629924Y1165857D02*
X627385Y1163317D01*
Y1158239D01*
X629924Y1155700D01*
X640081D01*
X642620Y1158239D01*
Y1163317D01*
X640081Y1165857D01*
Y1170935D02*
X642620Y1173474D01*
Y1178553D01*
X640081Y1181092D01*
X629924D01*
X627385Y1178553D01*
Y1173474D01*
X629924Y1170935D01*
X632463D01*
X635003Y1173474D01*
Y1181092D01*
X706124Y650237D02*
X703585Y647698D01*
Y642619D01*
X706124Y640080D01*
X716281D01*
X718820Y642619D01*
Y647698D01*
X716281Y650237D01*
X718820Y655315D02*
Y660393D01*
Y657854D01*
X703585D01*
X706124Y655315D01*
Y668011D02*
X703585Y670550D01*
Y675629D01*
X706124Y678168D01*
X716281D01*
X718820Y675629D01*
Y670550D01*
X716281Y668011D01*
X706124D01*
X1201424Y538477D02*
X1198885Y535938D01*
Y530859D01*
X1201424Y528320D01*
X1211581D01*
X1214120Y530859D01*
Y535938D01*
X1211581Y538477D01*
X1214120Y543555D02*
Y548633D01*
Y546094D01*
X1198885D01*
X1201424Y543555D01*
X1214120Y556251D02*
Y561329D01*
Y558790D01*
X1198885D01*
X1201424Y556251D01*
X1226824Y792477D02*
X1224285Y789938D01*
Y784859D01*
X1226824Y782320D01*
X1236981D01*
X1239520Y784859D01*
Y789938D01*
X1236981Y792477D01*
X1239520Y797555D02*
Y802633D01*
Y800094D01*
X1224285D01*
X1226824Y797555D01*
X1239520Y820408D02*
Y810251D01*
X1229363Y820408D01*
X1226824D01*
X1224285Y817868D01*
Y812790D01*
X1226824Y810251D01*
Y1046477D02*
X1224285Y1043938D01*
Y1038859D01*
X1226824Y1036320D01*
X1236981D01*
X1239520Y1038859D01*
Y1043938D01*
X1236981Y1046477D01*
X1239520Y1051555D02*
Y1056633D01*
Y1054094D01*
X1224285D01*
X1226824Y1051555D01*
Y1064251D02*
X1224285Y1066790D01*
Y1071869D01*
X1226824Y1074408D01*
X1229363D01*
X1231902Y1071869D01*
Y1069329D01*
Y1071869D01*
X1234442Y1074408D01*
X1236981D01*
X1239520Y1071869D01*
Y1066790D01*
X1236981Y1064251D01*
X1874524Y360677D02*
X1871985Y358138D01*
Y353059D01*
X1874524Y350520D01*
X1884681D01*
X1887220Y353059D01*
Y358138D01*
X1884681Y360677D01*
X1887220Y365755D02*
Y370833D01*
Y368294D01*
X1871985D01*
X1874524Y365755D01*
X1887220Y386068D02*
X1871985D01*
X1879603Y378451D01*
Y388608D01*
X474977Y1122676D02*
X472438Y1125215D01*
X467359D01*
X464820Y1122676D01*
Y1112519D01*
X467359Y1109980D01*
X472438D01*
X474977Y1112519D01*
X480055Y1109980D02*
X485133D01*
X482594D01*
Y1125215D01*
X480055Y1122676D01*
X502908Y1125215D02*
X492751D01*
Y1117598D01*
X497829Y1120137D01*
X500368D01*
X502908Y1117598D01*
Y1112519D01*
X500368Y1109980D01*
X495290D01*
X492751Y1112519D01*
X1363977Y1196336D02*
X1361438Y1198875D01*
X1356359D01*
X1353820Y1196336D01*
Y1186179D01*
X1356359Y1183640D01*
X1361438D01*
X1363977Y1186179D01*
X1369055Y1183640D02*
X1374133D01*
X1371594D01*
Y1198875D01*
X1369055Y1196336D01*
X1381751Y1186179D02*
X1384290Y1183640D01*
X1389368D01*
X1391908Y1186179D01*
Y1196336D01*
X1389368Y1198875D01*
X1384290D01*
X1381751Y1196336D01*
Y1193797D01*
X1384290Y1191257D01*
X1391908D01*
X1290324Y1221737D02*
X1287785Y1219197D01*
Y1214119D01*
X1290324Y1211580D01*
X1300481D01*
X1303020Y1214119D01*
Y1219197D01*
X1300481Y1221737D01*
X1303020Y1236972D02*
Y1226815D01*
X1292863Y1236972D01*
X1290324D01*
X1287785Y1234433D01*
Y1229354D01*
X1290324Y1226815D01*
Y1242050D02*
X1287785Y1244589D01*
Y1249668D01*
X1290324Y1252207D01*
X1300481D01*
X1303020Y1249668D01*
Y1244589D01*
X1300481Y1242050D01*
X1290324D01*
X1772917Y1186176D02*
X1770378Y1188715D01*
X1765299D01*
X1762760Y1186176D01*
Y1176019D01*
X1765299Y1173480D01*
X1770378D01*
X1772917Y1176019D01*
X1788152Y1173480D02*
X1777995D01*
X1788152Y1183637D01*
Y1186176D01*
X1785613Y1188715D01*
X1780534D01*
X1777995Y1186176D01*
X1793230Y1173480D02*
X1798309D01*
X1795769D01*
Y1188715D01*
X1793230Y1186176D01*
X1849124Y665477D02*
X1846585Y662937D01*
Y657859D01*
X1849124Y655320D01*
X1859281D01*
X1861820Y657859D01*
Y662937D01*
X1859281Y665477D01*
X1861820Y670555D02*
Y675633D01*
Y673094D01*
X1846585D01*
X1849124Y670555D01*
X1846585Y693408D02*
X1849124Y688329D01*
X1854203Y683251D01*
X1859281D01*
X1861820Y685790D01*
Y690869D01*
X1859281Y693408D01*
X1856742D01*
X1854203Y690869D01*
Y683251D01*
X1874524Y868677D02*
X1871985Y866137D01*
Y861059D01*
X1874524Y858520D01*
X1884681D01*
X1887220Y861059D01*
Y866137D01*
X1884681Y868677D01*
X1887220Y873755D02*
Y878833D01*
Y876294D01*
X1871985D01*
X1874524Y873755D01*
X1871985Y886451D02*
Y896608D01*
X1874524D01*
X1884681Y886451D01*
X1887220D01*
X1579877Y538476D02*
X1577337Y541015D01*
X1572259D01*
X1569720Y538476D01*
Y528319D01*
X1572259Y525780D01*
X1577337D01*
X1579877Y528319D01*
X1584955Y525780D02*
X1590033D01*
X1587494D01*
Y541015D01*
X1584955Y538476D01*
X1597651D02*
X1600190Y541015D01*
X1605269D01*
X1607808Y538476D01*
Y535937D01*
X1605269Y533397D01*
X1607808Y530858D01*
Y528319D01*
X1605269Y525780D01*
X1600190D01*
X1597651Y528319D01*
Y530858D01*
X1600190Y533397D01*
X1597651Y535937D01*
Y538476D01*
X1600190Y533397D02*
X1605269D01*
X1734820Y426715D02*
Y411480D01*
X1742437D01*
X1744977Y414019D01*
Y424176D01*
X1742437Y426715D01*
X1734820D01*
X1750055D02*
Y411480D01*
X1757673D01*
X1760212Y414019D01*
Y424176D01*
X1757673Y426715D01*
X1750055D01*
X1765290Y411480D02*
X1770368D01*
X1767829D01*
Y426715D01*
X1765290Y424176D01*
X457200Y782315D02*
Y767080D01*
X464818D01*
X467357Y769619D01*
Y779776D01*
X464818Y782315D01*
X457200D01*
X472435D02*
Y767080D01*
X480053D01*
X482592Y769619D01*
Y779776D01*
X480053Y782315D01*
X472435D01*
X497827Y767080D02*
X487670D01*
X497827Y777237D01*
Y779776D01*
X495288Y782315D01*
X490209D01*
X487670Y779776D01*
X1363980Y934715D02*
Y919480D01*
X1371597D01*
X1374137Y922019D01*
Y932176D01*
X1371597Y934715D01*
X1363980D01*
X1379215D02*
Y919480D01*
X1386833D01*
X1389372Y922019D01*
Y932176D01*
X1386833Y934715D01*
X1379215D01*
X1394450Y932176D02*
X1396989Y934715D01*
X1402068D01*
X1404607Y932176D01*
Y929637D01*
X1402068Y927097D01*
X1399529D01*
X1402068D01*
X1404607Y924558D01*
Y922019D01*
X1402068Y919480D01*
X1396989D01*
X1394450Y922019D01*
X1363980Y1061715D02*
Y1046480D01*
X1371597D01*
X1374137Y1049019D01*
Y1059176D01*
X1371597Y1061715D01*
X1363980D01*
X1379215D02*
Y1046480D01*
X1386833D01*
X1389372Y1049019D01*
Y1059176D01*
X1386833Y1061715D01*
X1379215D01*
X1402068Y1046480D02*
Y1061715D01*
X1394450Y1054098D01*
X1404607D01*
X1361440Y807715D02*
Y792480D01*
X1369057D01*
X1371597Y795019D01*
Y805176D01*
X1369057Y807715D01*
X1361440D01*
X1376675D02*
Y792480D01*
X1384293D01*
X1386832Y795019D01*
Y805176D01*
X1384293Y807715D01*
X1376675D01*
X1402067D02*
X1396989Y805176D01*
X1391910Y800098D01*
Y795019D01*
X1394449Y792480D01*
X1399528D01*
X1402067Y795019D01*
Y797558D01*
X1399528Y800098D01*
X1391910D01*
X449580Y553715D02*
Y538480D01*
X457197D01*
X459737Y541019D01*
Y551176D01*
X457197Y553715D01*
X449580D01*
X464815D02*
Y538480D01*
X472433D01*
X474972Y541019D01*
Y551176D01*
X472433Y553715D01*
X464815D01*
X480050Y551176D02*
X482589Y553715D01*
X487668D01*
X490207Y551176D01*
Y548637D01*
X487668Y546097D01*
X490207Y543558D01*
Y541019D01*
X487668Y538480D01*
X482589D01*
X480050Y541019D01*
Y543558D01*
X482589Y546097D01*
X480050Y548637D01*
Y551176D01*
X482589Y546097D02*
X487668D01*
X957580Y1176015D02*
Y1160780D01*
X965198D01*
X967737Y1163319D01*
Y1173476D01*
X965198Y1176015D01*
X957580D01*
X972815D02*
Y1160780D01*
X980433D01*
X982972Y1163319D01*
Y1173476D01*
X980433Y1176015D01*
X972815D01*
X988050Y1163319D02*
X990589Y1160780D01*
X995668D01*
X998207Y1163319D01*
Y1173476D01*
X995668Y1176015D01*
X990589D01*
X988050Y1173476D01*
Y1170937D01*
X990589Y1168398D01*
X998207D01*
X1630685Y670560D02*
X1645920D01*
Y678177D01*
X1643381Y680717D01*
X1633224D01*
X1630685Y678177D01*
Y670560D01*
Y685795D02*
X1645920D01*
Y693413D01*
X1643381Y695952D01*
X1633224D01*
X1630685Y693413D01*
Y685795D01*
X1645920Y701030D02*
Y706108D01*
Y703569D01*
X1630685D01*
X1633224Y701030D01*
Y713726D02*
X1630685Y716265D01*
Y721344D01*
X1633224Y723883D01*
X1643381D01*
X1645920Y721344D01*
Y716265D01*
X1643381Y713726D01*
X1633224D01*
X444500Y426715D02*
Y411480D01*
X452118D01*
X454657Y414019D01*
Y424176D01*
X452118Y426715D01*
X444500D01*
X459735D02*
Y411480D01*
X467353D01*
X469892Y414019D01*
Y424176D01*
X467353Y426715D01*
X459735D01*
X474970Y411480D02*
X480048D01*
X477509D01*
Y426715D01*
X474970Y424176D01*
X497823Y411480D02*
X487666D01*
X497823Y421637D01*
Y424176D01*
X495284Y426715D01*
X490205D01*
X487666Y424176D01*
X1727200Y1061715D02*
Y1046480D01*
X1734818D01*
X1737357Y1049019D01*
Y1059176D01*
X1734818Y1061715D01*
X1727200D01*
X1742435D02*
Y1046480D01*
X1750053D01*
X1752592Y1049019D01*
Y1059176D01*
X1750053Y1061715D01*
X1742435D01*
X1757670Y1046480D02*
X1762749D01*
X1760209D01*
Y1061715D01*
X1757670Y1059176D01*
X1770366D02*
X1772905Y1061715D01*
X1777984D01*
X1780523Y1059176D01*
Y1056637D01*
X1777984Y1054098D01*
X1775444D01*
X1777984D01*
X1780523Y1051558D01*
Y1049019D01*
X1777984Y1046480D01*
X1772905D01*
X1770366Y1049019D01*
X601985Y927100D02*
X617220D01*
Y934717D01*
X614681Y937257D01*
X604524D01*
X601985Y934717D01*
Y927100D01*
Y942335D02*
X617220D01*
Y949953D01*
X614681Y952492D01*
X604524D01*
X601985Y949953D01*
Y942335D01*
X617220Y957570D02*
Y962648D01*
Y960109D01*
X601985D01*
X604524Y957570D01*
X617220Y977884D02*
X601985D01*
X609603Y970266D01*
Y980423D01*
X652785Y444500D02*
X668020D01*
Y452118D01*
X665481Y454657D01*
X655324D01*
X652785Y452118D01*
Y444500D01*
Y459735D02*
X668020D01*
Y467353D01*
X665481Y469892D01*
X655324D01*
X652785Y467353D01*
Y459735D01*
X668020Y474970D02*
Y480048D01*
Y477509D01*
X652785D01*
X655324Y474970D01*
X652785Y497823D02*
Y487666D01*
X660403D01*
X657863Y492744D01*
Y495284D01*
X660403Y497823D01*
X665481D01*
X668020Y495284D01*
Y490205D01*
X665481Y487666D01*
X1346200Y426715D02*
Y411480D01*
X1353817D01*
X1356357Y414019D01*
Y424176D01*
X1353817Y426715D01*
X1346200D01*
X1361435D02*
Y411480D01*
X1369053D01*
X1371592Y414019D01*
Y424176D01*
X1369053Y426715D01*
X1361435D01*
X1376670Y411480D02*
X1381749D01*
X1379209D01*
Y426715D01*
X1376670Y424176D01*
X1399523Y426715D02*
X1394444Y424176D01*
X1389366Y419098D01*
Y414019D01*
X1391905Y411480D01*
X1396984D01*
X1399523Y414019D01*
Y416558D01*
X1396984Y419098D01*
X1389366D01*
X1346200Y553715D02*
Y538480D01*
X1353817D01*
X1356357Y541019D01*
Y551176D01*
X1353817Y553715D01*
X1346200D01*
X1361435D02*
Y538480D01*
X1369053D01*
X1371592Y541019D01*
Y551176D01*
X1369053Y553715D01*
X1361435D01*
X1376670Y538480D02*
X1381749D01*
X1379209D01*
Y553715D01*
X1376670Y551176D01*
X1389366Y553715D02*
X1399523D01*
Y551176D01*
X1389366Y541019D01*
Y538480D01*
X1346200Y680715D02*
Y665480D01*
X1353817D01*
X1356357Y668019D01*
Y678176D01*
X1353817Y680715D01*
X1346200D01*
X1361435D02*
Y665480D01*
X1369053D01*
X1371592Y668019D01*
Y678176D01*
X1369053Y680715D01*
X1361435D01*
X1376670Y665480D02*
X1381749D01*
X1379209D01*
Y680715D01*
X1376670Y678176D01*
X1389366D02*
X1391905Y680715D01*
X1396984D01*
X1399523Y678176D01*
Y675637D01*
X1396984Y673098D01*
X1399523Y670558D01*
Y668019D01*
X1396984Y665480D01*
X1391905D01*
X1389366Y668019D01*
Y670558D01*
X1391905Y673098D01*
X1389366Y675637D01*
Y678176D01*
X1391905Y673098D02*
X1396984D01*
X474985Y924560D02*
X490220D01*
Y932178D01*
X487681Y934717D01*
X477524D01*
X474985Y932178D01*
Y924560D01*
Y939795D02*
X490220D01*
Y947413D01*
X487681Y949952D01*
X477524D01*
X474985Y947413D01*
Y939795D01*
X490220Y955030D02*
Y960108D01*
Y957569D01*
X474985D01*
X477524Y955030D01*
X487681Y967726D02*
X490220Y970265D01*
Y975344D01*
X487681Y977883D01*
X477524D01*
X474985Y975344D01*
Y970265D01*
X477524Y967726D01*
X480063D01*
X482603Y970265D01*
Y977883D01*
X1783085Y670560D02*
X1798320D01*
Y678177D01*
X1795781Y680717D01*
X1785624D01*
X1783085Y678177D01*
Y670560D01*
Y685795D02*
X1798320D01*
Y693413D01*
X1795781Y695952D01*
X1785624D01*
X1783085Y693413D01*
Y685795D01*
X1798320Y711187D02*
Y701030D01*
X1788163Y711187D01*
X1785624D01*
X1783085Y708648D01*
Y703569D01*
X1785624Y701030D01*
Y716265D02*
X1783085Y718804D01*
Y723883D01*
X1785624Y726422D01*
X1795781D01*
X1798320Y723883D01*
Y718804D01*
X1795781Y716265D01*
X1785624D01*
X1978660Y805175D02*
Y789940D01*
X1986277D01*
X1988817Y792479D01*
Y802636D01*
X1986277Y805175D01*
X1978660D01*
X1993895D02*
Y789940D01*
X2001513D01*
X2004052Y792479D01*
Y802636D01*
X2001513Y805175D01*
X1993895D01*
X2019287Y789940D02*
X2009130D01*
X2019287Y800097D01*
Y802636D01*
X2016748Y805175D01*
X2011669D01*
X2009130Y802636D01*
X2024365Y789940D02*
X2029444D01*
X2026904D01*
Y805175D01*
X2024365Y802636D01*
X1727200Y934715D02*
Y919480D01*
X1734818D01*
X1737357Y922019D01*
Y932176D01*
X1734818Y934715D01*
X1727200D01*
X1742435D02*
Y919480D01*
X1750053D01*
X1752592Y922019D01*
Y932176D01*
X1750053Y934715D01*
X1742435D01*
X1767827Y919480D02*
X1757670D01*
X1767827Y929637D01*
Y932176D01*
X1765288Y934715D01*
X1760209D01*
X1757670Y932176D01*
X1783062Y919480D02*
X1772905D01*
X1783062Y929637D01*
Y932176D01*
X1780523Y934715D01*
X1775444D01*
X1772905Y932176D01*
X1978660Y426715D02*
Y411480D01*
X1986277D01*
X1988817Y414019D01*
Y424176D01*
X1986277Y426715D01*
X1978660D01*
X1993895D02*
Y411480D01*
X2001513D01*
X2004052Y414019D01*
Y424176D01*
X2001513Y426715D01*
X1993895D01*
X2019287Y411480D02*
X2009130D01*
X2019287Y421637D01*
Y424176D01*
X2016748Y426715D01*
X2011669D01*
X2009130Y424176D01*
X2024365D02*
X2026904Y426715D01*
X2031983D01*
X2034522Y424176D01*
Y421637D01*
X2031983Y419098D01*
X2029444D01*
X2031983D01*
X2034522Y416558D01*
Y414019D01*
X2031983Y411480D01*
X2026904D01*
X2024365Y414019D01*
X1978660Y553715D02*
Y538480D01*
X1986277D01*
X1988817Y541019D01*
Y551176D01*
X1986277Y553715D01*
X1978660D01*
X1993895D02*
Y538480D01*
X2001513D01*
X2004052Y541019D01*
Y551176D01*
X2001513Y553715D01*
X1993895D01*
X2019287Y538480D02*
X2009130D01*
X2019287Y548637D01*
Y551176D01*
X2016748Y553715D01*
X2011669D01*
X2009130Y551176D01*
X2031983Y538480D02*
Y553715D01*
X2024365Y546097D01*
X2034522D01*
X1978660Y680715D02*
Y665480D01*
X1986277D01*
X1988817Y668019D01*
Y678176D01*
X1986277Y680715D01*
X1978660D01*
X1993895D02*
Y665480D01*
X2001513D01*
X2004052Y668019D01*
Y678176D01*
X2001513Y680715D01*
X1993895D01*
X2019287Y665480D02*
X2009130D01*
X2019287Y675637D01*
Y678176D01*
X2016748Y680715D01*
X2011669D01*
X2009130Y678176D01*
X2034522Y680715D02*
X2024365D01*
Y673098D01*
X2029444Y675637D01*
X2031983D01*
X2034522Y673098D01*
Y668019D01*
X2031983Y665480D01*
X2026904D01*
X2024365Y668019D01*
X1978660Y934715D02*
Y919480D01*
X1986277D01*
X1988817Y922019D01*
Y932176D01*
X1986277Y934715D01*
X1978660D01*
X1993895D02*
Y919480D01*
X2001513D01*
X2004052Y922019D01*
Y932176D01*
X2001513Y934715D01*
X1993895D01*
X2019287Y919480D02*
X2009130D01*
X2019287Y929637D01*
Y932176D01*
X2016748Y934715D01*
X2011669D01*
X2009130Y932176D01*
X2034522Y934715D02*
X2029444Y932176D01*
X2024365Y927097D01*
Y922019D01*
X2026904Y919480D01*
X2031983D01*
X2034522Y922019D01*
Y924558D01*
X2031983Y927097D01*
X2024365D01*
X345445Y1115060D02*
X355602D01*
X360680Y1120138D01*
X355602Y1125217D01*
X345445D01*
Y1130295D02*
X360680D01*
Y1137913D01*
X358141Y1140452D01*
X347984D01*
X345445Y1137913D01*
Y1130295D01*
X360680Y1145530D02*
Y1150609D01*
Y1148069D01*
X345445D01*
X347984Y1145530D01*
X513085Y617220D02*
X523242D01*
X528320Y622298D01*
X523242Y627377D01*
X513085D01*
Y632455D02*
X528320D01*
Y640073D01*
X525781Y642612D01*
X515624D01*
X513085Y640073D01*
Y632455D01*
X528320Y657847D02*
Y647690D01*
X518163Y657847D01*
X515624D01*
X513085Y655308D01*
Y650229D01*
X515624Y647690D01*
X436885Y617220D02*
X447042D01*
X452120Y622298D01*
X447042Y627377D01*
X436885D01*
Y632455D02*
X452120D01*
Y640073D01*
X449581Y642612D01*
X439424D01*
X436885Y640073D01*
Y632455D01*
X439424Y647690D02*
X436885Y650229D01*
Y655308D01*
X439424Y657847D01*
X441963D01*
X444502Y655308D01*
Y652768D01*
Y655308D01*
X447042Y657847D01*
X449581D01*
X452120Y655308D01*
Y650229D01*
X449581Y647690D01*
X1628140Y1191255D02*
Y1181098D01*
X1633218Y1176020D01*
X1638297Y1181098D01*
Y1191255D01*
X1643375D02*
Y1176020D01*
X1650993D01*
X1653532Y1178559D01*
Y1188716D01*
X1650993Y1191255D01*
X1643375D01*
X1666228Y1176020D02*
Y1191255D01*
X1658610Y1183637D01*
X1668767D01*
X1691640Y1191255D02*
Y1181098D01*
X1696718Y1176020D01*
X1701797Y1181098D01*
Y1191255D01*
X1706875D02*
Y1176020D01*
X1714493D01*
X1717032Y1178559D01*
Y1188716D01*
X1714493Y1191255D01*
X1706875D01*
X1732267D02*
X1722110D01*
Y1183637D01*
X1727189Y1186177D01*
X1729728D01*
X1732267Y1183637D01*
Y1178559D01*
X1729728Y1176020D01*
X1724649D01*
X1722110Y1178559D01*
X718947Y1349624D02*
X729104Y1334389D01*
Y1349624D02*
X718947Y1334389D01*
X734182D02*
Y1349624D01*
X741800D01*
X744339Y1347085D01*
Y1342007D01*
X741800Y1339467D01*
X734182D01*
X749417Y1334389D02*
X754495D01*
X751956D01*
Y1349624D01*
X749417Y1347085D01*
X444505Y1300480D02*
X459740Y1310637D01*
X444505D02*
X459740Y1300480D01*
X447044Y1325872D02*
X444505Y1323333D01*
Y1318254D01*
X447044Y1315715D01*
X449583D01*
X452122Y1318254D01*
Y1323333D01*
X454662Y1325872D01*
X457201D01*
X459740Y1323333D01*
Y1318254D01*
X457201Y1315715D01*
X459740Y1330950D02*
Y1336028D01*
Y1333489D01*
X444505D01*
X447044Y1330950D01*
X1615440Y1353815D02*
X1625597Y1338580D01*
Y1353815D02*
X1615440Y1338580D01*
X1640832Y1351276D02*
X1638293Y1353815D01*
X1633214D01*
X1630675Y1351276D01*
Y1348737D01*
X1633214Y1346198D01*
X1638293D01*
X1640832Y1343658D01*
Y1341119D01*
X1638293Y1338580D01*
X1633214D01*
X1630675Y1341119D01*
X1656067Y1338580D02*
X1645910D01*
X1656067Y1348737D01*
Y1351276D01*
X1653528Y1353815D01*
X1648449D01*
X1645910Y1351276D01*
X1437640Y1356355D02*
X1447797Y1341120D01*
Y1356355D02*
X1437640Y1341120D01*
X1463032Y1353816D02*
X1460493Y1356355D01*
X1455414D01*
X1452875Y1353816D01*
Y1351277D01*
X1455414Y1348737D01*
X1460493D01*
X1463032Y1346198D01*
Y1343659D01*
X1460493Y1341120D01*
X1455414D01*
X1452875Y1343659D01*
X1468110Y1353816D02*
X1470649Y1356355D01*
X1475728D01*
X1478267Y1353816D01*
Y1351277D01*
X1475728Y1348737D01*
X1473188D01*
X1475728D01*
X1478267Y1346198D01*
Y1343659D01*
X1475728Y1341120D01*
X1470649D01*
X1468110Y1343659D01*
X1259840Y1356355D02*
X1269997Y1341120D01*
Y1356355D02*
X1259840Y1341120D01*
X1285232Y1353816D02*
X1282693Y1356355D01*
X1277614D01*
X1275075Y1353816D01*
Y1351277D01*
X1277614Y1348737D01*
X1282693D01*
X1285232Y1346198D01*
Y1343659D01*
X1282693Y1341120D01*
X1277614D01*
X1275075Y1343659D01*
X1297928Y1341120D02*
Y1356355D01*
X1290310Y1348737D01*
X1300467D01*
X1968500Y1267455D02*
X1978657Y1252220D01*
Y1267455D02*
X1968500Y1252220D01*
X1993892Y1264916D02*
X1991353Y1267455D01*
X1986274D01*
X1983735Y1264916D01*
Y1262377D01*
X1986274Y1259837D01*
X1991353D01*
X1993892Y1257298D01*
Y1254759D01*
X1991353Y1252220D01*
X1986274D01*
X1983735Y1254759D01*
X2009127Y1267455D02*
X1998970D01*
Y1259837D01*
X2004048Y1262377D01*
X2006588D01*
X2009127Y1259837D01*
Y1254759D01*
X2006588Y1252220D01*
X2001509D01*
X1998970Y1254759D01*
X1559560Y426715D02*
X1569717D01*
Y424176D01*
X1559560Y414019D01*
Y411480D01*
X1569717D01*
X1584952Y414019D02*
Y424176D01*
X1582413Y426715D01*
X1577334D01*
X1574795Y424176D01*
Y414019D01*
X1577334Y411480D01*
X1582413D01*
X1579873Y416558D02*
X1584952Y411480D01*
X1582413D02*
X1584952Y414019D01*
X1590030Y411480D02*
X1595108D01*
X1592569D01*
Y426715D01*
X1590030Y424176D01*
X1706880Y515620D02*
Y530855D01*
X1714498D01*
X1717037Y528316D01*
Y523237D01*
X1714498Y520698D01*
X1706880D01*
X1711958D02*
X1717037Y515620D01*
X1722115D02*
X1727193D01*
X1724654D01*
Y530855D01*
X1722115Y528316D01*
X1668780Y515620D02*
Y530855D01*
X1676398D01*
X1678937Y528316D01*
Y523237D01*
X1676398Y520698D01*
X1668780D01*
X1673858D02*
X1678937Y515620D01*
X1694172D02*
X1684015D01*
X1694172Y525777D01*
Y528316D01*
X1691633Y530855D01*
X1686554D01*
X1684015Y528316D01*
X642620Y1099820D02*
X627385D01*
Y1107438D01*
X629924Y1109977D01*
X635003D01*
X637542Y1107438D01*
Y1099820D01*
Y1104898D02*
X642620Y1109977D01*
X629924Y1115055D02*
X627385Y1117594D01*
Y1122673D01*
X629924Y1125212D01*
X632463D01*
X635003Y1122673D01*
Y1120133D01*
Y1122673D01*
X637542Y1125212D01*
X640081D01*
X642620Y1122673D01*
Y1117594D01*
X640081Y1115055D01*
X477520Y1219200D02*
X462285D01*
Y1226817D01*
X464824Y1229357D01*
X469902D01*
X472442Y1226817D01*
Y1219200D01*
Y1224278D02*
X477520Y1229357D01*
Y1242053D02*
X462285D01*
X469902Y1234435D01*
Y1244592D01*
X439420Y1219200D02*
X424185D01*
Y1226817D01*
X426724Y1229357D01*
X431802D01*
X434342Y1226817D01*
Y1219200D01*
Y1224278D02*
X439420Y1229357D01*
X424185Y1244592D02*
Y1234435D01*
X431802D01*
X429263Y1239513D01*
Y1242053D01*
X431802Y1244592D01*
X436881D01*
X439420Y1242053D01*
Y1236974D01*
X436881Y1234435D01*
X1681480Y1214374D02*
X1666245D01*
Y1221992D01*
X1668784Y1224531D01*
X1673862D01*
X1676402Y1221992D01*
Y1214374D01*
Y1219452D02*
X1681480Y1224531D01*
X1666245Y1239766D02*
X1668784Y1234687D01*
X1673862Y1229609D01*
X1678941D01*
X1681480Y1232148D01*
Y1237227D01*
X1678941Y1239766D01*
X1676402D01*
X1673862Y1237227D01*
Y1229609D01*
X1633220Y1214374D02*
X1617985D01*
Y1221992D01*
X1620524Y1224531D01*
X1625603D01*
X1628142Y1221992D01*
Y1214374D01*
Y1219452D02*
X1633220Y1224531D01*
X1617985Y1229609D02*
Y1239766D01*
X1620524D01*
X1630681Y1229609D01*
X1633220D01*
X1788160Y1219200D02*
X1772925D01*
Y1226817D01*
X1775464Y1229357D01*
X1780542D01*
X1783082Y1226817D01*
Y1219200D01*
Y1224278D02*
X1788160Y1229357D01*
X1775464Y1234435D02*
X1772925Y1236974D01*
Y1242053D01*
X1775464Y1244592D01*
X1778003D01*
X1780542Y1242053D01*
X1783082Y1244592D01*
X1785621D01*
X1788160Y1242053D01*
Y1236974D01*
X1785621Y1234435D01*
X1783082D01*
X1780542Y1236974D01*
X1778003Y1234435D01*
X1775464D01*
X1780542Y1236974D02*
Y1242053D01*
X1277620Y1097280D02*
X1262385D01*
Y1104898D01*
X1264924Y1107437D01*
X1270003D01*
X1272542Y1104898D01*
Y1097280D01*
Y1102358D02*
X1277620Y1107437D01*
X1275081Y1112515D02*
X1277620Y1115054D01*
Y1120133D01*
X1275081Y1122672D01*
X1264924D01*
X1262385Y1120133D01*
Y1115054D01*
X1264924Y1112515D01*
X1267463D01*
X1270003Y1115054D01*
Y1122672D01*
X1404620Y1132840D02*
X1389385D01*
Y1140458D01*
X1391924Y1142997D01*
X1397003D01*
X1399542Y1140458D01*
Y1132840D01*
Y1137918D02*
X1404620Y1142997D01*
Y1148075D02*
Y1153153D01*
Y1150614D01*
X1389385D01*
X1391924Y1148075D01*
Y1160771D02*
X1389385Y1163310D01*
Y1168389D01*
X1391924Y1170928D01*
X1402081D01*
X1404620Y1168389D01*
Y1163310D01*
X1402081Y1160771D01*
X1391924D01*
X1610360Y1135380D02*
X1595125D01*
Y1142998D01*
X1597664Y1145537D01*
X1602742D01*
X1605282Y1142998D01*
Y1135380D01*
Y1140458D02*
X1610360Y1145537D01*
Y1150615D02*
Y1155693D01*
Y1153154D01*
X1595125D01*
X1597664Y1150615D01*
X1610360Y1163311D02*
Y1168389D01*
Y1165850D01*
X1595125D01*
X1597664Y1163311D01*
X1203960Y716280D02*
Y731515D01*
X1211578D01*
X1214117Y728976D01*
Y723897D01*
X1211578Y721358D01*
X1203960D01*
X1209038D02*
X1214117Y716280D01*
X1219195D02*
X1224273D01*
X1221734D01*
Y731515D01*
X1219195Y728976D01*
X1242048Y716280D02*
X1231891D01*
X1242048Y726437D01*
Y728976D01*
X1239509Y731515D01*
X1234430D01*
X1231891Y728976D01*
X1493520Y1092200D02*
X1478285D01*
Y1099818D01*
X1480824Y1102357D01*
X1485903D01*
X1488442Y1099818D01*
Y1092200D01*
Y1097278D02*
X1493520Y1102357D01*
Y1107435D02*
Y1112513D01*
Y1109974D01*
X1478285D01*
X1480824Y1107435D01*
X1493520Y1127748D02*
X1478285D01*
X1485903Y1120131D01*
Y1130288D01*
X1239520Y1084580D02*
X1224285D01*
Y1092197D01*
X1226824Y1094737D01*
X1231902D01*
X1234442Y1092197D01*
Y1084580D01*
Y1089658D02*
X1239520Y1094737D01*
Y1099815D02*
Y1104893D01*
Y1102354D01*
X1224285D01*
X1226824Y1099815D01*
X1224285Y1122668D02*
Y1112511D01*
X1231902D01*
X1229363Y1117589D01*
Y1120128D01*
X1231902Y1122668D01*
X1236981D01*
X1239520Y1120128D01*
Y1115050D01*
X1236981Y1112511D01*
X1455420Y1209040D02*
X1440185D01*
Y1216657D01*
X1442724Y1219197D01*
X1447802D01*
X1450342Y1216657D01*
Y1209040D01*
Y1214118D02*
X1455420Y1219197D01*
Y1224275D02*
Y1229353D01*
Y1226814D01*
X1440185D01*
X1442724Y1224275D01*
X1440185Y1247128D02*
X1442724Y1242049D01*
X1447802Y1236971D01*
X1452881D01*
X1455420Y1239510D01*
Y1244588D01*
X1452881Y1247128D01*
X1450342D01*
X1447802Y1244588D01*
Y1236971D01*
X1254760Y1201420D02*
X1239525D01*
Y1209037D01*
X1242064Y1211577D01*
X1247142D01*
X1249682Y1209037D01*
Y1201420D01*
Y1206498D02*
X1254760Y1211577D01*
Y1216655D02*
Y1221733D01*
Y1219194D01*
X1239525D01*
X1242064Y1216655D01*
X1239525Y1229351D02*
Y1239508D01*
X1242064D01*
X1252221Y1229351D01*
X1254760D01*
X434340Y947420D02*
X419105D01*
Y955038D01*
X421644Y957577D01*
X426722D01*
X429262Y955038D01*
Y947420D01*
Y952498D02*
X434340Y957577D01*
Y962655D02*
Y967733D01*
Y965194D01*
X419105D01*
X421644Y962655D01*
Y975351D02*
X419105Y977890D01*
Y982969D01*
X421644Y985508D01*
X424183D01*
X426722Y982969D01*
X429262Y985508D01*
X431801D01*
X434340Y982969D01*
Y977890D01*
X431801Y975351D01*
X429262D01*
X426722Y977890D01*
X424183Y975351D01*
X421644D01*
X426722Y977890D02*
Y982969D01*
X363220Y919480D02*
X347985D01*
Y927097D01*
X350524Y929637D01*
X355602D01*
X358142Y927097D01*
Y919480D01*
Y924558D02*
X363220Y929637D01*
Y934715D02*
Y939793D01*
Y937254D01*
X347985D01*
X350524Y934715D01*
X360681Y947411D02*
X363220Y949950D01*
Y955029D01*
X360681Y957568D01*
X350524D01*
X347985Y955029D01*
Y949950D01*
X350524Y947411D01*
X353063D01*
X355602Y949950D01*
Y957568D01*
X434340Y894080D02*
X419105D01*
Y901697D01*
X421644Y904237D01*
X426722D01*
X429262Y901697D01*
Y894080D01*
Y899158D02*
X434340Y904237D01*
Y919472D02*
Y909315D01*
X424183Y919472D01*
X421644D01*
X419105Y916933D01*
Y911854D01*
X421644Y909315D01*
Y924550D02*
X419105Y927089D01*
Y932168D01*
X421644Y934707D01*
X431801D01*
X434340Y932168D01*
Y927089D01*
X431801Y924550D01*
X421644D01*
X363220Y868680D02*
X347985D01*
Y876298D01*
X350524Y878837D01*
X355602D01*
X358142Y876298D01*
Y868680D01*
Y873758D02*
X363220Y878837D01*
Y894072D02*
Y883915D01*
X353063Y894072D01*
X350524D01*
X347985Y891533D01*
Y886454D01*
X350524Y883915D01*
X363220Y899150D02*
Y904229D01*
Y901689D01*
X347985D01*
X350524Y899150D01*
X370840Y830580D02*
Y845815D01*
X378457D01*
X380997Y843276D01*
Y838197D01*
X378457Y835658D01*
X370840D01*
X375918D02*
X380997Y830580D01*
X396232D02*
X386075D01*
X396232Y840737D01*
Y843276D01*
X393693Y845815D01*
X388614D01*
X386075Y843276D01*
X411467Y830580D02*
X401310D01*
X411467Y840737D01*
Y843276D01*
X408928Y845815D01*
X403849D01*
X401310Y843276D01*
X370840Y1059180D02*
Y1074415D01*
X378457D01*
X380997Y1071876D01*
Y1066797D01*
X378457Y1064258D01*
X370840D01*
X375918D02*
X380997Y1059180D01*
X396232D02*
X386075D01*
X396232Y1069337D01*
Y1071876D01*
X393693Y1074415D01*
X388614D01*
X386075Y1071876D01*
X401310D02*
X403849Y1074415D01*
X408928D01*
X411467Y1071876D01*
Y1069337D01*
X408928Y1066797D01*
X406389D01*
X408928D01*
X411467Y1064258D01*
Y1061719D01*
X408928Y1059180D01*
X403849D01*
X401310Y1061719D01*
X434340Y995680D02*
X419105D01*
Y1003298D01*
X421644Y1005837D01*
X426722D01*
X429262Y1003298D01*
Y995680D01*
Y1000758D02*
X434340Y1005837D01*
Y1021072D02*
Y1010915D01*
X424183Y1021072D01*
X421644D01*
X419105Y1018533D01*
Y1013454D01*
X421644Y1010915D01*
X434340Y1033768D02*
X419105D01*
X426722Y1026150D01*
Y1036307D01*
X363220Y970280D02*
X347985D01*
Y977897D01*
X350524Y980437D01*
X355602D01*
X358142Y977897D01*
Y970280D01*
Y975358D02*
X363220Y980437D01*
Y995672D02*
Y985515D01*
X353063Y995672D01*
X350524D01*
X347985Y993133D01*
Y988054D01*
X350524Y985515D01*
X347985Y1010907D02*
Y1000750D01*
X355602D01*
X353063Y1005828D01*
Y1008368D01*
X355602Y1010907D01*
X360681D01*
X363220Y1008368D01*
Y1003289D01*
X360681Y1000750D01*
X1023620Y967740D02*
X1008385D01*
Y975358D01*
X1010924Y977897D01*
X1016003D01*
X1018542Y975358D01*
Y967740D01*
Y972818D02*
X1023620Y977897D01*
Y993132D02*
Y982975D01*
X1013463Y993132D01*
X1010924D01*
X1008385Y990593D01*
Y985514D01*
X1010924Y982975D01*
X1008385Y1008367D02*
X1010924Y1003288D01*
X1016003Y998210D01*
X1021081D01*
X1023620Y1000749D01*
Y1005828D01*
X1021081Y1008367D01*
X1018542D01*
X1016003Y1005828D01*
Y998210D01*
X1049020Y967740D02*
X1033785D01*
Y975358D01*
X1036324Y977897D01*
X1041403D01*
X1043942Y975358D01*
Y967740D01*
Y972818D02*
X1049020Y977897D01*
Y993132D02*
Y982975D01*
X1038863Y993132D01*
X1036324D01*
X1033785Y990593D01*
Y985514D01*
X1036324Y982975D01*
X1033785Y998210D02*
Y1008367D01*
X1036324D01*
X1046481Y998210D01*
X1049020D01*
X972820Y967740D02*
X957585D01*
Y975358D01*
X960124Y977897D01*
X965202D01*
X967742Y975358D01*
Y967740D01*
Y972818D02*
X972820Y977897D01*
Y993132D02*
Y982975D01*
X962663Y993132D01*
X960124D01*
X957585Y990593D01*
Y985514D01*
X960124Y982975D01*
Y998210D02*
X957585Y1000749D01*
Y1005828D01*
X960124Y1008367D01*
X962663D01*
X965202Y1005828D01*
X967742Y1008367D01*
X970281D01*
X972820Y1005828D01*
Y1000749D01*
X970281Y998210D01*
X967742D01*
X965202Y1000749D01*
X962663Y998210D01*
X960124D01*
X965202Y1000749D02*
Y1005828D01*
X896620Y967740D02*
X881385D01*
Y975358D01*
X883924Y977897D01*
X889003D01*
X891542Y975358D01*
Y967740D01*
Y972818D02*
X896620Y977897D01*
Y993132D02*
Y982975D01*
X886463Y993132D01*
X883924D01*
X881385Y990593D01*
Y985514D01*
X883924Y982975D01*
X894081Y998210D02*
X896620Y1000749D01*
Y1005828D01*
X894081Y1008367D01*
X883924D01*
X881385Y1005828D01*
Y1000749D01*
X883924Y998210D01*
X886463D01*
X889003Y1000749D01*
Y1008367D01*
X871220Y967740D02*
X855985D01*
Y975358D01*
X858524Y977897D01*
X863603D01*
X866142Y975358D01*
Y967740D01*
Y972818D02*
X871220Y977897D01*
X858524Y982975D02*
X855985Y985514D01*
Y990593D01*
X858524Y993132D01*
X861063D01*
X863603Y990593D01*
Y988053D01*
Y990593D01*
X866142Y993132D01*
X868681D01*
X871220Y990593D01*
Y985514D01*
X868681Y982975D01*
X858524Y998210D02*
X855985Y1000749D01*
Y1005828D01*
X858524Y1008367D01*
X868681D01*
X871220Y1005828D01*
Y1000749D01*
X868681Y998210D01*
X858524D01*
X922020Y972820D02*
X906785D01*
Y980437D01*
X909324Y982977D01*
X914402D01*
X916942Y980437D01*
Y972820D01*
Y977898D02*
X922020Y982977D01*
X909324Y988055D02*
X906785Y990594D01*
Y995673D01*
X909324Y998212D01*
X911863D01*
X914402Y995673D01*
Y993133D01*
Y995673D01*
X916942Y998212D01*
X919481D01*
X922020Y995673D01*
Y990594D01*
X919481Y988055D01*
X922020Y1003290D02*
Y1008369D01*
Y1005829D01*
X906785D01*
X909324Y1003290D01*
X947420Y967740D02*
X932185D01*
Y975358D01*
X934724Y977897D01*
X939802D01*
X942342Y975358D01*
Y967740D01*
Y972818D02*
X947420Y977897D01*
X934724Y982975D02*
X932185Y985514D01*
Y990593D01*
X934724Y993132D01*
X937263D01*
X939802Y990593D01*
Y988053D01*
Y990593D01*
X942342Y993132D01*
X944881D01*
X947420Y990593D01*
Y985514D01*
X944881Y982975D01*
X947420Y1008367D02*
Y998210D01*
X937263Y1008367D01*
X934724D01*
X932185Y1005828D01*
Y1000749D01*
X934724Y998210D01*
X998220Y967740D02*
X982985D01*
Y975358D01*
X985524Y977897D01*
X990602D01*
X993142Y975358D01*
Y967740D01*
Y972818D02*
X998220Y977897D01*
X985524Y982975D02*
X982985Y985514D01*
Y990593D01*
X985524Y993132D01*
X988063D01*
X990602Y990593D01*
Y988053D01*
Y990593D01*
X993142Y993132D01*
X995681D01*
X998220Y990593D01*
Y985514D01*
X995681Y982975D01*
X985524Y998210D02*
X982985Y1000749D01*
Y1005828D01*
X985524Y1008367D01*
X988063D01*
X990602Y1005828D01*
Y1003288D01*
Y1005828D01*
X993142Y1008367D01*
X995681D01*
X998220Y1005828D01*
Y1000749D01*
X995681Y998210D01*
X373380Y668020D02*
X358145D01*
Y675638D01*
X360684Y678177D01*
X365762D01*
X368302Y675638D01*
Y668020D01*
Y673098D02*
X373380Y678177D01*
X360684Y683255D02*
X358145Y685794D01*
Y690873D01*
X360684Y693412D01*
X363223D01*
X365762Y690873D01*
Y688333D01*
Y690873D01*
X368302Y693412D01*
X370841D01*
X373380Y690873D01*
Y685794D01*
X370841Y683255D01*
X358145Y708647D02*
Y698490D01*
X365762D01*
X363223Y703568D01*
Y706108D01*
X365762Y708647D01*
X370841D01*
X373380Y706108D01*
Y701029D01*
X370841Y698490D01*
X502920Y668020D02*
X487685D01*
Y675638D01*
X490224Y678177D01*
X495303D01*
X497842Y675638D01*
Y668020D01*
Y673098D02*
X502920Y678177D01*
X490224Y683255D02*
X487685Y685794D01*
Y690873D01*
X490224Y693412D01*
X492763D01*
X495303Y690873D01*
Y688333D01*
Y690873D01*
X497842Y693412D01*
X500381D01*
X502920Y690873D01*
Y685794D01*
X500381Y683255D01*
X487685Y708647D02*
X490224Y703568D01*
X495303Y698490D01*
X500381D01*
X502920Y701029D01*
Y706108D01*
X500381Y708647D01*
X497842D01*
X495303Y706108D01*
Y698490D01*
X553720Y668020D02*
X538485D01*
Y675638D01*
X541024Y678177D01*
X546102D01*
X548642Y675638D01*
Y668020D01*
Y673098D02*
X553720Y678177D01*
X541024Y683255D02*
X538485Y685794D01*
Y690873D01*
X541024Y693412D01*
X543563D01*
X546102Y690873D01*
Y688333D01*
Y690873D01*
X548642Y693412D01*
X551181D01*
X553720Y690873D01*
Y685794D01*
X551181Y683255D01*
X538485Y698490D02*
Y708647D01*
X541024D01*
X551181Y698490D01*
X553720D01*
X1201420Y1023620D02*
X1186185D01*
Y1031237D01*
X1188724Y1033777D01*
X1193802D01*
X1196342Y1031237D01*
Y1023620D01*
Y1028698D02*
X1201420Y1033777D01*
X1188724Y1038855D02*
X1186185Y1041394D01*
Y1046473D01*
X1188724Y1049012D01*
X1191263D01*
X1193802Y1046473D01*
Y1043933D01*
Y1046473D01*
X1196342Y1049012D01*
X1198881D01*
X1201420Y1046473D01*
Y1041394D01*
X1198881Y1038855D01*
X1188724Y1054090D02*
X1186185Y1056629D01*
Y1061708D01*
X1188724Y1064247D01*
X1191263D01*
X1193802Y1061708D01*
X1196342Y1064247D01*
X1198881D01*
X1201420Y1061708D01*
Y1056629D01*
X1198881Y1054090D01*
X1196342D01*
X1193802Y1056629D01*
X1191263Y1054090D01*
X1188724D01*
X1193802Y1056629D02*
Y1061708D01*
X1544320Y1054100D02*
X1529085D01*
Y1061718D01*
X1531624Y1064257D01*
X1536703D01*
X1539242Y1061718D01*
Y1054100D01*
Y1059178D02*
X1544320Y1064257D01*
X1531624Y1069335D02*
X1529085Y1071874D01*
Y1076953D01*
X1531624Y1079492D01*
X1534163D01*
X1536703Y1076953D01*
Y1074413D01*
Y1076953D01*
X1539242Y1079492D01*
X1541781D01*
X1544320Y1076953D01*
Y1071874D01*
X1541781Y1069335D01*
Y1084570D02*
X1544320Y1087109D01*
Y1092188D01*
X1541781Y1094727D01*
X1531624D01*
X1529085Y1092188D01*
Y1087109D01*
X1531624Y1084570D01*
X1534163D01*
X1536703Y1087109D01*
Y1094727D01*
X309880Y1170940D02*
X294645D01*
Y1178558D01*
X297184Y1181097D01*
X302262D01*
X304802Y1178558D01*
Y1170940D01*
Y1176018D02*
X309880Y1181097D01*
Y1193793D02*
X294645D01*
X302262Y1186175D01*
Y1196332D01*
X297184Y1201410D02*
X294645Y1203949D01*
Y1209028D01*
X297184Y1211567D01*
X307341D01*
X309880Y1209028D01*
Y1203949D01*
X307341Y1201410D01*
X297184D01*
X1455420Y1132840D02*
X1440185D01*
Y1140458D01*
X1442724Y1142997D01*
X1447802D01*
X1450342Y1140458D01*
Y1132840D01*
Y1137918D02*
X1455420Y1142997D01*
Y1155693D02*
X1440185D01*
X1447802Y1148075D01*
Y1158232D01*
X1455420Y1163310D02*
Y1168389D01*
Y1165849D01*
X1440185D01*
X1442724Y1163310D01*
X1912620Y1028700D02*
X1897385D01*
Y1036318D01*
X1899924Y1038857D01*
X1905002D01*
X1907542Y1036318D01*
Y1028700D01*
Y1033778D02*
X1912620Y1038857D01*
Y1051553D02*
X1897385D01*
X1905002Y1043935D01*
Y1054092D01*
X1912620Y1069327D02*
Y1059170D01*
X1902463Y1069327D01*
X1899924D01*
X1897385Y1066788D01*
Y1061709D01*
X1899924Y1059170D01*
X1912620Y1092200D02*
X1897385D01*
Y1099818D01*
X1899924Y1102357D01*
X1905002D01*
X1907542Y1099818D01*
Y1092200D01*
Y1097278D02*
X1912620Y1102357D01*
Y1115053D02*
X1897385D01*
X1905002Y1107435D01*
Y1117592D01*
X1899924Y1122670D02*
X1897385Y1125209D01*
Y1130288D01*
X1899924Y1132827D01*
X1902463D01*
X1905002Y1130288D01*
Y1127748D01*
Y1130288D01*
X1907542Y1132827D01*
X1910081D01*
X1912620Y1130288D01*
Y1125209D01*
X1910081Y1122670D01*
X1988820Y1028700D02*
X1973585D01*
Y1036318D01*
X1976124Y1038857D01*
X1981203D01*
X1983742Y1036318D01*
Y1028700D01*
Y1033778D02*
X1988820Y1038857D01*
Y1051553D02*
X1973585D01*
X1981203Y1043935D01*
Y1054092D01*
X1988820Y1066788D02*
X1973585D01*
X1981203Y1059170D01*
Y1069327D01*
X1983613Y1092327D02*
X1968378D01*
Y1099945D01*
X1970917Y1102484D01*
X1975995D01*
X1978535Y1099945D01*
Y1092327D01*
Y1097405D02*
X1983613Y1102484D01*
Y1115180D02*
X1968378D01*
X1975995Y1107562D01*
Y1117719D01*
X1968378Y1132954D02*
Y1122797D01*
X1975995D01*
X1973456Y1127876D01*
Y1130415D01*
X1975995Y1132954D01*
X1981074D01*
X1983613Y1130415D01*
Y1125336D01*
X1981074Y1122797D01*
X2065020Y1031240D02*
X2049785D01*
Y1038857D01*
X2052324Y1041397D01*
X2057402D01*
X2059942Y1038857D01*
Y1031240D01*
Y1036318D02*
X2065020Y1041397D01*
Y1054093D02*
X2049785D01*
X2057402Y1046475D01*
Y1056632D01*
X2049785Y1071867D02*
X2052324Y1066788D01*
X2057402Y1061710D01*
X2062481D01*
X2065020Y1064249D01*
Y1069328D01*
X2062481Y1071867D01*
X2059942D01*
X2057402Y1069328D01*
Y1061710D01*
X2065020Y1092200D02*
X2049785D01*
Y1099818D01*
X2052324Y1102357D01*
X2057402D01*
X2059942Y1099818D01*
Y1092200D01*
Y1097278D02*
X2065020Y1102357D01*
Y1115053D02*
X2049785D01*
X2057402Y1107435D01*
Y1117592D01*
X2049785Y1122670D02*
Y1132827D01*
X2052324D01*
X2062481Y1122670D01*
X2065020D01*
X426720Y668020D02*
X411485D01*
Y675638D01*
X414024Y678177D01*
X419103D01*
X421642Y675638D01*
Y668020D01*
Y673098D02*
X426720Y678177D01*
Y690873D02*
X411485D01*
X419103Y683255D01*
Y693412D01*
X414024Y698490D02*
X411485Y701029D01*
Y706108D01*
X414024Y708647D01*
X416563D01*
X419103Y706108D01*
X421642Y708647D01*
X424181D01*
X426720Y706108D01*
Y701029D01*
X424181Y698490D01*
X421642D01*
X419103Y701029D01*
X416563Y698490D01*
X414024D01*
X419103Y701029D02*
Y706108D01*
X553720Y1066800D02*
X538485D01*
Y1074417D01*
X541024Y1076957D01*
X546102D01*
X548642Y1074417D01*
Y1066800D01*
Y1071878D02*
X553720Y1076957D01*
Y1089653D02*
X538485D01*
X546102Y1082035D01*
Y1092192D01*
X551181Y1097270D02*
X553720Y1099809D01*
Y1104888D01*
X551181Y1107427D01*
X541024D01*
X538485Y1104888D01*
Y1099809D01*
X541024Y1097270D01*
X543563D01*
X546102Y1099809D01*
Y1107427D01*
X312424Y408937D02*
X309885Y406398D01*
Y401319D01*
X312424Y398780D01*
X322581D01*
X325120Y401319D01*
Y406398D01*
X322581Y408937D01*
X325120Y424172D02*
Y414015D01*
X314963Y424172D01*
X312424D01*
X309885Y421633D01*
Y416554D01*
X312424Y414015D01*
X325120Y439407D02*
Y429250D01*
X314963Y439407D01*
X312424D01*
X309885Y436868D01*
Y431789D01*
X312424Y429250D01*
Y767077D02*
X309885Y764538D01*
Y759459D01*
X312424Y756920D01*
X322581D01*
X325120Y759459D01*
Y764538D01*
X322581Y767077D01*
X325120Y782312D02*
Y772155D01*
X314963Y782312D01*
X312424D01*
X309885Y779773D01*
Y774694D01*
X312424Y772155D01*
Y787390D02*
X309885Y789929D01*
Y795008D01*
X312424Y797547D01*
X314963D01*
X317502Y795008D01*
Y792468D01*
Y795008D01*
X320042Y797547D01*
X322581D01*
X325120Y795008D01*
Y789929D01*
X322581Y787390D01*
X1198885Y1259840D02*
X1214120Y1269997D01*
X1198885D02*
X1214120Y1259840D01*
Y1275075D02*
X1198885D01*
Y1282693D01*
X1201424Y1285232D01*
X1206503D01*
X1209042Y1282693D01*
Y1275075D01*
X1214120Y1297928D02*
X1198885D01*
X1206503Y1290310D01*
Y1300467D01*
X932180Y464815D02*
Y449580D01*
X939798D01*
X942337Y452119D01*
Y462276D01*
X939798Y464815D01*
X932180D01*
X947415D02*
Y449580D01*
X955033D01*
X957572Y452119D01*
Y462276D01*
X955033Y464815D01*
X947415D01*
X972807D02*
X962650D01*
Y457197D01*
X967729Y459737D01*
X970268D01*
X972807Y457197D01*
Y452119D01*
X970268Y449580D01*
X965189D01*
X962650Y452119D01*
X927100Y668015D02*
Y652780D01*
X934717D01*
X937257Y655319D01*
Y665476D01*
X934717Y668015D01*
X927100D01*
X942335D02*
Y652780D01*
X949953D01*
X952492Y655319D01*
Y665476D01*
X949953Y668015D01*
X942335D01*
X957570Y652780D02*
X962648D01*
X960109D01*
Y668015D01*
X957570Y665476D01*
X970266Y652780D02*
X975344D01*
X972805D01*
Y668015D01*
X970266Y665476D01*
X1506220Y1201415D02*
Y1191258D01*
X1511298Y1186180D01*
X1516377Y1191258D01*
Y1201415D01*
X1521455D02*
X1531612D01*
X1526533D01*
Y1186180D01*
X1536690D02*
X1541768D01*
X1539229D01*
Y1201415D01*
X1536690Y1198876D01*
X1300480Y1201415D02*
Y1191258D01*
X1305558Y1186180D01*
X1310637Y1191258D01*
Y1201415D01*
X1315715D02*
X1325872D01*
X1320793D01*
Y1186180D01*
X1341107D02*
X1330950D01*
X1341107Y1196337D01*
Y1198876D01*
X1338568Y1201415D01*
X1333489D01*
X1330950Y1198876D01*
X360680Y1239515D02*
Y1229358D01*
X365758Y1224280D01*
X370837Y1229358D01*
Y1239515D01*
X375915D02*
X386072D01*
X380993D01*
Y1224280D01*
X391150Y1236976D02*
X393689Y1239515D01*
X398768D01*
X401307Y1236976D01*
Y1234437D01*
X398768Y1231898D01*
X396228D01*
X398768D01*
X401307Y1229358D01*
Y1226819D01*
X398768Y1224280D01*
X393689D01*
X391150Y1226819D01*
X652780Y1328415D02*
X662937Y1313180D01*
Y1328415D02*
X652780Y1313180D01*
X668015D02*
Y1328415D01*
X675633D01*
X678172Y1325876D01*
Y1320797D01*
X675633Y1318258D01*
X668015D01*
X693407Y1328415D02*
X688328Y1325876D01*
X683250Y1320797D01*
Y1315719D01*
X685789Y1313180D01*
X690868D01*
X693407Y1315719D01*
Y1318258D01*
X690868Y1320797D01*
X683250D01*
X1887217Y1287776D02*
X1884677Y1290315D01*
X1879599D01*
X1877060Y1287776D01*
Y1285237D01*
X1879599Y1282697D01*
X1884677D01*
X1887217Y1280158D01*
Y1277619D01*
X1884677Y1275080D01*
X1879599D01*
X1877060Y1277619D01*
X1892295Y1290315D02*
Y1275080D01*
X1899913D01*
X1902452Y1277619D01*
Y1287776D01*
X1899913Y1290315D01*
X1892295D01*
X1932922Y1285237D02*
X1925304D01*
X1922765Y1282697D01*
Y1277619D01*
X1925304Y1275080D01*
X1932922D01*
X1940540Y1285237D02*
X1945618D01*
X1948157Y1282697D01*
Y1275080D01*
X1940540D01*
X1938000Y1277619D01*
X1940540Y1280158D01*
X1948157D01*
X1953235Y1285237D02*
Y1275080D01*
Y1280158D01*
X1955775Y1282697D01*
X1958314Y1285237D01*
X1960853D01*
X1978627Y1290315D02*
Y1275080D01*
X1971010D01*
X1968470Y1277619D01*
Y1282697D01*
X1971010Y1285237D01*
X1978627D01*
X1998941Y1275080D02*
Y1285237D01*
X2001480D01*
X2004019Y1282697D01*
Y1275080D01*
Y1282697D01*
X2006558Y1285237D01*
X2009097Y1282697D01*
Y1275080D01*
X2016715D02*
X2021793D01*
X2024332Y1277619D01*
Y1282697D01*
X2021793Y1285237D01*
X2016715D01*
X2014176Y1282697D01*
Y1277619D01*
X2016715Y1275080D01*
X2039567Y1290315D02*
Y1275080D01*
X2031950D01*
X2029411Y1277619D01*
Y1282697D01*
X2031950Y1285237D01*
X2039567D01*
X2044646D02*
Y1277619D01*
X2047185Y1275080D01*
X2054803D01*
Y1285237D01*
X2059881Y1275080D02*
X2064959D01*
X2062420D01*
Y1290315D01*
X2059881D01*
X2080194Y1275080D02*
X2075116D01*
X2072577Y1277619D01*
Y1282697D01*
X2075116Y1285237D01*
X2080194D01*
X2082733Y1282697D01*
Y1280158D01*
X2072577D01*
X297180Y1252220D02*
Y1267455D01*
X304797D01*
X307337Y1264916D01*
Y1259837D01*
X304797Y1257298D01*
X297180D01*
X314954Y1252220D02*
X320033D01*
X322572Y1254759D01*
Y1259837D01*
X320033Y1262377D01*
X314954D01*
X312415Y1259837D01*
Y1254759D01*
X314954Y1252220D01*
X327650Y1262377D02*
Y1254759D01*
X330189Y1252220D01*
X332729Y1254759D01*
X335268Y1252220D01*
X337807Y1254759D01*
Y1262377D01*
X350503Y1252220D02*
X345424D01*
X342885Y1254759D01*
Y1259837D01*
X345424Y1262377D01*
X350503D01*
X353042Y1259837D01*
Y1257298D01*
X342885D01*
X358120Y1262377D02*
Y1252220D01*
Y1257298D01*
X360659Y1259837D01*
X363199Y1262377D01*
X365738D01*
X441960Y845815D02*
Y830580D01*
Y835658D01*
X452117Y845815D01*
X444499Y838197D01*
X452117Y830580D01*
X464813D02*
X459734D01*
X457195Y833119D01*
Y838197D01*
X459734Y840737D01*
X464813D01*
X467352Y838197D01*
Y835658D01*
X457195D01*
X472430Y840737D02*
Y833119D01*
X474969Y830580D01*
X482587D01*
Y828041D01*
X480048Y825502D01*
X477509D01*
X482587Y830580D02*
Y840737D01*
X487665Y845815D02*
Y830580D01*
X495283D01*
X497822Y833119D01*
Y835658D01*
Y838197D01*
X495283Y840737D01*
X487665D01*
X505439Y830580D02*
X510518D01*
X513057Y833119D01*
Y838197D01*
X510518Y840737D01*
X505439D01*
X502900Y838197D01*
Y833119D01*
X505439Y830580D01*
X520675Y840737D02*
X525753D01*
X528292Y838197D01*
Y830580D01*
X520675D01*
X518135Y833119D01*
X520675Y835658D01*
X528292D01*
X533370Y840737D02*
Y830580D01*
Y835658D01*
X535910Y838197D01*
X538449Y840737D01*
X540988D01*
X558762Y845815D02*
Y830580D01*
X551145D01*
X548605Y833119D01*
Y838197D01*
X551145Y840737D01*
X558762D01*
X721357Y1280156D02*
X718818Y1282695D01*
X713739D01*
X711200Y1280156D01*
Y1277617D01*
X713739Y1275078D01*
X718818D01*
X721357Y1272538D01*
Y1269999D01*
X718818Y1267460D01*
X713739D01*
X711200Y1269999D01*
X726435Y1277617D02*
Y1269999D01*
X728974Y1267460D01*
X736592D01*
Y1264921D01*
X734053Y1262382D01*
X731513D01*
X736592Y1267460D02*
Y1277617D01*
X741670Y1267460D02*
X749288D01*
X751827Y1269999D01*
X749288Y1272538D01*
X744209D01*
X741670Y1275078D01*
X744209Y1277617D01*
X751827D01*
X759444Y1280156D02*
Y1277617D01*
X756905D01*
X761984D01*
X759444D01*
Y1269999D01*
X761984Y1267460D01*
X777219D02*
X772140D01*
X769601Y1269999D01*
Y1275078D01*
X772140Y1277617D01*
X777219D01*
X779758Y1275078D01*
Y1272538D01*
X769601D01*
X784836Y1267460D02*
Y1277617D01*
X787375D01*
X789914Y1275078D01*
Y1267460D01*
Y1275078D01*
X792454Y1277617D01*
X794993Y1275078D01*
Y1267460D01*
X1249685D02*
X1259842D01*
X1264920Y1272538D01*
X1259842Y1277617D01*
X1249685D01*
X1264920Y1282695D02*
Y1287773D01*
Y1285234D01*
X1254763D01*
Y1282695D01*
X1249685Y1305548D02*
X1264920D01*
Y1297930D01*
X1262381Y1295391D01*
X1257302D01*
X1254763Y1297930D01*
Y1305548D01*
X1264920Y1318244D02*
Y1313165D01*
X1262381Y1310626D01*
X1257302D01*
X1254763Y1313165D01*
Y1318244D01*
X1257302Y1320783D01*
X1259842D01*
Y1310626D01*
X1264920Y1328400D02*
Y1333479D01*
X1262381Y1336018D01*
X1257302D01*
X1254763Y1333479D01*
Y1328400D01*
X1257302Y1325861D01*
X1262381D01*
X1264920Y1328400D01*
X1427485Y1303017D02*
Y1297939D01*
X1430024Y1295400D01*
X1440181D01*
X1442720Y1297939D01*
Y1303017D01*
X1440181Y1305557D01*
X1430024D01*
X1427485Y1303017D01*
X1432563Y1310635D02*
X1440181D01*
X1442720Y1313174D01*
Y1320792D01*
X1432563D01*
X1430024Y1328409D02*
X1432563D01*
Y1325870D01*
Y1330948D01*
Y1328409D01*
X1440181D01*
X1442720Y1330948D01*
X1785625Y1303020D02*
Y1308098D01*
Y1305559D01*
X1800860D01*
Y1303020D01*
Y1308098D01*
Y1315716D02*
X1790703D01*
Y1323333D01*
X1793242Y1325873D01*
X1800860D01*
X1582420Y1259835D02*
X1592577D01*
X1587498D01*
Y1244600D01*
X1600194Y1254757D02*
X1605273D01*
X1607812Y1252217D01*
Y1244600D01*
X1600194D01*
X1597655Y1247139D01*
X1600194Y1249678D01*
X1607812D01*
X1612890Y1239522D02*
Y1254757D01*
X1620508D01*
X1623047Y1252217D01*
Y1247139D01*
X1620508Y1244600D01*
X1612890D01*
X1635743D02*
X1630664D01*
X1628125Y1247139D01*
Y1252217D01*
X1630664Y1254757D01*
X1635743D01*
X1638282Y1252217D01*
Y1249678D01*
X1628125D01*
X1902457Y1160776D02*
X1899917Y1163315D01*
X1894839D01*
X1892300Y1160776D01*
Y1158237D01*
X1894839Y1155697D01*
X1899917D01*
X1902457Y1153158D01*
Y1150619D01*
X1899917Y1148080D01*
X1894839D01*
X1892300Y1150619D01*
X1907535Y1163315D02*
Y1148080D01*
X1915153D01*
X1917692Y1150619D01*
Y1160776D01*
X1915153Y1163315D01*
X1907535D01*
X1948162Y1158237D02*
X1940544D01*
X1938005Y1155697D01*
Y1150619D01*
X1940544Y1148080D01*
X1948162D01*
X1955780Y1158237D02*
X1960858D01*
X1963397Y1155697D01*
Y1148080D01*
X1955780D01*
X1953240Y1150619D01*
X1955780Y1153158D01*
X1963397D01*
X1968475Y1158237D02*
Y1148080D01*
Y1153158D01*
X1971015Y1155697D01*
X1973554Y1158237D01*
X1976093D01*
X1993867Y1163315D02*
Y1148080D01*
X1986250D01*
X1983710Y1150619D01*
Y1155697D01*
X1986250Y1158237D01*
X1993867D01*
X2014181Y1163315D02*
Y1148080D01*
Y1155697D01*
X2016720Y1158237D01*
X2021798D01*
X2024337Y1155697D01*
Y1148080D01*
X2031955D02*
X2037033D01*
X2039572Y1150619D01*
Y1155697D01*
X2037033Y1158237D01*
X2031955D01*
X2029416Y1155697D01*
Y1150619D01*
X2031955Y1148080D01*
X2044651D02*
X2049729D01*
X2047190D01*
Y1163315D01*
X2044651D01*
X2067503D02*
Y1148080D01*
X2059886D01*
X2057347Y1150619D01*
Y1155697D01*
X2059886Y1158237D01*
X2067503D01*
X2080199Y1148080D02*
X2075121D01*
X2072582Y1150619D01*
Y1155697D01*
X2075121Y1158237D01*
X2080199D01*
X2082738Y1155697D01*
Y1153158D01*
X2072582D01*
X2087817Y1158237D02*
Y1148080D01*
Y1153158D01*
X2090356Y1155697D01*
X2092895Y1158237D01*
X2095434D01*
X589280Y1338580D02*
Y1353815D01*
X596898D01*
X599437Y1351276D01*
Y1346198D01*
X596898Y1343658D01*
X589280D01*
X594358D02*
X599437Y1338580D01*
X612133D02*
X607054D01*
X604515Y1341119D01*
Y1346198D01*
X607054Y1348737D01*
X612133D01*
X614672Y1346198D01*
Y1343658D01*
X604515D01*
X619750Y1338580D02*
X627368D01*
X629907Y1341119D01*
X627368Y1343658D01*
X622289D01*
X619750Y1346198D01*
X622289Y1348737D01*
X629907D01*
X642603Y1338580D02*
X637524D01*
X634985Y1341119D01*
Y1346198D01*
X637524Y1348737D01*
X642603D01*
X645142Y1346198D01*
Y1343658D01*
X634985D01*
X652759Y1351276D02*
Y1348737D01*
X650220D01*
X655299D01*
X652759D01*
Y1341119D01*
X655299Y1338580D01*
D31*
X558400Y1308100D02*
G03*
X558400Y1308100I-25000J0D01*
G01*
X762000Y857250D02*
G03*
X762000Y869950I0J6350D01*
G01*
X368900Y539750D02*
G03*
X368900Y552450I0J6350D01*
G01*
X1644650Y562500D02*
G03*
X1631950Y562500I-6350J0D01*
G01*
X368900Y412750D02*
G03*
X368900Y425450I0J6350D01*
G01*
X1283300Y793750D02*
G03*
X1283300Y806450I0J6350D01*
G01*
X379600Y768350D02*
G03*
X379600Y781050I0J6350D01*
G01*
X1142600Y1038860D02*
G03*
X1142600Y1038860I-25000J0D01*
G01*
X488950Y849500D02*
G03*
X476250Y849500I-6350J0D01*
G01*
X1651600Y412750D02*
G03*
X1651600Y425450I0J6350D01*
G01*
X1607670Y357500D02*
G03*
X1607670Y404500I0J23500D01*
G01*
X1541780D02*
G03*
X1541780Y357500I0J-23500D01*
G01*
X687500Y1162050D02*
G03*
X687500Y1174750I0J6350D01*
G01*
X615950Y849500D02*
G03*
X603250Y849500I-6350J0D01*
G01*
X1905600Y539750D02*
G03*
X1905600Y552450I0J6350D01*
G01*
Y412750D02*
G03*
X1905600Y425450I0J6350D01*
G01*
Y920750D02*
G03*
X1905600Y933450I0J6350D01*
G01*
X1797050Y562500D02*
G03*
X1784350Y562500I-6350J0D01*
G01*
X1905600Y793750D02*
G03*
X1905600Y806450I0J6350D01*
G01*
Y666750D02*
G03*
X1905600Y679450I0J6350D01*
G01*
X1651600Y920750D02*
G03*
X1651600Y933450I0J6350D01*
G01*
X1268600Y539750D02*
G03*
X1268600Y552450I0J6350D01*
G01*
X1651600Y1047750D02*
G03*
X1651600Y1060450I0J6350D01*
G01*
X1283300Y920750D02*
G03*
X1283300Y933450I0J6350D01*
G01*
Y1047750D02*
G03*
X1283300Y1060450I0J6350D01*
G01*
X456800Y1130300D02*
G03*
X456800Y1130300I-25000J0D01*
G01*
X1268600Y666750D02*
G03*
X1268600Y679450I0J6350D01*
G01*
X1396600Y1229360D02*
G03*
X1396600Y1229360I-25000J0D01*
G01*
X1268600Y412750D02*
G03*
X1268600Y425450I0J6350D01*
G01*
X666750Y366900D02*
G03*
X654050Y366900I-6350J0D01*
G01*
X762000Y654050D02*
G03*
X762000Y666750I0J6350D01*
G01*
Y450850D02*
G03*
X762000Y463550I0J6350D01*
G01*
X1543800Y1140700D02*
G03*
X1504200Y1140700I-19800J15000D01*
G01*
X1340600D02*
G03*
X1301000Y1140700I-19800J15000D01*
G01*
X400800Y1178800D02*
G03*
X361200Y1178800I-19800J15000D01*
G01*
X1974850Y1320800D02*
X1981200Y1314450D01*
Y1301750D02*
Y1314450D01*
X1974850Y1295400D02*
X1981200Y1301750D01*
X1955800Y1314450D02*
X1962150Y1320800D01*
X1974850D01*
X1955800Y1301750D02*
X1962150Y1295400D01*
X1974850D01*
X2000250Y1320800D02*
X2006600Y1314450D01*
Y1301750D02*
Y1314450D01*
X2000250Y1295400D02*
X2006600Y1301750D01*
X1981200Y1314450D02*
X1987550Y1320800D01*
X2000250D01*
X1981200Y1301750D02*
X1987550Y1295400D01*
X2000250D01*
X2025650Y1320800D02*
X2032000Y1314450D01*
Y1301750D02*
Y1314450D01*
X2025650Y1295400D02*
X2032000Y1301750D01*
X2006600Y1314450D02*
X2012950Y1320800D01*
X2025650D01*
X2006600Y1301750D02*
X2012950Y1295400D01*
X2025650D01*
X2038350D02*
X2051050D01*
X2032000Y1301750D02*
X2038350Y1295400D01*
Y1320800D02*
X2051050D01*
X2032000Y1314450D02*
X2038350Y1320800D01*
X2051050Y1295400D02*
X2057400Y1301750D01*
Y1314450D01*
X2051050Y1320800D02*
X2057400Y1314450D01*
X1936750Y1295400D02*
X1949450D01*
X1930400Y1301750D02*
X1936750Y1295400D01*
Y1320800D02*
X1949450D01*
X1930400Y1314450D02*
X1936750Y1320800D01*
X1949450Y1295400D02*
X1955800Y1301750D01*
Y1314450D01*
X1949450Y1320800D02*
X1955800Y1314450D01*
X1911350Y1295400D02*
X1924050D01*
X1905000Y1301750D02*
X1911350Y1295400D01*
Y1320800D02*
X1924050D01*
X1905000Y1314450D02*
X1911350Y1320800D01*
X1924050Y1295400D02*
X1930400Y1301750D01*
Y1314450D01*
X1924050Y1320800D02*
X1930400Y1314450D01*
X1905000Y1301750D02*
Y1314450D01*
X679450Y850900D02*
X692150D01*
X673100Y869950D02*
X679450Y876300D01*
X692150D01*
X698500Y869950D01*
X673100Y857250D02*
X679450Y850900D01*
X673100Y857250D02*
Y869950D01*
X692150Y850900D02*
X698500Y857250D01*
Y869950D01*
X673100Y895350D02*
X679450Y901700D01*
X692150D01*
X698500Y895350D01*
X673100Y882650D02*
X679450Y876300D01*
X673100Y882650D02*
Y895350D01*
X692150Y876300D02*
X698500Y882650D01*
Y895350D01*
X673100Y920750D02*
X679450Y927100D01*
X692150D01*
X698500Y920750D01*
X673100Y908050D02*
X679450Y901700D01*
X673100Y908050D02*
Y920750D01*
X692150Y901700D02*
X698500Y908050D01*
Y920750D01*
X673100Y946150D02*
X679450Y952500D01*
X692150D01*
X698500Y946150D01*
X673100Y933450D02*
X679450Y927100D01*
X673100Y933450D02*
Y946150D01*
X692150Y927100D02*
X698500Y933450D01*
Y946150D01*
X673100Y1047750D02*
X679450Y1054100D01*
X692150D01*
X698500Y1047750D01*
X673100Y1035050D02*
X679450Y1028700D01*
X673100Y1035050D02*
Y1047750D01*
X692150Y1028700D02*
X698500Y1035050D01*
Y1047750D01*
Y1009650D02*
Y1022350D01*
X692150Y1003300D02*
X698500Y1009650D01*
X673100D02*
Y1022350D01*
Y1009650D02*
X679450Y1003300D01*
X692150Y1028700D02*
X698500Y1022350D01*
X679450Y1028700D02*
X692150D01*
X673100Y1022350D02*
X679450Y1028700D01*
X698500Y984250D02*
Y996950D01*
X692150Y977900D02*
X698500Y984250D01*
X673100D02*
Y996950D01*
Y984250D02*
X679450Y977900D01*
X692150Y1003300D02*
X698500Y996950D01*
X679450Y1003300D02*
X692150D01*
X673100Y996950D02*
X679450Y1003300D01*
X698500Y958850D02*
Y971550D01*
X692150Y952500D02*
X698500Y958850D01*
X673100D02*
Y971550D01*
Y958850D02*
X679450Y952500D01*
X692150Y977900D02*
X698500Y971550D01*
X679450Y977900D02*
X692150D01*
X673100Y971550D02*
X679450Y977900D01*
X323850Y1054100D02*
X336550D01*
Y1028700D02*
X342900Y1035050D01*
X323850Y1028700D02*
X336550D01*
X317500Y1035050D02*
X323850Y1028700D01*
X336550Y1054100D02*
X342900Y1047750D01*
Y1035050D02*
Y1047750D01*
X317500D02*
X323850Y1054100D01*
X317500Y1035050D02*
Y1047750D01*
X336550Y1003300D02*
X342900Y1009650D01*
X323850Y1003300D02*
X336550D01*
X317500Y1009650D02*
X323850Y1003300D01*
X336550Y1028700D02*
X342900Y1022350D01*
Y1009650D02*
Y1022350D01*
X317500D02*
X323850Y1028700D01*
X317500Y1009650D02*
Y1022350D01*
X336550Y977900D02*
X342900Y984250D01*
X323850Y977900D02*
X336550D01*
X317500Y984250D02*
X323850Y977900D01*
X336550Y1003300D02*
X342900Y996950D01*
Y984250D02*
Y996950D01*
X317500D02*
X323850Y1003300D01*
X317500Y984250D02*
Y996950D01*
X336550Y952500D02*
X342900Y958850D01*
X323850Y952500D02*
X336550D01*
X317500Y958850D02*
X323850Y952500D01*
X336550Y977900D02*
X342900Y971550D01*
Y958850D02*
Y971550D01*
X317500D02*
X323850Y977900D01*
X317500Y958850D02*
Y971550D01*
X336550Y850900D02*
X342900Y857250D01*
X323850Y850900D02*
X336550D01*
X317500Y857250D02*
X323850Y850900D01*
X336550Y876300D02*
X342900Y869950D01*
Y857250D02*
Y869950D01*
X317500D02*
X323850Y876300D01*
X317500Y857250D02*
Y869950D01*
Y882650D02*
Y895350D01*
X323850Y901700D01*
X342900Y882650D02*
Y895350D01*
X336550Y901700D02*
X342900Y895350D01*
X317500Y882650D02*
X323850Y876300D01*
X336550D01*
X342900Y882650D01*
X317500Y908050D02*
Y920750D01*
X323850Y927100D01*
X342900Y908050D02*
Y920750D01*
X336550Y927100D02*
X342900Y920750D01*
X317500Y908050D02*
X323850Y901700D01*
X336550D01*
X342900Y908050D01*
X317500Y933450D02*
Y946150D01*
X323850Y952500D01*
X342900Y933450D02*
Y946150D01*
X336550Y952500D02*
X342900Y946150D01*
X317500Y933450D02*
X323850Y927100D01*
X336550D01*
X342900Y933450D01*
X1511046Y711200D02*
X1536700D01*
X1612900Y1028700D02*
X1638300D01*
X1612900D02*
Y1079500D01*
X1638300D01*
Y1028700D02*
Y1079500D01*
X762000Y928100D02*
X1143000D01*
X762000Y799100D02*
X1143000D01*
Y928100D01*
X762000Y869950D02*
Y928100D01*
Y799100D02*
Y857250D01*
X1662176Y1406906D02*
X1742948D01*
X1662176Y1333246D02*
Y1406906D01*
Y1333246D02*
X1742948D01*
Y1406906D01*
X368900Y572600D02*
X570900D01*
X368900Y519600D02*
X570900D01*
Y572600D01*
X368900Y552450D02*
Y572600D01*
Y519600D02*
Y539750D01*
X1644650Y562500D02*
X1664800D01*
X1611800D02*
X1631950D01*
X1611800Y834500D02*
X1664800D01*
Y562500D02*
Y834500D01*
X1611800Y562500D02*
Y834500D01*
X469900Y622300D02*
Y647700D01*
X368900Y445600D02*
X570900D01*
X368900Y392600D02*
X570900D01*
Y445600D01*
X368900Y425450D02*
Y445600D01*
Y392600D02*
Y412750D01*
X546100Y622300D02*
Y647700D01*
X1612900Y546100D02*
X1663700D01*
X1612900Y520700D02*
Y546100D01*
Y520700D02*
X1663700D01*
Y546100D01*
X1484376Y1406906D02*
X1565148D01*
X1484376Y1333246D02*
Y1406906D01*
Y1333246D02*
X1565148D01*
Y1406906D01*
X1498600Y1206500D02*
X1549400D01*
Y1231900D01*
X1498600D02*
X1549400D01*
X1498600Y1206500D02*
Y1231900D01*
X1892300Y901700D02*
Y952500D01*
X1866900D02*
X1892300D01*
X1866900Y901700D02*
Y952500D01*
Y901700D02*
X1892300D01*
Y647700D02*
Y698500D01*
X1866900D02*
X1892300D01*
X1866900Y647700D02*
Y698500D01*
Y647700D02*
X1892300D01*
X1283300Y826600D02*
X1485300D01*
X1283300Y773600D02*
X1485300D01*
Y826600D01*
X1283300Y806450D02*
Y826600D01*
Y773600D02*
Y793750D01*
X457200Y1104900D02*
X508000D01*
X457200Y1079500D02*
Y1104900D01*
Y1079500D02*
X508000D01*
Y1104900D01*
X1892300Y393700D02*
Y444500D01*
X1866900D02*
X1892300D01*
X1866900Y393700D02*
Y444500D01*
Y393700D02*
X1892300D01*
X379600Y801200D02*
X585600D01*
X379600Y748200D02*
X585600D01*
Y801200D01*
X379600Y781050D02*
Y801200D01*
Y748200D02*
Y768350D01*
X1270000Y1028700D02*
Y1079500D01*
X1244600D02*
X1270000D01*
X1244600Y1028700D02*
Y1079500D01*
Y1028700D02*
X1270000D01*
X1549400Y444500D02*
X1600200D01*
Y469900D01*
X1549400D02*
X1600200D01*
X1549400Y444500D02*
Y469900D01*
X1270000Y774700D02*
Y825500D01*
X1244600D02*
X1270000D01*
X1244600Y774700D02*
Y825500D01*
Y774700D02*
X1270000D01*
X1790700Y482600D02*
X1841500D01*
Y508000D01*
X1790700D02*
X1841500D01*
X1790700Y482600D02*
Y508000D01*
X456100Y849500D02*
Y1055500D01*
X509100Y849500D02*
Y1055500D01*
X456100D02*
X509100D01*
X456100Y849500D02*
X476250D01*
X488950D02*
X509100D01*
X1244600Y520700D02*
Y571500D01*
X1219200D02*
X1244600D01*
X1219200Y520700D02*
Y571500D01*
Y520700D02*
X1244600D01*
X749300Y635000D02*
Y685800D01*
X723900D02*
X749300D01*
X723900Y635000D02*
Y685800D01*
Y635000D02*
X749300D01*
X1651600Y445600D02*
X1853600D01*
X1651600Y392600D02*
X1853600D01*
Y445600D01*
X1651600Y425450D02*
Y445600D01*
Y392600D02*
Y412750D01*
X1541780Y357500D02*
X1607670D01*
X1541780Y404500D02*
X1607670D01*
X647700Y1143000D02*
Y1193800D01*
Y1143000D02*
X673100D01*
Y1193800D01*
X647700D02*
X673100D01*
X463804Y1266698D02*
Y1409954D01*
X372872Y1266698D02*
X463804D01*
X372872D02*
Y1409954D01*
X463804D01*
X687500Y1232900D02*
X1217500D01*
X687500Y1103900D02*
X1217500D01*
Y1232900D01*
X687500Y1174750D02*
Y1232900D01*
Y1103900D02*
Y1162050D01*
X583100Y849500D02*
Y1055500D01*
X636100Y849500D02*
Y1055500D01*
X583100D02*
X636100D01*
X583100Y849500D02*
X603250D01*
X615950D02*
X636100D01*
X1905600Y572600D02*
X2107600D01*
X1905600Y519600D02*
X2107600D01*
Y572600D01*
X1905600Y552450D02*
Y572600D01*
Y519600D02*
Y539750D01*
Y445600D02*
X2107600D01*
X1905600Y392600D02*
X2107600D01*
Y445600D01*
X1905600Y425450D02*
Y445600D01*
Y392600D02*
Y412750D01*
Y953600D02*
X2107600D01*
X1905600Y900600D02*
X2107600D01*
Y953600D01*
X1905600Y933450D02*
Y953600D01*
Y900600D02*
Y920750D01*
X1797050Y562500D02*
X1817200D01*
X1764200D02*
X1784350D01*
X1764200Y834500D02*
X1817200D01*
Y562500D02*
Y834500D01*
X1764200Y562500D02*
Y834500D01*
X1905600Y826600D02*
X2107600D01*
X1905600Y773600D02*
X2107600D01*
Y826600D01*
X1905600Y806450D02*
Y826600D01*
Y773600D02*
Y793750D01*
Y699600D02*
X2107600D01*
X1905600Y646600D02*
X2107600D01*
Y699600D01*
X1905600Y679450D02*
Y699600D01*
Y646600D02*
Y666750D01*
X1651600Y953600D02*
X1853600D01*
X1651600Y900600D02*
X1853600D01*
Y953600D01*
X1651600Y933450D02*
Y953600D01*
Y900600D02*
Y920750D01*
X1498600Y622300D02*
X1549400D01*
Y647700D01*
X1498600D02*
X1549400D01*
X1498600Y622300D02*
Y647700D01*
X1752600Y1143000D02*
X1803400D01*
Y1168400D01*
X1752600D02*
X1803400D01*
X1752600Y1143000D02*
Y1168400D01*
X944700Y1355600D02*
Y1415300D01*
Y1355600D02*
X985700D01*
Y1355600D02*
Y1415300D01*
X711200Y1320800D02*
Y1415300D01*
X1219200D01*
Y1320800D02*
Y1415300D01*
X1180650Y1320800D02*
X1219200D01*
X711200D02*
X749750D01*
X1268600Y572600D02*
X1474600D01*
X1268600Y519600D02*
X1474600D01*
Y572600D01*
X1268600Y552450D02*
Y572600D01*
Y519600D02*
Y539750D01*
X1651600Y1080600D02*
X1853600D01*
X1651600Y1027600D02*
X1853600D01*
Y1080600D01*
X1651600Y1060450D02*
Y1080600D01*
Y1027600D02*
Y1047750D01*
X1701800Y1155700D02*
X1727200D01*
X1638300D02*
X1663700D01*
X1283300Y953600D02*
X1485300D01*
X1283300Y900600D02*
X1485300D01*
Y953600D01*
X1283300Y933450D02*
Y953600D01*
Y900600D02*
Y920750D01*
Y1080600D02*
X1485300D01*
X1283300Y1027600D02*
X1485300D01*
Y1080600D01*
X1283300Y1060450D02*
Y1080600D01*
Y1027600D02*
Y1047750D01*
X381000Y1117600D02*
Y1143000D01*
X1193800Y622300D02*
X1244600D01*
Y647700D01*
X1193800D02*
X1244600D01*
X1193800Y622300D02*
Y647700D01*
X1268600Y699600D02*
X1474600D01*
X1268600Y646600D02*
X1474600D01*
Y699600D01*
X1268600Y679450D02*
Y699600D01*
Y646600D02*
Y666750D01*
X1306322Y1407160D02*
X1387094D01*
X1306322Y1333500D02*
Y1407160D01*
Y1333500D02*
X1387094D01*
Y1407160D01*
X1268600Y445600D02*
X1474600D01*
X1268600Y392600D02*
X1474600D01*
Y445600D01*
X1268600Y425450D02*
Y445600D01*
Y392600D02*
Y412750D01*
X1308100Y1206500D02*
Y1257300D01*
Y1206500D02*
X1333500D01*
Y1257300D01*
X1308100D02*
X1333500D01*
X633900Y366900D02*
Y572900D01*
X686900Y366900D02*
Y572900D01*
X633900D02*
X686900D01*
X633900Y366900D02*
X654050D01*
X666750D02*
X686900D01*
X1651000Y1219200D02*
Y1244854D01*
X1752600Y1218946D02*
Y1244600D01*
X1701800Y1219200D02*
Y1244854D01*
X1511300Y1066800D02*
Y1092454D01*
X660400Y1104646D02*
Y1130300D01*
X1574800Y1142746D02*
Y1168400D01*
X1473200Y1143000D02*
Y1168654D01*
X571500Y672846D02*
Y698500D01*
X520700Y672846D02*
Y698500D01*
X444500Y672846D02*
Y698500D01*
X393700Y672846D02*
Y698500D01*
X1168400Y1028446D02*
Y1054100D01*
X380746Y990600D02*
X406400D01*
X381000Y965200D02*
X406654D01*
X380746Y1016000D02*
X406400D01*
X380746Y939800D02*
X406400D01*
X380746Y914400D02*
X406400D01*
X1727200Y495300D02*
X1752854D01*
X1651000D02*
X1676654D01*
X381000Y1041400D02*
X406654D01*
X381000Y863600D02*
X406654D01*
X380746Y889000D02*
X406400D01*
X990600Y1028446D02*
Y1054100D01*
X571500Y1079500D02*
Y1105154D01*
X939800Y1028446D02*
Y1054100D01*
X914400Y1028446D02*
Y1054100D01*
X863600Y1028446D02*
Y1054100D01*
X889000Y1028446D02*
Y1054100D01*
X965200Y1028446D02*
Y1054100D01*
X1041400Y1028446D02*
Y1054100D01*
X1016000Y1028446D02*
Y1054100D01*
X2082800Y1041400D02*
Y1067054D01*
Y1104900D02*
Y1130554D01*
X2006600Y1041400D02*
Y1067054D01*
Y1104900D02*
Y1130554D01*
X1930400Y1041400D02*
Y1067054D01*
Y1104900D02*
Y1130554D01*
X469900Y1180846D02*
Y1206500D01*
X431800Y1180846D02*
Y1206500D01*
X1270000Y1219200D02*
Y1244854D01*
X1206246Y698500D02*
X1231900D01*
X330200Y1180846D02*
Y1206500D01*
X1422400Y1219200D02*
Y1244854D01*
Y1142746D02*
Y1168400D01*
X1231900Y1143000D02*
Y1168654D01*
X1270000Y1143000D02*
Y1168654D01*
X1371600Y1142746D02*
Y1168400D01*
X355600Y749300D02*
Y800100D01*
X330200D02*
X355600D01*
X330200Y749300D02*
Y800100D01*
Y749300D02*
X355600D01*
Y393700D02*
Y444500D01*
X330200D02*
X355600D01*
X330200Y393700D02*
Y444500D01*
Y393700D02*
X355600D01*
X1238250Y1244600D02*
X1244600Y1250950D01*
X1225550Y1244600D02*
X1238250D01*
X1219200Y1250950D02*
X1225550Y1244600D01*
X1238250Y1270000D02*
X1244600Y1263650D01*
Y1250950D02*
Y1263650D01*
X1219200D02*
X1225550Y1270000D01*
X1219200Y1250950D02*
Y1263650D01*
Y1276350D02*
Y1289050D01*
X1225550Y1295400D01*
X1244600Y1276350D02*
Y1289050D01*
X1238250Y1295400D02*
X1244600Y1289050D01*
X1219200Y1276350D02*
X1225550Y1270000D01*
X1238250D01*
X1244600Y1276350D01*
X1219200Y1301750D02*
Y1314450D01*
X1225550Y1320800D01*
X1244600Y1301750D02*
Y1314450D01*
X1238250Y1320800D02*
X1244600Y1314450D01*
X1219200Y1301750D02*
X1225550Y1295400D01*
X1238250D01*
X1244600Y1301750D01*
X1225550Y1320800D02*
X1238250D01*
X762000Y595900D02*
Y654050D01*
Y666750D02*
Y724900D01*
X1143000Y595900D02*
Y724900D01*
X762000Y595900D02*
X1143000D01*
X762000Y724900D02*
X1143000D01*
X762000Y392700D02*
Y450850D01*
Y463550D02*
Y521700D01*
X1143000Y392700D02*
Y521700D01*
X762000Y392700D02*
X1143000D01*
X762000Y521700D02*
X1143000D01*
X1504200Y1140700D02*
X1543800D01*
X1301000D02*
X1340600D01*
X361200Y1178800D02*
X400800D01*
X647700Y1314450D02*
Y1327150D01*
X622300Y1314450D02*
X628650Y1308100D01*
X622300Y1314450D02*
Y1327150D01*
X628650Y1333500D01*
X641350Y1308100D02*
X647700Y1314450D01*
X628650Y1308100D02*
X641350D01*
Y1333500D02*
X647700Y1327150D01*
X628650Y1333500D02*
X641350D01*
X603250D02*
X615950D01*
X622300Y1327150D01*
X603250Y1308100D02*
X615950D01*
X622300Y1314450D01*
X596900Y1327150D02*
X603250Y1333500D01*
X596900Y1314450D02*
Y1327150D01*
Y1314450D02*
X603250Y1308100D01*
D32*
X1647444Y1271524D02*
Y1332738D01*
X1647952Y1333246D02*
X1756664D01*
Y1272032D02*
Y1333246D01*
X1469644Y1271524D02*
Y1332738D01*
X1470152Y1333246D02*
X1578864D01*
Y1272032D02*
Y1333246D01*
X1291590Y1271778D02*
Y1332992D01*
X1292098Y1333500D02*
X1400810D01*
Y1272286D02*
Y1333500D01*
D33*
X533402Y1268350D02*
Y1278347D01*
X528404Y1273348D02*
X538401D01*
X1117598Y1078610D02*
Y1068613D01*
X1122596Y1073612D02*
X1112599D01*
X431798Y1170050D02*
Y1160053D01*
X436796Y1165052D02*
X426799D01*
X1371598Y1269110D02*
Y1259113D01*
X1376596Y1264112D02*
X1366599D01*
M02*
